<?xml version="1.0" encoding="UTF-8" standalone="no"?>
<!-- Generator: Adobe Illustrator 19.1.1, SVG Export Plug-In . SVG Version: 6.00 Build 0)  -->

<svg
   version="1.1"
   x="0px"
   y="0px"
   viewBox="0 2 22.550415 26.314106"
   enable-background="new 0 2 48 48"
   xml:space="preserve"
   id="svg10"
   sodipodi:docname="linux.svg"
   inkscape:version="1.4.2 (f4327f4, 2025-05-13)"
   width="22.550415"
   height="26.314106"
   xmlns:inkscape="http://www.inkscape.org/namespaces/inkscape"
   xmlns:sodipodi="http://sodipodi.sourceforge.net/DTD/sodipodi-0.dtd"
   xmlns="http://www.w3.org/2000/svg"
   xmlns:svg="http://www.w3.org/2000/svg"><defs
   id="defs10" /><sodipodi:namedview
   id="namedview10"
   pagecolor="#000000"
   bordercolor="#000000"
   borderopacity="0.25"
   inkscape:showpageshadow="2"
   inkscape:pageopacity="0.0"
   inkscape:pagecheckerboard="true"
   inkscape:deskcolor="#000000"
   showborder="true"
   inkscape:zoom="8.40625"
   inkscape:cx="0.41635688"
   inkscape:cy="11.122677"
   inkscape:window-width="1920"
   inkscape:window-height="1009"
   inkscape:window-x="-8"
   inkscape:window-y="-8"
   inkscape:window-maximized="1"
   inkscape:current-layer="svg10" />






<g
   id="g1"
   transform="matrix(0.7247332,0,0,0.7247332,-6.4389138,-3.7362547)"><path
     fill="#263238"
     d="M 34.3,23.9 C 32.7,21.6 31.4,20.2 30.7,17.3 30,14.4 30.9,15.2 30.3,12.7 30,11.4 29.5,10.5 29,9.8 28.4,9.1 27.7,8.7 27.3,8.6 c -0.9,-0.5 -3,-1.3 -5.6,0.1 -2.7,1.4 -2.4,4.4 -1.9,10.5 0,0.4 -0.1,0.9 -0.3,1.3 -0.4,0.9 -1.1,1.7 -1.7,2.4 -0.7,1 -1.4,2 -1.9,3.1 -1.2,2.3 -2.3,5.2 -2,6.3 0.5,-0.1 6.8,9.5 6.8,9.7 0.4,-0.1 2.1,-0.1 3.6,-0.1 2.1,-0.1 3.3,-0.2 5,0.2 0,-0.3 -0.1,-0.6 -0.1,-0.9 0,-0.6 0.1,-1.1 0.2,-1.8 0.1,-0.5 0.2,-1 0.3,-1.6 -1,0.9 -2.8,1.9 -4.5,2.2 -1.5,0.3 -4,-0.2 -5.2,-1.7 0.1,0 0.3,0 0.4,-0.1 0.3,-0.1 0.6,-0.2 0.7,-0.4 0.3,-0.5 0.1,-1 -0.1,-1.3 -0.2,-0.3 -1.7,-1.4 -2.4,-2 -0.7,-0.6 -1.1,-0.9 -1.5,-1.3 L 16.3,32.4 C 16.1,32.2 16,32 15.9,31.9 15.7,31.4 15.6,30.8 15.7,30 c 0.1,-1.1 0.5,-2 1,-3 0.2,-0.4 0.7,-1.2 0.7,-1.2 0,0 -1.7,4.2 -0.8,5.5 0,0 0.1,-1.3 0.5,-2.6 0.3,-0.9 0.8,-2.2 1.4,-2.9 0.6,-0.7 2.1,-3.3 2.2,-4.9 0,-0.7 0.1,-1.4 0.1,-1.9 -0.4,-0.4 6.6,-1.4 7,-0.3 0.1,0.4 1.5,4 2.3,5.9 0.4,0.9 0.9,1.7 1.2,2.7 0.3,1.1 0.5,2.6 0.5,4.1 0,0.3 0,0.8 -0.1,1.3 0.2,0 4.1,-4.2 -0.5,-7.7 0,0 2.8,1.3 2.9,3.9 0.1,2.1 -0.8,3.8 -1,4.1 0.1,0 2.1,0.9 2.2,0.9 0.4,0 1.2,-0.3 1.2,-0.3 0.1,-0.3 0.4,-1.1 0.4,-1.4 0.7,-2.3 -1,-6 -2.6,-8.3 z"
     id="path1"
     sodipodi:nodetypes="ssccccccccccccsccccccssssccscccscccccsccccsccs"
     style="fill:#ffffff;fill-opacity:1" /><g
     id="g2">
	<ellipse
   fill="#eceff1"
   cx="21.6"
   cy="15.3"
   rx="1.3"
   ry="2"
   id="ellipse1" />
	<ellipse
   fill="#eceff1"
   cx="26.1"
   cy="15.2"
   rx="1.7"
   ry="2.3"
   id="ellipse2" />
</g><g
     id="g4">
	
		<ellipse
   transform="matrix(-0.1254,-0.9921,0.9921,-0.1254,8.9754,38.9969)"
   fill="#212121"
   cx="21.700001"
   cy="15.5"
   rx="1.2"
   ry="0.69999999"
   id="ellipse3"
   style="fill:#000000;fill-opacity:1" />
	<ellipse
   fill="#212121"
   cx="26"
   cy="15.6"
   rx="1"
   ry="1.3"
   id="ellipse4"
   style="fill:#000000;fill-opacity:1" />
</g><g
     id="g6">
	<path
   fill="#FFC107"
   d="m 39.3,37.6 c -0.4,-0.2 -1.1,-0.5 -1.7,-1.4 -0.3,-0.5 -0.2,-1.9 -0.7,-2.5 -0.3,-0.4 -0.7,-0.2 -0.8,-0.2 -0.9,0.2 -3,1.6 -4.4,0 -0.2,-0.2 -0.5,-0.5 -1,-0.5 -0.5,0 -0.7,0.2 -0.9,0.6 -0.2,0.4 -0.2,0.7 -0.2,1.7 0,0.8 0,1.7 -0.1,2.4 -0.2,1.7 -0.5,2.7 -0.5,3.7 0,1.1 0.3,1.8 0.7,2.1 0.3,0.3 0.8,0.5 1.9,0.5 1.1,0 1.8,-0.4 2.5,-1.1 0.5,-0.5 0.9,-0.7 2.3,-1.7 1.1,-0.7 2.8,-1.6 3.1,-1.9 0.2,-0.2 0.5,-0.3 0.5,-0.9 0,-0.5 -0.4,-0.7 -0.7,-0.8 z"
   id="path4"
   style="fill:#afafaf;fill-opacity:1"
   sodipodi:nodetypes="cccccssscscsscssc" />
	<path
   fill="#FFC107"
   d="m 19.2,37.9 c -1,-1.6 -1.1,-1.9 -1.8,-2.9 -0.6,-1 -1.9,-2.9 -2.7,-2.9 -0.6,0 -0.9,0.3 -1.3,0.7 -0.4,0.4 -0.8,1.3 -1.5,1.8 -0.6,0.5 -2.3,0.4 -2.7,1 -0.4,0.6 0.4,1.5 0.4,3 0,0.6 -0.5,1 -0.6,1.4 -0.1,0.5 -0.2,0.8 0,1.2 0.4,0.6 0.9,0.8 4.3,1.5 1.8,0.4 3.5,1.4 4.6,1.5 1.1,0.1 3,0 3,-2.7 0.1,-1.6 -0.8,-2 -1.7,-3.6 z"
   id="path5"
   style="fill:#afafaf;fill-opacity:1"
   sodipodi:nodetypes="ccsscsscccscc" />
	<path
   fill="#FFC107"
   d="M 21.1,19.8 C 20.5,19.4 20,19 20,18.4 c 0,-0.6 0.4,-0.8 1,-1.3 0.1,-0.1 1.2,-1.1 2.3,-1.1 1.1,0 2.4,0.7 2.9,0.9 0.9,0.2 1.8,0.4 1.7,1.1 -0.1,1 -0.2,1.2 -1.2,1.7 -0.7,0.2 -2,1.3 -2.9,1.3 -0.4,0 -1,0 -1.4,-0.1 -0.3,-0.1 -0.8,-0.6 -1.3,-1.1 z"
   id="path6"
   style="fill:#c1c1c1;fill-opacity:1" />
</g><g
     id="g9">
	<path
   fill="#634703"
   d="m 20.9,19 c 0.2,0.2 0.5,0.4 0.8,0.5 0.2,0.1 0.5,0.2 0.5,0.2 0.4,0 0.7,0 0.9,0 0.5,0 1.2,-0.2 1.9,-0.6 0.7,-0.3 0.8,-0.5 1.3,-0.7 0.5,-0.3 1,-0.6 0.8,-0.7 -0.2,-0.1 -0.4,0 -1.1,0.4 -0.6,0.4 -1.1,0.6 -1.7,0.9 -0.3,0.1 -0.7,0.3 -1,0.3 -0.3,0 -0.6,0 -0.9,0 -0.3,0 -0.5,-0.1 -0.8,-0.2 -0.2,-0.1 -0.3,-0.2 -0.4,-0.2 -0.2,-0.1 -0.6,-0.5 -0.8,-0.6 0,0 -0.2,0 -0.1,0.1 0.3,0.3 0.4,0.4 0.6,0.6 z"
   id="path7"
   style="fill:#8b8b8b;fill-opacity:1" />
	<path
   fill="#634703"
   d="m 23.9,16.8 c 0.1,0.2 0.3,0.2 0.4,0.3 0.1,0.1 0.2,0.1 0.2,0.1 0.1,-0.1 0,-0.3 -0.1,-0.3 0,-0.2 -0.5,-0.2 -0.5,-0.1 z"
   id="path8"
   style="fill:#8b8b8b;fill-opacity:1" />
	<path
   fill="#634703"
   d="m 22.3,17 c 0,0.1 0.2,0.2 0.2,0.1 0.1,-0.1 0.2,-0.2 0.3,-0.2 0.2,-0.1 0.1,-0.2 -0.2,-0.2 -0.2,0.1 -0.2,0.2 -0.3,0.3 z"
   id="path9"
   style="fill:#8b8b8b;fill-opacity:1" />
</g><path
     fill="#455A64"
     d="M 32,34.7 V 35 c 0.2,0.4 0.7,0.5 1.1,0.5 0.6,0 1.2,-0.4 1.5,-0.8 0,-0.1 0.1,-0.2 0.2,-0.3 0.2,-0.3 0.3,-0.5 0.4,-0.6 0,0 -0.1,-0.1 -0.1,-0.2 -0.1,-0.2 -0.4,-0.4 -0.8,-0.5 -0.3,-0.1 -0.8,-0.2 -1,-0.2 -0.9,-0.1 -1.4,0.2 -1.7,0.5 0,0 0.1,0 0.1,0.1 0.2,0.2 0.3,0.4 0.3,0.7 0.1,0.2 0,0.3 0,0.5 z"
     id="path10"
     style="fill:#ffffff;fill-opacity:1"
     sodipodi:nodetypes="scscccccccccs" /></g>
</svg>
