<?xml version="1.0" encoding="UTF-8" standalone="no"?>
<!-- Created with Inkscape (http://www.inkscape.org/) -->

<svg
   id="svg2987"
   version="1.1"
   inkscape:version="1.4.2 (f4327f4, 2025-05-13)"
   width="207.92322"
   height="227.1693"
   sodipodi:docname="windows_104558.svg"
   xmlns:inkscape="http://www.inkscape.org/namespaces/inkscape"
   xmlns:sodipodi="http://sodipodi.sourceforge.net/DTD/sodipodi-0.dtd"
   xmlns="http://www.w3.org/2000/svg"
   xmlns:svg="http://www.w3.org/2000/svg"
   xmlns:rdf="http://www.w3.org/1999/02/22-rdf-syntax-ns#"
   xmlns:cc="http://creativecommons.org/ns#"
   xmlns:dc="http://purl.org/dc/elements/1.1/">
  <metadata
     id="metadata2993">
    <rdf:RDF>
      <cc:Work
         rdf:about="">
        <dc:format>image/svg+xml</dc:format>
        <dc:type
           rdf:resource="http://purl.org/dc/dcmitype/StillImage" />
      </cc:Work>
    </rdf:RDF>
  </metadata>
  <defs
     id="defs2991" />
  <sodipodi:namedview
     pagecolor="#ffffff"
     bordercolor="#666666"
     borderopacity="1"
     objecttolerance="10"
     gridtolerance="10"
     guidetolerance="10"
     inkscape:pageopacity="0"
     inkscape:pageshadow="2"
     inkscape:window-width="1089"
     inkscape:window-height="607"
     id="namedview2989"
     showgrid="false"
     inkscape:zoom="0.921875"
     inkscape:cx="102.50847"
     inkscape:cy="113.35593"
     inkscape:window-x="15"
     inkscape:window-y="39"
     inkscape:window-maximized="0"
     inkscape:current-layer="svg2987"
     inkscape:showpageshadow="2"
     inkscape:pagecheckerboard="0"
     inkscape:deskcolor="#d1d1d1" />
  <path
     inkscape:connector-curvature="0"
     id="path2984"
     d="m 151.73406,216.51491 c -29.10131,-5.80414 -55.334624,-11.05699 -58.296264,-11.673 l -5.38479,-1.12004 v -41.43169 -41.4317 l 34.415864,0.30053 c 18.92872,0.16529 45.89952,0.55568 59.9351,0.86751 l 25.51925,0.56696 v 52.33667 c 0,49.25802 -0.0964,52.33081 -1.63886,52.23719 -0.90136,-0.0547 -25.449,-4.84831 -54.5503,-10.65243 z M 36.546281,193.56577 0.491571,186.49747 0.24579,153.18821 0,119.87895 l 36.3005,0.42738 c 19.965273,0.23506 36.410425,0.52151 36.544783,0.63656 0.134358,0.11505 0.134358,18.09263 0,39.95018 l -0.244292,39.741 z M 0.023328,74.151356 c 0,-18.284889 0.121275,-33.245253 0.269502,-33.245253 0.148227,0 16.040862,-3.16064 35.316965,-7.023645 19.276103,-3.863004 35.590157,-7.023644 36.253451,-7.023644 0.964675,0 1.205988,7.934245 1.205988,39.652012 v 39.652014 l -18.963841,0.61443 c -10.430112,0.33793 -26.865441,0.61553 -36.522953,0.61688 l -17.559112,0.003 V 74.151892 Z M 88.053006,65.140081 V 23.518013 L 146.34926,12.006071 C 178.4122,5.6745027 205.383,0.2872137 206.28436,0.0343167 c 1.54692,-0.434018 1.63886,2.511944 1.63886,52.5147533 v 52.97457 h -31.68798 c -17.42838,0 -44.39918,0.27866 -59.93511,0.61926 l -28.247124,0.61925 z"
     style="fill:#ffffff;fill-opacity:1" />
</svg>
