<?xml version="1.0" encoding="UTF-8" standalone="no"?>
<!-- Created with Inkscape (http://www.inkscape.org/) -->

<svg
   width="15mm"
   height="15mm"
   viewBox="0 0 15 15"
   version="1.1"
   id="svg1"
   inkscape:version="1.4 (86a8ad7, 2024-10-11)"
   sodipodi:docname="308sub.svg"
   inkscape:export-filename="308sub.png"
   inkscape:export-xdpi="216.74667"
   inkscape:export-ydpi="216.74667"
   xmlns:inkscape="http://www.inkscape.org/namespaces/inkscape"
   xmlns:sodipodi="http://sodipodi.sourceforge.net/DTD/sodipodi-0.dtd"
   xmlns="http://www.w3.org/2000/svg"
   xmlns:svg="http://www.w3.org/2000/svg">
  <sodipodi:namedview
     id="namedview1"
     pagecolor="#ffffff"
     bordercolor="#000000"
     borderopacity="0.25"
     inkscape:showpageshadow="2"
     inkscape:pageopacity="0.0"
     inkscape:pagecheckerboard="0"
     inkscape:deskcolor="#d1d1d1"
     inkscape:document-units="mm"
     inkscape:zoom="5.751347"
     inkscape:cx="25.385358"
     inkscape:cy="56.76931"
     inkscape:window-width="1920"
     inkscape:window-height="1009"
     inkscape:window-x="-8"
     inkscape:window-y="-8"
     inkscape:window-maximized="1"
     inkscape:current-layer="layer1" />
  <defs
     id="defs1" />
  <g
     inkscape:label="Camada 1"
     inkscape:groupmode="layer"
     id="layer1">
    <rect
       style="fill:#12151a;fill-opacity:1;stroke:#0e0e12;stroke-width:1.7647;stroke-linecap:round;stroke-linejoin:round;stroke-dasharray:none;stroke-opacity:1"
       id="rect1"
       width="13.235293"
       height="13.235296"
       x="0.88235307"
       y="0.88235307" />
    <path
       d="M 2.2400821,8.4877784 H 3.1290823 V 9.2286119 H 2.2400821 Z m 2.9633328,0.7902224 q -0.8247946,0 -1.8273893,-0.098778 V 8.5124729 q 1.0914947,0.074083 1.6298337,0.074083 0.1135944,0 0.1778,-0.064205 0.069144,-0.069145 0.069144,-0.182739 V 8.1420562 q 0,-0.2963334 -0.2963334,-0.2963334 H 3.9193035 V 7.1542782 h 0.9383891 q 0.2963334,0 0.2963334,-0.2963334 V 6.759167 q 0,-0.2963334 -0.2963334,-0.2963334 H 3.4254145 V 5.771389 h 1.6792226 q 0.4840112,0 0.7112001,0.22225 0.227189,0.2173112 0.227189,0.6667502 0,0.2963334 -0.1382889,0.4840112 -0.1333501,0.1827389 -0.3556001,0.2568223 0.4000501,0.1086555 0.5432779,0.5334001 0.049389,0.1531056 0.049389,0.3556 v 0.049389 q 0,0.4840113 -0.227189,0.7112002 Q 5.6874261,9.2780008 5.2034149,9.2780008 Z M 8.512474,6.7097781 q 0,-0.2963334 -0.2963334,-0.2963334 H 7.6728627 q -0.2963334,0 -0.2963334,0.2963334 v 1.5804447 q 0,0.2963334 0.2963334,0.2963334 h 0.5432779 q 0.2963334,0 0.2963334,-0.2963334 z m 0.8890002,1.5804447 q 0,0.5185835 -0.2370667,0.7556502 Q 8.9322796,9.2780008 8.4136962,9.2780008 H 7.4753071 q -0.5185835,0 -0.7556502,-0.2321278 Q 6.4875291,8.8088063 6.4875291,8.2902228 V 6.7097781 q 0,-0.5185835 0.2321278,-0.7507113 0.2370667,-0.2370667 0.7556502,-0.2370667 h 0.9383891 q 0.5185834,0 0.7507113,0.2370667 0.2370667,0.2321278 0.2370667,0.7507113 z m 1.5310568,-0.4445 q -0.296334,0 -0.296334,0.2963334 v 0.1975555 q 0,0.1135945 0.06421,0.182739 0.06914,0.064205 0.182739,0.064205 h 0.740833 q 0.113595,0 0.1778,-0.064205 0.06915,-0.069145 0.06915,-0.182739 V 8.1420562 q 0,-0.2963334 -0.296334,-0.2963334 z m 0.09878,-1.4322781 q -0.296333,0 -0.296333,0.2963334 v 0.1481667 q 0,0.2963334 0.296333,0.2963334 h 0.4445 q 0.296334,0 0.296334,-0.2963334 V 6.7097781 q 0,-0.2963334 -0.296334,-0.2963334 z m 1.728612,1.926167 q 0,0.4840113 -0.227189,0.7112002 -0.227189,0.2271889 -0.7112,0.2271889 h -1.135945 q -0.484011,0 -0.7112001,-0.2271889 Q 9.747197,8.823623 9.747197,8.3396117 v -0.049389 q 0,-0.3753556 0.1876778,-0.6223001 0.1481662,-0.1975556 0.4049892,-0.2667 -0.22225,-0.074083 -0.3605392,-0.2568223 -0.13335,-0.1876778 -0.13335,-0.4840112 v -0.049389 q 0,-0.449439 0.2271892,-0.6667502 0.227189,-0.22225 0.7112,-0.22225 h 0.938389 q 0.484011,0 0.7112,0.22225 0.227189,0.2173112 0.227189,0.6667502 v 0.049389 q 0,0.2963334 -0.138289,0.4840112 -0.13335,0.1827389 -0.3556,0.2568223 0.40005,0.1086555 0.543278,0.5334001 0.04939,0.1531056 0.04939,0.3556 z"
       id="text1"
       style="font-size:4.93889px;font-family:'Russo One';-inkscape-font-specification:'Russo One, Normal';fill:#222835;stroke-width:0.264583"
       aria-label=".308" />
  </g>
</svg>
