<?xml version="1.0" encoding="UTF-8" standalone="no"?>
<!-- Created with Inkscape (http://www.inkscape.org/) -->

<svg
   width="15mm"
   height="15mm"
   viewBox="0 0 15 15"
   version="1.1"
   id="svg1"
   inkscape:version="1.4 (86a8ad7, 2024-10-11)"
   sodipodi:docname="50cal.svg"
   inkscape:export-filename="50cal.png"
   inkscape:export-xdpi="216.74667"
   inkscape:export-ydpi="216.74667"
   xmlns:inkscape="http://www.inkscape.org/namespaces/inkscape"
   xmlns:sodipodi="http://sodipodi.sourceforge.net/DTD/sodipodi-0.dtd"
   xmlns="http://www.w3.org/2000/svg"
   xmlns:svg="http://www.w3.org/2000/svg">
  <sodipodi:namedview
     id="namedview1"
     pagecolor="#ffffff"
     bordercolor="#000000"
     borderopacity="0.25"
     inkscape:showpageshadow="2"
     inkscape:pageopacity="0.0"
     inkscape:pagecheckerboard="0"
     inkscape:deskcolor="#d1d1d1"
     inkscape:document-units="mm"
     inkscape:zoom="5.6568542"
     inkscape:cx="26.958446"
     inkscape:cy="44.105786"
     inkscape:window-width="1920"
     inkscape:window-height="1009"
     inkscape:window-x="-8"
     inkscape:window-y="-8"
     inkscape:window-maximized="1"
     inkscape:current-layer="layer1" />
  <defs
     id="defs1" />
  <g
     inkscape:label="Camada 1"
     inkscape:groupmode="layer"
     id="layer1">
    <rect
       style="fill:#535050;fill-opacity:1;stroke:#404048;stroke-width:1.31997;stroke-linecap:round;stroke-linejoin:round;stroke-dasharray:none;stroke-opacity:1"
       id="rect1"
       width="13.680029"
       height="13.680032"
       x="0.65998536"
       y="0.65998536" />
    <g
       id="g3"
       style="stroke:#46454c;stroke-opacity:1;stroke-width:0.7;stroke-dasharray:none">
      <circle
         style="fill:none;stroke:#46454c;stroke-width:0.7;stroke-dasharray:none;stroke-opacity:1"
         id="path1"
         cx="2.95"
         cy="2.95"
         r="1" />
      <circle
         style="fill:none;stroke:#46454c;stroke-width:0.7;stroke-dasharray:none;stroke-opacity:1"
         id="circle1"
         cx="12.05"
         cy="2.95"
         r="1" />
      <circle
         style="fill:none;stroke:#46454c;stroke-width:0.7;stroke-dasharray:none;stroke-opacity:1"
         id="path1-8"
         cx="2.95"
         cy="12.05"
         r="1" />
      <circle
         style="fill:none;stroke:#46454c;stroke-width:0.7;stroke-dasharray:none;stroke-opacity:1"
         id="circle1-8"
         cx="12.05"
         cy="12.05"
         r="1" />
    </g>
    <path
       d="m 2.9279997,8.7699999 h 1.143 v 0.9524999 h -1.143 z m 3.8099985,1.0159999 q -1.06045,0 -2.3495,-0.127 V 8.8017499 q 1.40335,0.09525 2.0955,0.09525 0.14605,0 0.2286,-0.08255 0.0889,-0.0889 0.0889,-0.23495 v -0.3175 q 0,-0.381 -0.381,-0.381 h -1.8415 v -2.6035 h 3.048 v 0.889 h -1.905 v 0.8255 h 1.016 q 0.6223,0 0.9144,0.28575 0.2921,0.2794 0.2921,0.85725 v 0.4445 q 0,0.6223 -0.2921,0.9144 -0.2921,0.2920999 -0.9144,0.2920999 z M 10.929,6.4839999 q 0,-0.381 -0.381,-0.381 H 9.8495003 q -0.381,0 -0.381,0.381 v 2.032 q 0,0.381 0.381,0.381 H 10.548 q 0.381,0 0.381,-0.381 z m 1.143,2.032 q 0,0.66675 -0.3048,0.97155 -0.29845,0.2984499 -0.9652,0.2984499 H 9.5955003 q -0.66675,0 -0.97155,-0.2984499 -0.29845,-0.3048 -0.29845,-0.97155 v -2.032 q 0,-0.66675 0.29845,-0.9652 0.3048,-0.3048 0.97155,-0.3048 H 10.802 q 0.66675,0 0.9652,0.3048 0.3048,0.29845 0.3048,0.9652 z"
       id="text1"
       style="font-size:6.35px;font-family:'Russo One';-inkscape-font-specification:'Russo One, Normal';fill:#31313a"
       aria-label=".50" />
  </g>
</svg>
