<?xml version="1.0" encoding="UTF-8" standalone="no"?>
<!-- Created with Inkscape (http://www.inkscape.org/) -->

<svg
   width="15mm"
   height="15mm"
   viewBox="0 0 15 15"
   version="1.1"
   id="svg1"
   inkscape:version="1.4 (86a8ad7, 2024-10-11)"
   sodipodi:docname="762mm.svg"
   inkscape:export-filename="762mm.png"
   inkscape:export-xdpi="216.74667"
   inkscape:export-ydpi="216.74667"
   xmlns:inkscape="http://www.inkscape.org/namespaces/inkscape"
   xmlns:sodipodi="http://sodipodi.sourceforge.net/DTD/sodipodi-0.dtd"
   xmlns="http://www.w3.org/2000/svg"
   xmlns:svg="http://www.w3.org/2000/svg">
  <sodipodi:namedview
     id="namedview1"
     pagecolor="#ffffff"
     bordercolor="#000000"
     borderopacity="0.25"
     inkscape:showpageshadow="2"
     inkscape:pageopacity="0.0"
     inkscape:pagecheckerboard="0"
     inkscape:deskcolor="#d1d1d1"
     inkscape:document-units="mm"
     inkscape:zoom="5.6568542"
     inkscape:cx="12.904699"
     inkscape:cy="44.105786"
     inkscape:window-width="1920"
     inkscape:window-height="1009"
     inkscape:window-x="-8"
     inkscape:window-y="-8"
     inkscape:window-maximized="1"
     inkscape:current-layer="layer1" />
  <defs
     id="defs1" />
  <g
     inkscape:label="Camada 1"
     inkscape:groupmode="layer"
     id="layer1">
    <rect
       style="fill:#006af6;fill-opacity:1;stroke:#0741a1;stroke-width:1.31997;stroke-linecap:round;stroke-linejoin:round;stroke-dasharray:none;stroke-opacity:1"
       id="rect1"
       width="13.680029"
       height="13.680032"
       x="0.65998536"
       y="0.65998536" />
    <g
       id="g3"
       style="stroke:#0854b3;stroke-opacity:1;stroke-width:0.7;stroke-dasharray:none">
      <circle
         style="fill:none;stroke:#0854b3;stroke-width:0.7;stroke-dasharray:none;stroke-opacity:1"
         id="path1"
         cx="2.95"
         cy="2.95"
         r="1" />
      <circle
         style="fill:none;stroke:#0854b3;stroke-width:0.7;stroke-dasharray:none;stroke-opacity:1"
         id="circle1"
         cx="12.05"
         cy="2.95"
         r="1" />
      <circle
         style="fill:none;stroke:#0854b3;stroke-width:0.7;stroke-dasharray:none;stroke-opacity:1"
         id="path1-8"
         cx="2.95"
         cy="12.05"
         r="1" />
      <circle
         style="fill:none;stroke:#0854b3;stroke-width:0.7;stroke-dasharray:none;stroke-opacity:1"
         id="circle1-8"
         cx="12.05"
         cy="12.05"
         r="1" />
    </g>
    <path
       d="M 2.0531135,5.5244463 H 5.1011111 V 6.314668 L 3.8028899,9.4755545 H 2.6740019 L 4.0286675,6.314668 H 2.0531135 Z M 5.0446679,8.6288884 H 6.0606672 V 9.4755545 H 5.0446679 Z M 7.5282201,5.4680019 q 0.7732883,0 1.8626652,0.1128888 V 6.3428902 Q 9.0804411,6.3259568 8.8603079,6.314668 8.6458192,6.2977346 8.5047082,6.2920902 8.3692417,6.2808013 8.2337751,6.2695124 8.0079975,6.2582236 7.8160865,6.2582236 q -0.3443108,0 -0.3443108,0.282222 V 7.0484452 Q 8.0192864,6.9355564 8.4313305,6.9355564 h 0.3951108 q 0.3838219,0 0.615244,0.231422 0.231422,0.2314221 0.231422,0.615244 v 0.7337772 q 0,0.5136441 -0.2596442,0.7676439 Q 9.1538188,9.5319989 8.6006637,9.5319989 H 7.5282201 q -0.5531552,0 -0.8127994,-0.2483554 Q 6.4557764,9.0296437 6.4557764,8.5159996 v -1.975554 q 0,-0.5531552 0.2596443,-0.8127994 Q 6.9750649,5.4680019 7.5282201,5.4680019 Z M 8.1491085,7.725778 q -0.2144887,0 -0.3951108,0.022578 -0.1749777,0.022578 -0.282222,0.033867 v 0.6208884 q 0,0.3386664 0.3386664,0.3386664 h 0.5079996 q 0.3386664,0 0.3386664,-0.3386664 V 7.9233334 q 0,-0.084667 -0.056444,-0.141111 Q 8.5442193,7.725778 8.4595527,7.725778 Z M 12.946878,6.7662232 q 0,0.4797774 -0.406399,0.8297327 -0.124178,0.1072444 -0.270933,0.2144887 l -1.213555,0.8748882 h 1.890887 V 9.4755545 H 9.8988807 V 8.4031108 L 11.930879,6.9355564 v -0.282222 q 0,-0.3386664 -0.338666,-0.3386664 H 10.01177 V 5.5244463 h 1.80622 q 0.592667,0 0.857955,0.2709332 0.270933,0.2652887 0.270933,0.8579549 z"
       id="text1"
       style="font-size:5.64444px;font-family:'Russo One';-inkscape-font-specification:'Russo One, Normal';fill:#074899"
       aria-label="7.62" />
  </g>
</svg>
