<?xml version="1.0" encoding="UTF-8" standalone="no"?>
<!-- Created with Inkscape (http://www.inkscape.org/) -->

<svg
   width="15mm"
   height="15mm"
   viewBox="0 0 15 15"
   version="1.1"
   id="svg1"
   inkscape:version="1.4 (86a8ad7, 2024-10-11)"
   sodipodi:docname="9mm.svg"
   inkscape:export-filename="9mm.png"
   inkscape:export-xdpi="216.74667"
   inkscape:export-ydpi="216.74667"
   xmlns:inkscape="http://www.inkscape.org/namespaces/inkscape"
   xmlns:sodipodi="http://sodipodi.sourceforge.net/DTD/sodipodi-0.dtd"
   xmlns="http://www.w3.org/2000/svg"
   xmlns:svg="http://www.w3.org/2000/svg">
  <sodipodi:namedview
     id="namedview1"
     pagecolor="#ffffff"
     bordercolor="#000000"
     borderopacity="0.25"
     inkscape:showpageshadow="2"
     inkscape:pageopacity="0.0"
     inkscape:pagecheckerboard="0"
     inkscape:deskcolor="#d1d1d1"
     inkscape:document-units="mm"
     inkscape:zoom="4"
     inkscape:cx="43.125"
     inkscape:cy="57.125"
     inkscape:window-width="1920"
     inkscape:window-height="1009"
     inkscape:window-x="-8"
     inkscape:window-y="-8"
     inkscape:window-maximized="1"
     inkscape:current-layer="layer1" />
  <defs
     id="defs1" />
  <g
     inkscape:label="Camada 1"
     inkscape:groupmode="layer"
     id="layer1">
    <rect
       style="fill:#c7c600;fill-opacity:1;stroke:#7f6e00;stroke-width:1.31997;stroke-linecap:round;stroke-linejoin:round;stroke-dasharray:none;stroke-opacity:1"
       id="rect1"
       width="13.680029"
       height="13.680032"
       x="0.65998536"
       y="0.65998536" />
    <path
       d="m 5.5103338,9.2356669 c 1.162756,0.084667 1.9812008,0.1270001 2.4553343,0.1270001 0.1298223,0 0.2314223,-0.036689 0.3048001,-0.1100667 C 8.3494905,9.173578 8.3890016,9.0691558 8.3890016,8.9393335 V 8.1773332 C 7.8414903,8.2902221 7.3617123,8.3466666 6.9496677,8.3466666 H 6.3570008 c -0.3838223,0 -0.6914447,-0.1157112 -0.922867,-0.3471335 C 5.2027115,7.7681108 5.0870003,7.4604884 5.0870003,7.0766661 V 5.975999 c 0,-0.5136447 0.1298223,-0.8946448 0.3894668,-1.1430005 C 5.7361117,4.5789984 6.1425119,4.4519984 6.6956676,4.4519984 h 1.6086673 c 0.5531558,0 0.959556,0.127 1.2192005,0.3810001 0.2596445,0.2483557 0.3894668,0.6293558 0.3894668,1.1430005 v 2.9633345 c 0,0.5531557 -0.1298223,0.9595559 -0.3894668,1.2192005 -0.2596445,0.259645 -0.6660447,0.389467 -1.2192005,0.389467 -0.7732892,0 -1.7046229,-0.05645 -2.7940011,-0.169334 z M 7.3730012,7.1613328 c 0.3217335,0 0.6604003,-0.028222 1.0160004,-0.084667 V 6.1453324 c 0,-0.3386668 -0.1693334,-0.5080002 -0.5080002,-0.5080002 H 7.1190011 c -0.3386668,0 -0.5080002,0.1693334 -0.5080002,0.5080002 v 0.7196669 c 0,0.084667 0.028222,0.1552223 0.084667,0.2116668 0.056445,0.056445 0.1270003,0.084667 0.2116668,0.084667 z"
       id="text1"
       style="font-size:8.46667px;font-family:'Russo One';-inkscape-font-specification:'Russo One, Normal';fill:#a69d03;fill-opacity:1;stroke-width:0.264583"
       aria-label="9"
       sodipodi:nodetypes="cssscssssscsscssssccscssssssss" />
    <g
       id="g3"
       style="stroke:#a69d03;stroke-opacity:1;stroke-width:0.7;stroke-dasharray:none">
      <circle
         style="fill:none;stroke:#a69d03;stroke-width:0.7;stroke-dasharray:none;stroke-opacity:1"
         id="path1"
         cx="2.95"
         cy="2.95"
         r="1" />
      <circle
         style="fill:none;stroke:#a69d03;stroke-width:0.7;stroke-dasharray:none;stroke-opacity:1"
         id="circle1"
         cx="12.05"
         cy="2.95"
         r="1" />
      <circle
         style="fill:none;stroke:#a69d03;stroke-width:0.7;stroke-dasharray:none;stroke-opacity:1"
         id="path1-8"
         cx="2.95"
         cy="12.05"
         r="1" />
      <circle
         style="fill:none;stroke:#a69d03;stroke-width:0.7;stroke-dasharray:none;stroke-opacity:1"
         id="circle1-8"
         cx="12.05"
         cy="12.05"
         r="1" />
    </g>
  </g>
</svg>
