<?xml version="1.0" encoding="UTF-8" standalone="no"?>
<!-- Created with Inkscape (http://www.inkscape.org/) -->

<svg
   width="7.6249232mm"
   height="16.585817mm"
   viewBox="0 0 7.6249232 16.585818"
   version="1.1"
   id="svg5"
   inkscape:version="1.4.2 (f4327f4, 2025-05-13)"
   sodipodi:docname="small_blue_potion.svg"
   inkscape:export-filename="small_blue_potion.png"
   inkscape:export-xdpi="96"
   inkscape:export-ydpi="96"
   xmlns:inkscape="http://www.inkscape.org/namespaces/inkscape"
   xmlns:sodipodi="http://sodipodi.sourceforge.net/DTD/sodipodi-0.dtd"
   xmlns="http://www.w3.org/2000/svg"
   xmlns:svg="http://www.w3.org/2000/svg">
  <sodipodi:namedview
     id="namedview7"
     pagecolor="#ffffff"
     bordercolor="#666666"
     borderopacity="1.0"
     inkscape:pageshadow="2"
     inkscape:pageopacity="0.0"
     inkscape:pagecheckerboard="0"
     inkscape:document-units="mm"
     showgrid="false"
     inkscape:zoom="12.58111"
     inkscape:cx="14.42639"
     inkscape:cy="33.34364"
     inkscape:window-width="1920"
     inkscape:window-height="1009"
     inkscape:window-x="-8"
     inkscape:window-y="-8"
     inkscape:window-maximized="1"
     inkscape:current-layer="g5"
     fit-margin-top="0"
     fit-margin-left="0"
     fit-margin-right="0"
     fit-margin-bottom="0"
     inkscape:showpageshadow="2"
     inkscape:deskcolor="#d1d1d1"
     showguides="true" />
  <defs
     id="defs2" />
  <g
     inkscape:label="Layer 1"
     inkscape:groupmode="layer"
     id="layer1"
     transform="matrix(0.46465188,0,0,0.46465188,-62.901865,-63.304599)">
    <path
       id="rect3143-9"
       style="fill:#b16729;stroke:#873b1f;stroke-width:2.15215;stroke-linecap:square;stroke-dasharray:none;stroke-opacity:1"
       d="m 140.38105,137.31699 h 6.39622 l -0.25843,2.95894 h -5.87936 z"
       sodipodi:nodetypes="ccccc" />
    <g
       id="g1"
       transform="matrix(0.54843249,0,0,1.007174,64.915136,-1.0502704)">
      <path
         id="rect880"
         style="fill:#2c52ff;fill-opacity:1;stroke-width:0;stroke-linecap:square"
         d="m 140.85036,142.95502 c -1.34638,-0.0293 -2.62669,0.24253 -3.82458,0.90106 v 2.54304 h -0.79695 c -3.17461,0 -5.73078,2.69633 -5.73078,6.04567 v 11.85173 c 0,3.34933 2.55617,6.04567 5.73078,6.04567 h 14.70414 c 3.17461,0 5.73078,-2.69634 5.73078,-6.04567 v -11.85173 c 0,-3.34934 -2.55617,-6.04567 -5.73078,-6.04567 h -1.05653 v -2.54304 c -1.26599,0.64053 -2.8633,0.77954 -4.81012,0 -1.45696,-0.54149 -2.86958,-0.8718 -4.21596,-0.90106 z"
         sodipodi:nodetypes="sccsssssssscccs" />
      <path
         id="path1"
         style="fill-opacity:0.526934;stroke-width:0.431105"
         d="m 155.71886,166.7821 c 2.03376,4.26539 -12.84162,4.49093 -17.30939,4.49093 -4.46777,0 -8.18731,-3.58231 -8.08961,-8.00039 0.0786,-3.55377 11.63916,-3.61723 14.91388,-2.05217 3.35787,1.60479 8.15589,0.67655 10.48512,5.56163 z"
         sodipodi:nodetypes="sssss" />
    </g>
    <g
       id="g5">
      <path
         style="fill:#ffffff;fill-opacity:0.168473;stroke-width:2.15215;stroke-dasharray:none"
         d="m 142.88002,171.22699 6.74374,-22.31323 -4.66179,22.49429 z"
         id="path5"
         sodipodi:nodetypes="cccc"
         transform="translate(1.3002566e-6)" />
      <path
         style="fill:#ffffff;fill-opacity:0.168473;stroke-width:2.15215;stroke-dasharray:none"
         d="m 136.40782,162.98965 8.59941,-23.44474 0.54312,0.90521 -8.2826,28.55914 z"
         id="path2-0"
         sodipodi:nodetypes="ccccc"
         transform="translate(1.3002566e-6)" />
    </g>
    <path
       style="fill:#ffffff;fill-opacity:0.168627;stroke-width:0.569423"
       d="m 140.62436,140.40485 5.74803,0.13578 0.36208,6.38168 2.57983,0.4526 c 3.15225,8.87672 0.31162,15.69874 -0.36208,23.26371 l -11.22451,-0.0453 c -0.16372,-6.79676 -2.58994,-4.04079 0.13578,-23.03741 l 2.67035,-0.36208 z"
       id="path2"
       sodipodi:nodetypes="ccccccccc"
       transform="translate(1.3002566e-6)" />
    <path
       style="opacity:1;baseline-shift:baseline;display:inline;overflow:visible;vector-effect:none;fill:#1e00ff;fill-opacity:0;stroke-linecap:square;enable-background:accumulate;stop-color:#000000;stop-opacity:1"
       d="m 146.80746,146.89639 0.77807,-1e-4 c 1.72988,-2.2e-4 3.12254,2.74376 3.12254,6.15193 v 11.65984 c 0,3.40817 -1.39266,6.15193 -3.12254,6.15193 h -8.01274 c -1.72988,0 -3.12254,-2.74376 -3.12254,-6.15193 v -11.65984 c 0,-3.40817 1.39266,-6.15193 3.12254,-6.15193 h 0.74967"
       id="path3"
       transform="translate(1.3002566e-6)" />
    <path
       id="rect1191"
       style="baseline-shift:baseline;display:inline;overflow:visible;opacity:1;vector-effect:none;fill:#000957;stroke-linecap:square;enable-background:accumulate;stop-color:#000000;stop-opacity:1"
       d="m 139.24558,139.29156 v 6.54725 c -1.27096,0.14904 -2.23038,1.15929 -2.84377,2.36777 -0.66481,1.30979 -1.02652,2.99166 -1.02652,4.84232 v 11.65982 c 0,1.85066 0.36171,3.5303 1.02652,4.84009 0.66482,1.30979 1.73689,2.38668 3.17075,2.38668 h 8.01306 c 1.43386,0 2.50594,-1.07689 3.17075,-2.38668 0.66481,-1.30979 1.02652,-2.98943 1.02652,-4.84009 V 153.0489 c 0,-1.85066 -0.36171,-3.5325 -1.02652,-4.84232 -0.6181,-1.21779 -1.58821,-2.23441 -2.8738,-2.37111 v -6.54391 z m 2.15313,2.15201 h 4.33184 v 4.37633 1.07656 1.07657 h 0.002 1.85284 c 0.29595,4e-5 0.78614,0.29487 1.25006,1.20891 0.46399,0.91416 0.79742,2.30944 0.79742,3.86696 v 11.65982 c 0,1.55752 -0.33343,2.95171 -0.79742,3.86584 -0.46399,0.91413 -0.95404,1.20892 -1.25006,1.20892 h -8.01306 c -0.29602,0 -0.78609,-0.29479 -1.25007,-1.20892 -0.46399,-0.91413 -0.79741,-2.30832 -0.79741,-3.86584 V 153.0489 c 0,-1.55752 0.33342,-2.95283 0.79741,-3.86696 0.46398,-0.91413 0.95405,-1.20891 1.25007,-1.20891 h 1.82615 v -2.15313 z"
       sodipodi:nodetypes="ccssscsssssscccccccccccssssscsscsccc" />
  </g>
</svg>
