<?xml version="1.0" encoding="UTF-8" standalone="no"?>
<!-- Created with Inkscape (http://www.inkscape.org/) -->

<svg
   width="25mm"
   height="25mm"
   viewBox="0 0 25 25"
   version="1.1"
   id="svg5"
   inkscape:version="1.4 (86a8ad7, 2024-10-11)"
   sodipodi:docname="bush.svg"
   xmlns:inkscape="http://www.inkscape.org/namespaces/inkscape"
   xmlns:sodipodi="http://sodipodi.sourceforge.net/DTD/sodipodi-0.dtd"
   xmlns="http://www.w3.org/2000/svg"
   xmlns:svg="http://www.w3.org/2000/svg">
  <sodipodi:namedview
     id="namedview7"
     pagecolor="#ffffff"
     bordercolor="#666666"
     borderopacity="1.0"
     inkscape:pageshadow="2"
     inkscape:pageopacity="0.0"
     inkscape:pagecheckerboard="0"
     inkscape:document-units="mm"
     showgrid="false"
     inkscape:zoom="1.887686"
     inkscape:cx="105.68495"
     inkscape:cy="145.41613"
     inkscape:window-width="1920"
     inkscape:window-height="1009"
     inkscape:window-x="-8"
     inkscape:window-y="-8"
     inkscape:window-maximized="1"
     inkscape:current-layer="layer1"
     fit-margin-top="0"
     fit-margin-left="0"
     fit-margin-right="0"
     fit-margin-bottom="0"
     inkscape:showpageshadow="2"
     inkscape:deskcolor="#d1d1d1" />
  <defs
     id="defs2" />
  <g
     inkscape:label="Layer 1"
     inkscape:groupmode="layer"
     id="layer1"
     transform="matrix(0.49787144,0,0,0.49787144,-8.4626574,-3.6855602)">
    <path
       sodipodi:type="star"
       style="fill:#0b590d;fill-opacity:1;stroke:#000000;stroke-width:0;stroke-linecap:square;stroke-linejoin:round;stroke-miterlimit:0"
       id="path1407"
       inkscape:flatsided="false"
       sodipodi:sides="20"
       sodipodi:cx="40.958298"
       sodipodi:cy="37.767387"
       sodipodi:r1="95.198219"
       sodipodi:r2="86.630379"
       sodipodi:arg1="0.39436808"
       sodipodi:arg2="0.55144772"
       inkscape:rounded="0"
       inkscape:randomized="0"
       d="m 128.84906,74.344909 -14.10187,8.809944 -1.50289,16.559564 -16.134095,4.021033 -6.546516,15.28467 -16.587007,-1.16148 -10.949328,12.51359 -15.416265,-6.23029 -14.280343,8.5176 -12.736472,-10.68925 -16.213498,3.68786 -8.809944,-14.10187 -16.559563,-1.50289 -4.021038,-16.134095 -15.284663,-6.546516 1.161477,-16.587008 -12.513594,-10.949327 6.230297,-15.416266 -8.517607,-14.280342 10.689253,-12.736472 -3.687857,-16.2134983 14.10187,-8.8099441 1.502886,-16.5595636 16.134097,-4.021037 6.5465163,-15.284663 16.5870075,1.161476 10.9493272,-12.513594 15.416266,6.230297 14.280342,-8.517606 12.736472,10.689252 16.213498,-3.687857 8.809945,14.10187 16.559566,1.502886 4.02103,16.134098 15.28467,6.546516 -1.16148,16.5870074 12.51359,10.9493276 -6.23029,15.416265 8.5176,14.280343 -10.68925,12.736472 z"
       transform="matrix(0.26458333,0,0,0.26458333,31.267676,22.516896)" />
    <path
       sodipodi:type="star"
       style="fill:#0e7111;fill-opacity:1;stroke:#000000;stroke-width:0;stroke-linecap:square;stroke-linejoin:round;stroke-miterlimit:0"
       id="path1407-3"
       inkscape:flatsided="false"
       sodipodi:sides="20"
       sodipodi:cx="40.958298"
       sodipodi:cy="37.767387"
       sodipodi:r1="95.198219"
       sodipodi:r2="86.630379"
       sodipodi:arg1="0.39436808"
       sodipodi:arg2="0.55144772"
       inkscape:rounded="0"
       inkscape:randomized="0"
       transform="matrix(0.19682542,0,0,0.19682542,34.065099,24.675431)"
       d="m 128.84906,74.344909 -14.10187,8.809944 -1.50289,16.559564 -16.134095,4.021033 -6.546516,15.28467 -16.587007,-1.16148 -10.949328,12.51359 -15.416265,-6.23029 -14.280343,8.5176 -12.736472,-10.68925 -16.213498,3.68786 -8.809944,-14.10187 -16.559563,-1.50289 -4.021038,-16.134095 -15.284663,-6.546516 1.161477,-16.587008 -12.513594,-10.949327 6.230297,-15.416266 -8.517607,-14.280342 10.689253,-12.736472 -3.687857,-16.2134983 14.10187,-8.8099441 1.502886,-16.5595636 16.134097,-4.021037 6.5465163,-15.284663 16.5870075,1.161476 10.9493272,-12.513594 15.416266,6.230297 14.280342,-8.517606 12.736472,10.689252 16.213498,-3.687857 8.809945,14.10187 16.559566,1.502886 4.02103,16.134098 15.28467,6.546516 -1.16148,16.5870074 12.51359,10.9493276 -6.23029,15.416265 8.5176,14.280343 -10.68925,12.736472 z" />
    <path
       sodipodi:type="star"
       style="fill:#139316;fill-opacity:1;stroke:#000000;stroke-width:0;stroke-linecap:square;stroke-linejoin:round;stroke-miterlimit:0"
       id="path1407-3-6"
       inkscape:flatsided="false"
       sodipodi:sides="20"
       sodipodi:cx="40.958298"
       sodipodi:cy="37.767387"
       sodipodi:r1="95.198219"
       sodipodi:r2="86.630379"
       sodipodi:arg1="0.39436808"
       sodipodi:arg2="0.55144772"
       inkscape:rounded="0"
       inkscape:randomized="0"
       transform="matrix(0.11468046,0,0,0.11468046,37.480274,28.230877)"
       d="m 128.84906,74.344909 -14.10187,8.809944 -1.50289,16.559564 -16.134095,4.021033 -6.546516,15.28467 -16.587007,-1.16148 -10.949328,12.51359 -15.416265,-6.23029 -14.280343,8.5176 -12.736472,-10.68925 -16.213498,3.68786 -8.809944,-14.10187 -16.559563,-1.50289 -4.021038,-16.134095 -15.284663,-6.546516 1.161477,-16.587008 -12.513594,-10.949327 6.230297,-15.416266 -8.517607,-14.280342 10.689253,-12.736472 -3.687857,-16.2134983 14.10187,-8.8099441 1.502886,-16.5595636 16.134097,-4.021037 6.5465163,-15.284663 16.5870075,1.161476 10.9493272,-12.513594 15.416266,6.230297 14.280342,-8.517606 12.736472,10.689252 16.213498,-3.687857 8.809945,14.10187 16.559566,1.502886 4.02103,16.134098 15.28467,6.546516 -1.16148,16.5870074 12.51359,10.9493276 -6.23029,15.416265 8.5176,14.280343 -10.68925,12.736472 z" />
    <path
       sodipodi:type="star"
       style="fill:#17b71c;fill-opacity:1;stroke:#000000;stroke-width:0;stroke-linecap:square;stroke-linejoin:round;stroke-miterlimit:0"
       id="path1407-3-6-7"
       inkscape:flatsided="false"
       sodipodi:sides="20"
       sodipodi:cx="40.958298"
       sodipodi:cy="37.767387"
       sodipodi:r1="95.198219"
       sodipodi:r2="86.630379"
       sodipodi:arg1="0.39436808"
       sodipodi:arg2="0.55144772"
       inkscape:rounded="0"
       inkscape:randomized="0"
       transform="matrix(0.06099803,0,0,0.06099803,39.912241,30.326233)"
       d="m 128.84906,74.344909 -14.10187,8.809944 -1.50289,16.559564 -16.134095,4.021033 -6.546516,15.28467 -16.587007,-1.16148 -10.949328,12.51359 -15.416265,-6.23029 -14.280343,8.5176 -12.736472,-10.68925 -16.213498,3.68786 -8.809944,-14.10187 -16.559563,-1.50289 -4.021038,-16.134095 -15.284663,-6.546516 1.161477,-16.587008 -12.513594,-10.949327 6.230297,-15.416266 -8.517607,-14.280342 10.689253,-12.736472 -3.687857,-16.2134983 14.10187,-8.8099441 1.502886,-16.5595636 16.134097,-4.021037 6.5465163,-15.284663 16.5870075,1.161476 10.9493272,-12.513594 15.416266,6.230297 14.280342,-8.517606 12.736472,10.689252 16.213498,-3.687857 8.809945,14.10187 16.559566,1.502886 4.02103,16.134098 15.28467,6.546516 -1.16148,16.5870074 12.51359,10.9493276 -6.23029,15.416265 8.5176,14.280343 -10.68925,12.736472 z" />
  </g>
</svg>
