<?xml version="1.0" encoding="UTF-8" standalone="no"?>
<!-- Created with Inkscape (http://www.inkscape.org/) -->

<svg
   width="27mm"
   height="24.585648mm"
   viewBox="0 0 27 24.585649"
   version="1.1"
   id="svg5"
   inkscape:version="1.4 (86a8ad7, 2024-10-11)"
   sodipodi:docname="stone_dead.svg"
   xmlns:inkscape="http://www.inkscape.org/namespaces/inkscape"
   xmlns:sodipodi="http://sodipodi.sourceforge.net/DTD/sodipodi-0.dtd"
   xmlns="http://www.w3.org/2000/svg"
   xmlns:svg="http://www.w3.org/2000/svg">
  <sodipodi:namedview
     id="namedview7"
     pagecolor="#ffffff"
     bordercolor="#666666"
     borderopacity="1.0"
     inkscape:pageshadow="2"
     inkscape:pageopacity="0.0"
     inkscape:pagecheckerboard="0"
     inkscape:document-units="mm"
     showgrid="false"
     inkscape:zoom="2.599907"
     inkscape:cx="46.924755"
     inkscape:cy="133.274"
     inkscape:window-width="1920"
     inkscape:window-height="1009"
     inkscape:window-x="-8"
     inkscape:window-y="-8"
     inkscape:window-maximized="1"
     inkscape:current-layer="layer1"
     fit-margin-top="0"
     fit-margin-left="0"
     fit-margin-right="0"
     fit-margin-bottom="0"
     inkscape:showpageshadow="2"
     inkscape:deskcolor="#d1d1d1" />
  <defs
     id="defs2" />
  <g
     inkscape:label="Layer 1"
     inkscape:groupmode="layer"
     id="layer1"
     transform="matrix(0.77142856,0,0,0.77142856,-17.873489,-12.277359)">
    <g
       id="g1"
       transform="matrix(-0.26647613,0,0,0.25318796,45.264714,15.953357)">
      <path
         sodipodi:type="star"
         style="fill:#b0b0b0;fill-opacity:1;stroke:#3e3e3e;stroke-width:5.87966458;stroke-linecap:square;stroke-linejoin:round;stroke-miterlimit:0;stroke-dasharray:none;stroke-opacity:1"
         id="path1177"
         inkscape:flatsided="true"
         sodipodi:sides="7"
         sodipodi:cx="52.100086"
         sodipodi:cy="31.705463"
         sodipodi:r1="56.825199"
         sodipodi:r2="59.304585"
         sodipodi:arg1="0.28886661"
         sodipodi:arg2="0.73766556"
         inkscape:rounded="0.3"
         inkscape:randomized="0.132"
         d="M 112.68636,44.908424 C 106.63713,59.174285 79.821166,82.427049 66.757499,89.365499 53.693832,96.303948 43.140261,84.098116 28.724431,78.480331 14.3086,72.862546 -8.3432709,54.447775 -8.566814,39.179625 -8.7903571,23.911476 -3.1775201,0.49603411 6.0452959,-10.932358 c 9.2228161,-11.428393 32.4001741,-9.05299 46.9398061,-7.762239 14.539631,1.290751 42.773723,0.848704 53.499028,11.3760884 10.7253,10.527384 12.25147,37.9610706 6.20223,52.2269326 z"
         transform="matrix(0.24939694,0,0,0.24294445,28.827716,23.49098)"
         inkscape:transform-center-x="1.310614"
         inkscape:transform-center-y="0.55342648" />
      <path
         sodipodi:type="star"
         style="fill:#d6d6d6;fill-opacity:1;stroke:none;stroke-width:0;stroke-linecap:square;stroke-linejoin:round;stroke-miterlimit:0;stroke-dasharray:none;stroke-opacity:1"
         id="path1177-3"
         inkscape:flatsided="true"
         sodipodi:sides="7"
         sodipodi:cx="52.100086"
         sodipodi:cy="31.705463"
         sodipodi:r1="65.823128"
         sodipodi:r2="59.304585"
         sodipodi:arg1="0.32885061"
         sodipodi:arg2="0.77764956"
         inkscape:rounded="0.3"
         inkscape:randomized="0.132"
         transform="matrix(0.11274266,0.02912463,-0.02031282,0.07863181,41.068382,22.687568)"
         inkscape:transform-center-x="0.62025505"
         inkscape:transform-center-y="-0.11785397"
         d="m 112.4104,49.324754 c -2.86528,17.762093 -30.502849,39.844295 -46.324452,44.802952 -15.821603,4.958658 -28.542143,0.0035 -41.893206,-9.308798 -13.351063,-9.312304 -42.92725,-27.978636 -42.913234,-45.642232 0.01402,-17.663597 8.705813,-46.8913569 21.6152238,-56.743888 12.9094112,-9.85253 33.7862922,-10.847319 50.6826612,-8.593574 16.896369,2.253746 36.750303,9.609586 48.362597,22.3219836 11.6123,12.7123978 13.33569,35.4014634 10.47041,53.1635564 z" />
    </g>
    <g
       id="g2"
       transform="matrix(-0.27544356,0,0,0.24872596,62.959397,13.952568)">
      <path
         sodipodi:type="star"
         style="fill:#b0b0b0;fill-opacity:1;stroke:#3e3e3e;stroke-width:5.83480522;stroke-linecap:square;stroke-linejoin:round;stroke-miterlimit:0;stroke-dasharray:none;stroke-opacity:1"
         id="path1"
         inkscape:flatsided="true"
         sodipodi:sides="7"
         sodipodi:cx="52.100086"
         sodipodi:cy="31.705463"
         sodipodi:r1="55.219921"
         sodipodi:r2="59.304585"
         sodipodi:arg1="0.29751702"
         sodipodi:arg2="0.74631597"
         inkscape:rounded="0.3"
         inkscape:randomized="0.132"
         d="M 108.26509,55.71043 C 104.83841,70.446282 84.806963,76.326179 72.147349,84.38364 59.487735,92.441102 45.07586,81.79254 32.238588,73.765099 19.401315,65.737658 0.52698583,54.801687 -2.0817911,41.423951 -4.6905681,28.046215 -5.3464273,-1.4220909 3.9341847,-11.239334 c 9.2806123,-9.817242 37.4887633,-8.671657 52.3490503,-8.930567 14.860287,-0.258911 33.208169,10.332122 39.14771,22.761365 5.939545,12.429243 16.260815,38.383113 12.834145,53.118966 z"
         transform="matrix(0.24939694,0,0,0.24294445,28.827716,23.49098)"
         inkscape:transform-center-x="1.310614"
         inkscape:transform-center-y="0.55342648" />
      <path
         sodipodi:type="star"
         style="fill:#d6d6d6;fill-opacity:1;stroke:none;stroke-width:0;stroke-linecap:square;stroke-linejoin:round;stroke-miterlimit:0;stroke-dasharray:none;stroke-opacity:1"
         id="path2"
         inkscape:flatsided="true"
         sodipodi:sides="7"
         sodipodi:cx="52.100086"
         sodipodi:cy="31.705463"
         sodipodi:r1="61.156223"
         sodipodi:r2="59.304585"
         sodipodi:arg1="0.3927173"
         sodipodi:arg2="0.84151625"
         inkscape:rounded="0.3"
         inkscape:randomized="0.132"
         transform="matrix(0.11274266,0.02912463,-0.02031282,0.07863181,38.713123,24.33549)"
         inkscape:transform-center-x="0.62025505"
         inkscape:transform-center-y="-0.11785397"
         d="M 109.59275,58.588087 C 101.59077,72.343034 91.078514,90.210306 75.157851,92.21715 59.237188,94.223995 32.389142,86.380664 18.548011,76.92713 4.7068795,67.473596 -5.2456653,43.45707 -4.6720959,27.319722 -4.0985265,11.182373 -8.0872427,-2.1874527 6.0546882,-11.422488 20.196619,-20.657524 42.37136,-21.381148 58.379676,-21.576045 74.387992,-21.770943 91.8045,-8.3701247 101.8352,3.6940461 111.8659,15.758217 117.59474,44.833139 109.59275,58.588087 Z" />
    </g>
    <g
       id="g4"
       transform="matrix(-0.22330889,0,0,0.27199557,52.782623,29.188742)"
       style="stroke-width:1.52534598;stroke-dasharray:none">
      <path
         sodipodi:type="star"
         style="fill:#b0b0b0;fill-opacity:1;stroke:#3e3e3e;stroke-width:6.19682612;stroke-linecap:square;stroke-linejoin:round;stroke-miterlimit:0;stroke-dasharray:none;stroke-opacity:1"
         id="path3"
         inkscape:flatsided="true"
         sodipodi:sides="7"
         sodipodi:cx="52.100086"
         sodipodi:cy="31.705463"
         sodipodi:r1="58.901752"
         sodipodi:r2="59.304585"
         sodipodi:arg1="0.27840578"
         sodipodi:arg2="0.72720473"
         inkscape:rounded="0.3"
         inkscape:randomized="0.132"
         d="M 107.67784,40.159373 C 105.92094,55.283247 85.940537,86.374083 71.806611,92.543386 57.672685,98.71269 30.351504,96.969357 18.144525,88.836391 5.9375463,80.703425 2.309252,63.235879 -0.88050352,48.260486 -4.0702591,33.285092 4.5634854,0.18958789 13.70089,-11.688584 c 9.137404,-11.878172 29.667826,-23.988062 44.284932,-21.661757 14.617106,2.326305 27.476841,18.228416 37.834608,28.9219505 10.35777,10.6935348 13.61431,29.4638895 11.85741,44.5877635 z"
         transform="matrix(0.24939694,0,0,0.24294445,28.827716,23.49098)"
         inkscape:transform-center-x="1.310614"
         inkscape:transform-center-y="0.55342648" />
      <path
         sodipodi:type="star"
         style="fill:#d6d6d6;fill-opacity:1;stroke:none;stroke-width:15.68545475;stroke-linecap:square;stroke-linejoin:round;stroke-miterlimit:0;stroke-dasharray:none;stroke-opacity:1"
         id="path4"
         inkscape:flatsided="true"
         sodipodi:sides="7"
         sodipodi:cx="52.100086"
         sodipodi:cy="31.705463"
         sodipodi:r1="74.127769"
         sodipodi:r2="59.304585"
         sodipodi:arg1="1.2618694"
         sodipodi:arg2="1.7106684"
         inkscape:rounded="0.3"
         inkscape:randomized="0.132"
         transform="matrix(0.11274266,0.02912463,-0.02031282,0.07863181,38.569813,22.05691)"
         inkscape:transform-center-x="0.62025505"
         inkscape:transform-center-y="-0.11785397"
         d="M 70.956777,99.437266 C 50.643142,102.02021 35.854537,99.902894 17.961234,92.342378 0.06793016,84.781862 -23.436652,52.829298 -24.516826,33.782666 -25.597,14.736035 -13.459957,-8.6829279 1.0003666,-20.740721 15.46069,-32.798513 34.849602,-51.636267 53.365579,-49.735496 c 18.515977,1.900771 58.209601,30.698422 66.579271,47.5579097 8.36968,16.8594873 -3.03681,51.9111993 -6.28731,69.7832313 -3.25051,17.872032 -22.387128,29.248675 -42.700763,31.831621 z" />
    </g>
    <g
       id="g6"
       transform="matrix(-0.27551353,0,0,0.31485879,64.644304,26.00901)"
       style="stroke-width:0.99908116;stroke-dasharray:none">
      <path
         sodipodi:type="star"
         style="fill:#b0b0b0;fill-opacity:1;stroke:#3e3e3e;stroke-width:5.18529961;stroke-linecap:square;stroke-linejoin:round;stroke-miterlimit:0;stroke-dasharray:none;stroke-opacity:1"
         id="path5"
         inkscape:flatsided="true"
         sodipodi:sides="7"
         sodipodi:cx="52.100086"
         sodipodi:cy="31.705463"
         sodipodi:r1="46.474771"
         sodipodi:r2="59.304585"
         sodipodi:arg1="0.47758195"
         sodipodi:arg2="0.9263809"
         inkscape:rounded="0.3"
         inkscape:randomized="0.132"
         d="M 93.28102,45.750423 C 85.763052,55.399685 77.576479,75.75403 64.72604,75.626765 51.8756,75.499499 30.262857,75.84491 21.831886,67.232561 13.400915,58.620213 4.7222039,47.417808 6.5075998,35.256789 8.2929957,23.09577 12.484757,6.9685502 20.448592,-1.7701892 28.412426,-10.508929 48.374065,-14.341323 59.629471,-11.174822 70.884878,-8.0083221 83.889705,4.5374574 88.109556,15.327032 92.329408,26.116608 100.79899,36.101161 93.28102,45.750423 Z"
         transform="matrix(0.24939694,0,0,0.24294445,28.827716,23.49098)"
         inkscape:transform-center-x="1.310614"
         inkscape:transform-center-y="0.55342648" />
      <path
         sodipodi:type="star"
         style="fill:#d6d6d6;fill-opacity:1;stroke:none;stroke-width:8.59918447;stroke-linecap:square;stroke-linejoin:round;stroke-miterlimit:0;stroke-dasharray:none;stroke-opacity:1"
         id="path6"
         inkscape:flatsided="true"
         sodipodi:sides="7"
         sodipodi:cx="52.100086"
         sodipodi:cy="31.705463"
         sodipodi:r1="61.635411"
         sodipodi:r2="59.304585"
         sodipodi:arg1="1.1660889"
         sodipodi:arg2="1.6148879"
         inkscape:rounded="0.3"
         inkscape:randomized="0.132"
         transform="matrix(0.11274266,0.02912463,-0.02031282,0.07863181,36.797566,25.451952)"
         inkscape:transform-center-x="0.62025505"
         inkscape:transform-center-y="-0.11785397"
         d="M 80.021953,83.147558 C 66.154943,89.620546 31.614472,89.382607 18.549533,78.692069 5.484595,68.001531 -7.8241454,59.138579 -8.0779033,42.947968 -8.3316612,26.757356 2.2036628,9.2586482 12.270667,-4.3718442 22.337672,-18.002337 41.319458,-34.507105 58.150296,-34.240904 c 16.830837,0.266201 37.939722,12.008479 48.167394,25.0851899 10.22767,13.0767105 19.31036,40.8043641 13.15753,56.2007821 -6.15283,15.396419 -25.586257,29.629501 -39.453267,36.10249 z" />
    </g>
    <g
       id="g8"
       transform="matrix(0.26645449,0,0,0.25935464,18.153546,31.466535)">
      <path
         sodipodi:type="star"
         style="fill:#b0b0b0;fill-opacity:1;stroke:#3e3e3e;stroke-width:5.80957951;stroke-linecap:square;stroke-linejoin:round;stroke-miterlimit:0;stroke-dasharray:none;stroke-opacity:1"
         id="path7"
         inkscape:flatsided="true"
         sodipodi:sides="7"
         sodipodi:cx="52.100086"
         sodipodi:cy="31.705463"
         sodipodi:r1="46.47477"
         sodipodi:r2="59.304585"
         sodipodi:arg1="0.47758195"
         sodipodi:arg2="0.9263809"
         inkscape:rounded="0.3"
         inkscape:randomized="0.132"
         d="M 93.28102,45.750423 C 85.763052,55.399685 77.576479,75.75403 64.72604,75.626765 51.8756,75.499499 30.262857,75.84491 21.831886,67.232561 13.400915,58.620213 4.7222039,47.417808 6.5075998,35.256789 8.2929957,23.09577 12.484757,6.9685502 20.448592,-1.7701892 28.412426,-10.508929 48.374065,-14.341323 59.629471,-11.174822 70.884878,-8.0083221 83.889705,4.5374574 88.109556,15.327032 92.329408,26.116608 100.79899,36.101161 93.28102,45.750423 Z"
         transform="matrix(0.24939694,0,0,0.24294445,28.827716,23.49098)"
         inkscape:transform-center-x="1.310614"
         inkscape:transform-center-y="0.55342648" />
      <path
         sodipodi:type="star"
         style="fill:#d6d6d6;fill-opacity:1;stroke:none;stroke-width:0;stroke-linecap:square;stroke-linejoin:round;stroke-miterlimit:0;stroke-dasharray:none;stroke-opacity:1"
         id="path8"
         inkscape:flatsided="true"
         sodipodi:sides="7"
         sodipodi:cx="52.100086"
         sodipodi:cy="31.705463"
         sodipodi:r1="61.63541"
         sodipodi:r2="59.304585"
         sodipodi:arg1="1.1660889"
         sodipodi:arg2="1.6148879"
         inkscape:rounded="0.3"
         inkscape:randomized="0.132"
         transform="matrix(0.11274266,0.02912463,-0.02031282,0.07863181,35.064744,24.688984)"
         inkscape:transform-center-x="0.62025505"
         inkscape:transform-center-y="-0.11785397"
         d="M 80.021953,83.147558 C 66.154943,89.620546 31.614472,89.382607 18.549533,78.692069 5.484595,68.001531 -7.8241454,59.138579 -8.0779033,42.947968 -8.3316612,26.757356 2.2036628,9.2586482 12.270667,-4.3718442 22.337672,-18.002337 41.319458,-34.507105 58.150296,-34.240904 c 16.830837,0.266201 37.939722,12.008479 48.167394,25.0851899 10.22767,13.0767105 19.31036,40.8043641 13.15753,56.2007821 -6.15283,15.396419 -25.586257,29.629501 -39.453267,36.10249 z" />
    </g>
    <g
       id="g10"
       transform="matrix(0,-0.22330889,-0.27199557,0,43.261156,42.302085)">
      <path
         sodipodi:type="star"
         style="fill:#b0b0b0;fill-opacity:1;stroke:#3e3e3e;stroke-width:6.19682612;stroke-linecap:square;stroke-linejoin:round;stroke-miterlimit:0;stroke-dasharray:none;stroke-opacity:1"
         id="path9"
         inkscape:flatsided="true"
         sodipodi:sides="7"
         sodipodi:cx="52.100086"
         sodipodi:cy="31.705463"
         sodipodi:r1="58.901752"
         sodipodi:r2="59.304585"
         sodipodi:arg1="0.27840578"
         sodipodi:arg2="0.72720473"
         inkscape:rounded="0.3"
         inkscape:randomized="0.132"
         d="M 107.67784,40.159373 C 105.92094,55.283247 85.940537,86.374083 71.806611,92.543386 57.672685,98.71269 30.351504,96.969357 18.144525,88.836391 5.9375463,80.703425 2.309252,63.235879 -0.88050352,48.260486 -4.0702591,33.285092 4.5634854,0.18958789 13.70089,-11.688584 c 9.137404,-11.878172 29.667826,-23.988062 44.284932,-21.661757 14.617106,2.326305 27.476841,18.228416 37.834608,28.9219505 10.35777,10.6935348 13.61431,29.4638895 11.85741,44.5877635 z"
         transform="matrix(0.24939694,0,0,0.24294445,28.827716,23.49098)"
         inkscape:transform-center-x="1.310614"
         inkscape:transform-center-y="0.55342648" />
      <path
         sodipodi:type="star"
         style="fill:#d6d6d6;fill-opacity:1;stroke:none;stroke-width:0;stroke-linecap:square;stroke-linejoin:round;stroke-miterlimit:0;stroke-dasharray:none;stroke-opacity:1"
         id="path10"
         inkscape:flatsided="true"
         sodipodi:sides="7"
         sodipodi:cx="52.100086"
         sodipodi:cy="31.705463"
         sodipodi:r1="74.127769"
         sodipodi:r2="59.304585"
         sodipodi:arg1="1.2618694"
         sodipodi:arg2="1.7106684"
         inkscape:rounded="0.3"
         inkscape:randomized="0.132"
         transform="matrix(0.11274266,0.02912463,-0.02031282,0.07863181,38.865187,30.059509)"
         inkscape:transform-center-x="0.62025505"
         inkscape:transform-center-y="-0.11785397"
         d="M 70.956777,99.437266 C 50.643142,102.02021 35.854537,99.902894 17.961234,92.342378 0.06793016,84.781862 -23.436652,52.829298 -24.516826,33.782666 -25.597,14.736035 -13.459957,-8.6829279 1.0003666,-20.740721 15.46069,-32.798513 34.849602,-51.636267 53.365579,-49.735496 c 18.515977,1.900771 58.209601,30.698422 66.579271,47.5579097 8.36968,16.8594873 -3.03681,51.9111993 -6.28731,69.7832313 -3.25051,17.872032 -22.387128,29.248675 -42.700763,31.831621 z" />
    </g>
    <g
       id="g12"
       transform="matrix(0,-0.22754821,-0.15497986,0,39.490559,53.891657)">
      <path
         sodipodi:type="star"
         style="fill:#b0b0b0;fill-opacity:1;stroke:#3e3e3e;stroke-width:7.93549;stroke-linecap:square;stroke-linejoin:round;stroke-miterlimit:0;stroke-dasharray:none;stroke-opacity:1"
         id="path11"
         inkscape:flatsided="true"
         sodipodi:sides="7"
         sodipodi:cx="52.100086"
         sodipodi:cy="31.705463"
         sodipodi:r1="58.901752"
         sodipodi:r2="59.304585"
         sodipodi:arg1="0.27840578"
         sodipodi:arg2="0.72720473"
         inkscape:rounded="0.3"
         inkscape:randomized="0.132"
         d="M 107.67784,40.159373 C 105.92094,55.283247 85.940537,86.374083 71.806611,92.543386 57.672685,98.71269 30.351504,96.969357 18.144525,88.836391 5.9375463,80.703425 2.309252,63.235879 -0.88050352,48.260486 -4.0702591,33.285092 4.5634854,0.18958789 13.70089,-11.688584 c 9.137404,-11.878172 29.667826,-23.988062 44.284932,-21.661757 14.617106,2.326305 27.476841,18.228416 37.834608,28.9219505 10.35777,10.6935348 13.61431,29.4638895 11.85741,44.5877635 z"
         transform="matrix(0.24939694,0,0,0.24294445,28.827716,23.49098)"
         inkscape:transform-center-x="1.310614"
         inkscape:transform-center-y="0.55342648" />
      <path
         sodipodi:type="star"
         style="fill:#d6d6d6;fill-opacity:1;stroke:none;stroke-width:0;stroke-linecap:square;stroke-linejoin:round;stroke-miterlimit:0;stroke-dasharray:none;stroke-opacity:1"
         id="path12"
         inkscape:flatsided="true"
         sodipodi:sides="7"
         sodipodi:cx="52.100086"
         sodipodi:cy="31.705463"
         sodipodi:r1="74.127769"
         sodipodi:r2="59.304585"
         sodipodi:arg1="1.2618694"
         sodipodi:arg2="1.7106684"
         inkscape:rounded="0.3"
         inkscape:randomized="0.132"
         transform="matrix(0.11274266,0.02912463,-0.02031282,0.07863181,38.865187,30.059509)"
         inkscape:transform-center-x="0.62025505"
         inkscape:transform-center-y="-0.11785397"
         d="M 70.956777,99.437266 C 50.643142,102.02021 35.854537,99.902894 17.961234,92.342378 0.06793016,84.781862 -23.436652,52.829298 -24.516826,33.782666 -25.597,14.736035 -13.459957,-8.6829279 1.0003666,-20.740721 15.46069,-32.798513 34.849602,-51.636267 53.365579,-49.735496 c 18.515977,1.900771 58.209601,30.698422 66.579271,47.5579097 8.36968,16.8594873 -3.03681,51.9111993 -6.28731,69.7832313 -3.25051,17.872032 -22.387128,29.248675 -42.700763,31.831621 z" />
    </g>
    <g
       id="g14"
       transform="matrix(0,-0.10985918,-0.09671963,0,45.39621,32.709129)">
      <path
         sodipodi:type="star"
         style="fill:#b0b0b0;fill-opacity:1;stroke:#3e3e3e;stroke-width:7.93549;stroke-linecap:square;stroke-linejoin:round;stroke-miterlimit:0;stroke-dasharray:none;stroke-opacity:1"
         id="path13"
         inkscape:flatsided="true"
         sodipodi:sides="7"
         sodipodi:cx="52.100086"
         sodipodi:cy="31.705463"
         sodipodi:r1="58.901752"
         sodipodi:r2="59.304585"
         sodipodi:arg1="0.27840578"
         sodipodi:arg2="0.72720473"
         inkscape:rounded="0.3"
         inkscape:randomized="0.132"
         d="M 107.67784,40.159373 C 105.92094,55.283247 85.940537,86.374083 71.806611,92.543386 57.672685,98.71269 30.351504,96.969357 18.144525,88.836391 5.9375463,80.703425 2.309252,63.235879 -0.88050352,48.260486 -4.0702591,33.285092 4.5634854,0.18958789 13.70089,-11.688584 c 9.137404,-11.878172 29.667826,-23.988062 44.284932,-21.661757 14.617106,2.326305 27.476841,18.228416 37.834608,28.9219505 10.35777,10.6935348 13.61431,29.4638895 11.85741,44.5877635 z"
         transform="matrix(0.24939694,0,0,0.24294445,28.827716,23.49098)"
         inkscape:transform-center-x="1.310614"
         inkscape:transform-center-y="0.55342648" />
      <path
         sodipodi:type="star"
         style="fill:#d6d6d6;fill-opacity:1;stroke:none;stroke-width:0;stroke-linecap:square;stroke-linejoin:round;stroke-miterlimit:0;stroke-dasharray:none;stroke-opacity:1"
         id="path14"
         inkscape:flatsided="true"
         sodipodi:sides="7"
         sodipodi:cx="52.100086"
         sodipodi:cy="31.705463"
         sodipodi:r1="74.127769"
         sodipodi:r2="59.304585"
         sodipodi:arg1="1.2618694"
         sodipodi:arg2="1.7106684"
         inkscape:rounded="0.3"
         inkscape:randomized="0.132"
         transform="matrix(0.11274266,0.02912463,-0.02031282,0.07863181,38.865187,30.059509)"
         inkscape:transform-center-x="0.62025505"
         inkscape:transform-center-y="-0.11785397"
         d="M 70.956777,99.437266 C 50.643142,102.02021 35.854537,99.902894 17.961234,92.342378 0.06793016,84.781862 -23.436652,52.829298 -24.516826,33.782666 -25.597,14.736035 -13.459957,-8.6829279 1.0003666,-20.740721 15.46069,-32.798513 34.849602,-51.636267 53.365579,-49.735496 c 18.515977,1.900771 58.209601,30.698422 66.579271,47.5579097 8.36968,16.8594873 -3.03681,51.9111993 -6.28731,69.7832313 -3.25051,17.872032 -22.387128,29.248675 -42.700763,31.831621 z" />
    </g>
    <g
       id="g16"
       transform="matrix(0,0.10985918,-0.09671963,0,30.357388,27.545275)">
      <path
         sodipodi:type="star"
         style="fill:#b0b0b0;fill-opacity:1;stroke:#3e3e3e;stroke-width:7.93549;stroke-linecap:square;stroke-linejoin:round;stroke-miterlimit:0;stroke-dasharray:none;stroke-opacity:1"
         id="path15"
         inkscape:flatsided="true"
         sodipodi:sides="7"
         sodipodi:cx="52.100086"
         sodipodi:cy="31.705463"
         sodipodi:r1="58.901752"
         sodipodi:r2="59.304585"
         sodipodi:arg1="0.27840578"
         sodipodi:arg2="0.72720473"
         inkscape:rounded="0.3"
         inkscape:randomized="0.132"
         d="M 107.67784,40.159373 C 105.92094,55.283247 85.940537,86.374083 71.806611,92.543386 57.672685,98.71269 30.351504,96.969357 18.144525,88.836391 5.9375463,80.703425 2.309252,63.235879 -0.88050352,48.260486 -4.0702591,33.285092 4.5634854,0.18958789 13.70089,-11.688584 c 9.137404,-11.878172 29.667826,-23.988062 44.284932,-21.661757 14.617106,2.326305 27.476841,18.228416 37.834608,28.9219505 10.35777,10.6935348 13.61431,29.4638895 11.85741,44.5877635 z"
         transform="matrix(0.24939694,0,0,0.24294445,28.827716,23.49098)"
         inkscape:transform-center-x="1.310614"
         inkscape:transform-center-y="0.55342648" />
      <path
         sodipodi:type="star"
         style="fill:#d6d6d6;fill-opacity:1;stroke:none;stroke-width:0;stroke-linecap:square;stroke-linejoin:round;stroke-miterlimit:0;stroke-dasharray:none;stroke-opacity:1"
         id="path16"
         inkscape:flatsided="true"
         sodipodi:sides="7"
         sodipodi:cx="52.100086"
         sodipodi:cy="31.705463"
         sodipodi:r1="50.828991"
         sodipodi:r2="59.304585"
         sodipodi:arg1="-1.5205927"
         sodipodi:arg2="-1.0717937"
         inkscape:rounded="0.3"
         inkscape:randomized="0.132"
         transform="matrix(0.02564122,-0.12805897,0.06922716,0.02307236,34.146988,39.244195)"
         inkscape:transform-center-x="0.11785397"
         inkscape:transform-center-y="0.62025507"
         d="m 51.659848,-15.791977 c 13.357589,-0.587051 31.55792,4.329697 40.448981,15.27762637 C 100.99989,10.433579 104.88666,24.148121 103.64449,37.880415 102.40233,51.612709 88.760538,72.142008 76.197473,77.560142 63.634409,82.978276 31.100436,84.699566 20.079499,77.541218 9.058562,70.38287 -2.065177,58.726703 -2.226354,45.563835 -2.3875309,32.400967 4.3419784,7.5706342 10.880104,-3.6970655 17.41823,-14.964765 38.302258,-15.204926 51.659848,-15.791977 Z" />
    </g>
    <g
       id="g18"
       transform="matrix(0,0.10985918,-0.09671963,0,52.91562,38.890351)">
      <path
         sodipodi:type="star"
         style="fill:#b0b0b0;fill-opacity:1;stroke:#3e3e3e;stroke-width:7.93549;stroke-linecap:square;stroke-linejoin:round;stroke-miterlimit:0;stroke-dasharray:none;stroke-opacity:1"
         id="path17"
         inkscape:flatsided="true"
         sodipodi:sides="7"
         sodipodi:cx="52.100086"
         sodipodi:cy="31.705463"
         sodipodi:r1="65.524019"
         sodipodi:r2="59.304585"
         sodipodi:arg1="-0.22612224"
         sodipodi:arg2="0.22267671"
         inkscape:rounded="0.3"
         inkscape:randomized="0.132"
         d="m 118.80338,13.424568 c 2.29153,16.732427 3.22,42.172028 -10.17694,53.413384 C 95.229513,78.079307 76.115503,97.142338 59.221803,96.3318 42.328103,95.521263 12.025328,78.697665 0.24021939,67.575765 -11.544889,56.453866 -19.63367,30.910259 -18.381737,14.635061 c 1.251933,-16.2751989 25.1415706,-31.151215 40.279899,-38.811814 15.138328,-7.660599 41.287191,-17.82964 56.019403,-7.952976 14.732212,9.876663 38.594285,28.821871 40.885815,45.554297 z"
         transform="matrix(0.24939694,0,0,0.24294445,28.827716,23.49098)"
         inkscape:transform-center-x="1.310614"
         inkscape:transform-center-y="0.55342648" />
      <path
         sodipodi:type="star"
         style="fill:#d6d6d6;fill-opacity:1;stroke:none;stroke-width:0;stroke-linecap:square;stroke-linejoin:round;stroke-miterlimit:0;stroke-dasharray:none;stroke-opacity:1"
         id="path18"
         inkscape:flatsided="true"
         sodipodi:sides="7"
         sodipodi:cx="52.100086"
         sodipodi:cy="31.705463"
         sodipodi:r1="50.828991"
         sodipodi:r2="59.304585"
         sodipodi:arg1="-1.5205927"
         sodipodi:arg2="-1.0717937"
         inkscape:rounded="0.3"
         inkscape:randomized="0.132"
         transform="matrix(0.02564122,-0.12805897,0.06922716,0.02307236,34.146988,39.244195)"
         inkscape:transform-center-x="0.11785397"
         inkscape:transform-center-y="0.62025507"
         d="m 51.659848,-15.791977 c 13.357589,-0.587051 31.55792,4.329697 40.448981,15.27762637 C 100.99989,10.433579 104.88666,24.148121 103.64449,37.880415 102.40233,51.612709 88.760538,72.142008 76.197473,77.560142 63.634409,82.978276 31.100436,84.699566 20.079499,77.541218 9.058562,70.38287 -2.065177,58.726703 -2.226354,45.563835 -2.3875309,32.400967 4.3419784,7.5706342 10.880104,-3.6970655 17.41823,-14.964765 38.302258,-15.204926 51.659848,-15.791977 Z" />
    </g>
  </g>
</svg>
