<?xml version="1.0" encoding="UTF-8" standalone="no"?>
<!-- Created with Inkscape (http://www.inkscape.org/) -->

<svg
   width="27mm"
   height="24.585648mm"
   viewBox="0 0 27 24.585649"
   version="1.1"
   id="svg5"
   inkscape:version="1.4 (86a8ad7, 2024-10-11)"
   sodipodi:docname="stone.svg"
   xmlns:inkscape="http://www.inkscape.org/namespaces/inkscape"
   xmlns:sodipodi="http://sodipodi.sourceforge.net/DTD/sodipodi-0.dtd"
   xmlns="http://www.w3.org/2000/svg"
   xmlns:svg="http://www.w3.org/2000/svg">
  <sodipodi:namedview
     id="namedview7"
     pagecolor="#ffffff"
     bordercolor="#666666"
     borderopacity="1.0"
     inkscape:pageshadow="2"
     inkscape:pageopacity="0.0"
     inkscape:pagecheckerboard="0"
     inkscape:document-units="mm"
     showgrid="false"
     inkscape:zoom="2.599907"
     inkscape:cx="80.579805"
     inkscape:cy="65.19464"
     inkscape:window-width="1920"
     inkscape:window-height="1009"
     inkscape:window-x="-8"
     inkscape:window-y="-8"
     inkscape:window-maximized="1"
     inkscape:current-layer="layer1"
     fit-margin-top="0"
     fit-margin-left="0"
     fit-margin-right="0"
     fit-margin-bottom="0"
     inkscape:showpageshadow="2"
     inkscape:deskcolor="#d1d1d1" />
  <defs
     id="defs2" />
  <g
     inkscape:label="Layer 1"
     inkscape:groupmode="layer"
     id="layer1"
     transform="matrix(0.77142856,0,0,0.77142856,-17.873489,-12.277359)">
    <path
       sodipodi:type="star"
       style="fill:#b0b0b0;fill-opacity:1;stroke:#3e3e3e;stroke-width:7.93549;stroke-linecap:square;stroke-linejoin:round;stroke-miterlimit:0;stroke-dasharray:none;stroke-opacity:1"
       id="path1177"
       inkscape:flatsided="true"
       sodipodi:sides="7"
       sodipodi:cx="52.100086"
       sodipodi:cy="31.705463"
       sodipodi:r1="65.823128"
       sodipodi:r2="59.304585"
       sodipodi:arg1="0.32885061"
       sodipodi:arg2="0.77764956"
       inkscape:rounded="0.3"
       inkscape:randomized="0.132"
       d="m 112.4104,49.324754 c -2.86528,17.762093 -30.502849,39.844295 -46.324452,44.802952 -15.821603,4.958658 -28.542143,0.0035 -41.893206,-9.308798 -13.351063,-9.312304 -42.92725,-27.978636 -42.913234,-45.642232 0.01402,-17.663597 8.705813,-46.8913569 21.6152238,-56.743888 12.9094112,-9.85253 33.7862922,-10.847319 50.6826612,-8.593574 16.896369,2.253746 36.750303,9.609586 48.362597,22.3219836 11.6123,12.7123978 13.33569,35.4014634 10.47041,53.1635564 z"
       transform="matrix(0.24939694,0,0,0.24294445,28.827716,23.49098)"
       inkscape:transform-center-x="1.310614"
       inkscape:transform-center-y="0.55342648" />
    <path
       sodipodi:type="star"
       style="fill:#d6d6d6;fill-opacity:1;stroke:#292929;stroke-width:0;stroke-linecap:square;stroke-linejoin:round;stroke-miterlimit:0;stroke-dasharray:none;stroke-opacity:1"
       id="path1177-3"
       inkscape:flatsided="true"
       sodipodi:sides="7"
       sodipodi:cx="52.100086"
       sodipodi:cy="31.705463"
       sodipodi:r1="65.823128"
       sodipodi:r2="59.304585"
       sodipodi:arg1="0.32885061"
       sodipodi:arg2="0.77764956"
       inkscape:rounded="0.3"
       inkscape:randomized="0.132"
       transform="matrix(0.11274266,0.02912463,-0.02031282,0.07863181,41.068382,22.687568)"
       inkscape:transform-center-x="0.62025505"
       inkscape:transform-center-y="-0.11785397"
       d="m 112.4104,49.324754 c -2.86528,17.762093 -30.502849,39.844295 -46.324452,44.802952 -15.821603,4.958658 -28.542143,0.0035 -41.893206,-9.308798 -13.351063,-9.312304 -42.92725,-27.978636 -42.913234,-45.642232 0.01402,-17.663597 8.705813,-46.8913569 21.6152238,-56.743888 12.9094112,-9.85253 33.7862922,-10.847319 50.6826612,-8.593574 16.896369,2.253746 36.750303,9.609586 48.362597,22.3219836 11.6123,12.7123978 13.33569,35.4014634 10.47041,53.1635564 z" />
  </g>
</svg>
