<?xml version="1.0" encoding="UTF-8" standalone="no"?>
<svg
   version="1.1"
   width="58"
   height="58"
   viewBox="0,0,58,58"
   id="svg5"
   sodipodi:docname="neutral.svg"
   inkscape:version="1.4 (86a8ad7, 2024-10-11)"
   inkscape:export-filename="neutral.png"
   inkscape:export-xdpi="423.72415"
   inkscape:export-ydpi="423.72415"
   xmlns:inkscape="http://www.inkscape.org/namespaces/inkscape"
   xmlns:sodipodi="http://sodipodi.sourceforge.net/DTD/sodipodi-0.dtd"
   xmlns="http://www.w3.org/2000/svg"
   xmlns:svg="http://www.w3.org/2000/svg">
  <defs
     id="defs5" />
  <sodipodi:namedview
     id="namedview5"
     pagecolor="#ffffff"
     bordercolor="#000000"
     borderopacity="0.25"
     inkscape:showpageshadow="2"
     inkscape:pageopacity="0.0"
     inkscape:pagecheckerboard="0"
     inkscape:deskcolor="#d1d1d1"
     inkscape:zoom="9.8385374"
     inkscape:cx="23.275817"
     inkscape:cy="35.625214"
     inkscape:window-width="1920"
     inkscape:window-height="1009"
     inkscape:window-x="-8"
     inkscape:window-y="-8"
     inkscape:window-maximized="1"
     inkscape:current-layer="g4" />
  <g
     transform="translate(-213.9774,-147.29997)"
     id="g5">
    <g
       data-paper-data="{&quot;isPaintingLayer&quot;:true}"
       fill-rule="nonzero"
       stroke="#777777"
       stroke-width="1.5"
       stroke-linejoin="miter"
       stroke-miterlimit="10"
       stroke-dasharray=""
       stroke-dashoffset="0"
       style="mix-blend-mode: normal"
       id="g4">
      <path
         d="m 214.7274,176.29998 c 0,-15.60205 12.64795,-28.25 28.25,-28.25 15.60205,0 28.25,12.64795 28.25,28.25 0,15.60205 -12.64795,28.25 -28.25,28.25 -15.60205,0 -28.25,-12.64795 -28.25,-28.25 z"
         fill="#ffffff"
         stroke-linecap="butt"
         id="path1"
         sodipodi:nodetypes="sssss"
         style="fill:#ffffff;fill-opacity:1" />
      <path
         d="m 229.8944,174.74997 c 0,-1.72589 0.89543,-3.125 2,-3.125 1.10457,0 2,1.39911 2,3.125 0,1.72589 -0.89543,3.125 -2,3.125 -1.10457,0 -2,-1.39911 -2,-3.125 z"
         fill="#777777"
         stroke-linecap="butt"
         id="path3" />
      <path
         d="m 252.3944,174.74997 c 0,-1.72589 0.89543,-3.125 2,-3.125 1.10457,0 2,1.39911 2,3.125 0,1.72589 -0.89543,3.125 -2,3.125 -1.10457,0 -2,-1.39911 -2,-3.125 z"
         fill="#777777"
         stroke-linecap="butt"
         id="path5"
         sodipodi:nodetypes="sssss" />
      <path
         style="fill:none;fill-opacity:1"
         d="m 231.0914,188.54497 h 23.816"
         id="path2"
         sodipodi:nodetypes="cc" />
    </g>
  </g>
</svg>
