<?xml version="1.0" encoding="UTF-8" standalone="no"?>
<!-- Created with Inkscape (http://www.inkscape.org/) -->

<svg
   width="19.079458mm"
   height="14.431048mm"
   viewBox="0 0 19.079458 14.431048"
   version="1.1"
   id="svg1"
   inkscape:version="1.4.2 (f4327f4, 2025-05-13)"
   sodipodi:docname="chicken_1.svg"
   xml:space="preserve"
   xmlns:inkscape="http://www.inkscape.org/namespaces/inkscape"
   xmlns:sodipodi="http://sodipodi.sourceforge.net/DTD/sodipodi-0.dtd"
   xmlns="http://www.w3.org/2000/svg"
   xmlns:svg="http://www.w3.org/2000/svg"><sodipodi:namedview
     id="namedview1"
     pagecolor="#000000"
     bordercolor="#000000"
     borderopacity="0.25"
     inkscape:showpageshadow="2"
     inkscape:pageopacity="0.0"
     inkscape:pagecheckerboard="true"
     inkscape:deskcolor="#000000"
     inkscape:document-units="mm"
     inkscape:zoom="1.0167041"
     inkscape:cx="35.900318"
     inkscape:cy="-14.26177"
     inkscape:window-width="1920"
     inkscape:window-height="1009"
     inkscape:window-x="-8"
     inkscape:window-y="-8"
     inkscape:window-maximized="1"
     inkscape:current-layer="svg1"
     showguides="false" /><defs
     id="defs1" /><g
     inkscape:label="Camada 1"
     inkscape:groupmode="layer"
     id="layer1"
     transform="matrix(0.04565024,0,0,0.04565024,6.0517105,3.1495589)"><path
       style="baseline-shift:baseline;display:inline;overflow:visible;opacity:1;vector-effect:none;fill:#ffffff;enable-background:accumulate;stop-color:#000000;stop-opacity:1"
       d="M 100.72566,-45.051902 C -26.593671,-88.717635 -22.096771,-42.183254 -73.103492,-5.7564792 -88.777475,5.4371957 -103.60112,19.483594 -117.39433,36.981809 c -15.96468,21.114079 -6.75163,102.763431 -0.40318,102.907211 18.029484,27.03154 35.980261,44.98482 53.957077,56.85603 53.692764,35.45666 66.4935073,65.84404 164.566093,23.43088 132.39202,-16.77651 148.87609,-238.134469 0,-265.227832 z"
       id="path14" /><g
       id="g13"><path
         style="fill:none;fill-opacity:1;stroke:#000000;stroke-width:16.3139;stroke-linecap:round;stroke-linejoin:round;stroke-dasharray:none;stroke-opacity:0.237023"
         d="m 127.00144,138.76353 c -80.721254,4.74216 -147.304106,20.5947 -170.948124,58.05786"
         id="path13"
         sodipodi:nodetypes="cc" /><path
         style="fill:none;fill-opacity:1;stroke:#000000;stroke-width:16.3139;stroke-linecap:round;stroke-linejoin:round;stroke-dasharray:none;stroke-opacity:0.237023"
         d="M 128.1418,37.788167 C 47.42055,33.046005 -19.162302,17.19348 -42.80632,-20.269683"
         id="path12"
         sodipodi:nodetypes="cc" /></g><path
       style="baseline-shift:baseline;display:inline;overflow:visible;opacity:1;vector-effect:none;fill:#9a9a9a;enable-background:accumulate;stop-color:#000000;stop-opacity:1"
       d="m 13.71875,-68.871094 c -12.576251,0.601503 -22.651897,3.393945 -31.373047,7.814453 -23.256399,11.788022 -34.709399,32.750383 -59.109375,50.175782 -16.173469,11.55038598 -31.439288,26.030636 -45.576168,43.964843 l -0.0391,0.04883 -0.0391,0.05078 c -5.34463,7.068543 -7.57603,16.871742 -8.91992,28.009765 -1.34389,11.138024 -1.47925,23.607177 -0.91602,35.40625 0.56324,11.799071 1.82422,22.880031 3.40625,31.283201 0.79102,4.20159 1.63489,7.69959 2.66797,10.55274 0.51654,1.42657 1.03897,2.68603 1.94531,4.02929 0.48409,0.71745 1.20753,1.68477 2.31836,2.46289 18.01907,26.65304 36.182289,44.9063 54.605473,57.07227 26.348059,17.39926 43.215893,34.38537 67.28125012,41.6875 C 23.916534,250.95336 53.335163,247.42456 102.52148,226.24414 171.46948,216.94035 210.364,154.58086 212.49609,91.644531 214.63296,28.56723 179.47537,-36.772498 102.46289,-51.107422 62.457919,-64.803426 34.622505,-69.870889 13.71875,-68.871094 Z m 1.09375,12.494141 c 18.556545,-0.818534 44.474269,3.772246 83.869141,17.283203 l 0.449218,0.152344 0.466797,0.08594 C 171.02296,-25.857064 201.88458,32.819369 199.90625,91.216797 197.92792,149.61422 162.73484,205.96966 99.933594,213.92773 l -0.886719,0.11329 -0.820313,0.35351 C 49.784847,235.34398 23.905258,237.7872 3.6289063,231.63477 -16.647446,225.48233 -33.024435,209.54764 -60.369141,191.49023 -77.518208,180.16564 -94.885591,162.8916 -112.55859,136.39453 l -1.81836,-2.72656 -0.0781,-0.002 c -0.60577,-1.76633 -1.33784,-4.52351 -2.01367,-8.11329 -1.43202,-7.60633 -2.66512,-18.28419 -3.20313,-29.554683 -0.538,-11.270497 -0.38049,-23.180865 0.83985,-33.294922 1.21793,-10.094084 3.81295,-18.395844 6.44531,-21.896484 13.431864,-17.025708 27.792,-30.617059 42.943361,-41.43750037 26.606745,-19.00137663 38.407711,-39.52197663 57.484375,-49.19140663 7.1537484,-3.626036 15.6375572,-6.063567 26.771484,-6.554687 z"
       id="path15"
       sodipodi:nodetypes="ssscccssssscsscscsccccscccsscccssscsscc" /><path
       style="fill:#e8f2f3;fill-opacity:1;stroke:#919191;stroke-width:15.0745;stroke-dasharray:none;stroke-opacity:1"
       d="M 219.59606,44.083907 C 191.29663,-37.123153 72.813498,-9.2538205 73.629479,80.957424 74.894814,160.23854 181.07162,195.98363 220.73642,126.19011 Z"
       id="path6"
       sodipodi:nodetypes="cccc" /><path
       style="fill:#f7bb10;fill-opacity:1;stroke-width:0.819829"
       d="M 285.38181,80.957424 217.64689,40.818618 c -0.0516,14.873911 -5.62623,22.997475 -19.35053,21.160321 -15.2713,11.242043 -16.93521,25.505044 0,42.304481 13.25449,-3.79978 18.22149,7.10652 19.35053,23.0106 z"
       id="path5"
       sodipodi:nodetypes="cccccc" /><g
       id="g10"><circle
         style="fill:#060b0b;fill-opacity:1;stroke-width:0.795354"
         id="path9"
         cx="186.52559"
         cy="38.38216"
         r="18.245897" /><circle
         style="fill:#ffffff;fill-opacity:1;stroke-width:0.29826"
         id="circle9"
         cx="192.79758"
         cy="37.811977"
         r="6.8422585" /></g><g
       id="g11"
       transform="translate(8.6974126e-4,87.660927)"><circle
         style="fill:#060b0b;fill-opacity:1;stroke-width:0.795354"
         id="circle10"
         cx="186.52559"
         cy="38.38216"
         r="18.245897" /><circle
         style="fill:#ffffff;fill-opacity:1;stroke-width:0.29826"
         id="circle11"
         cx="192.2274"
         cy="37.811977"
         r="6.8422585" /></g></g></svg>
