<?xml version="1.0" encoding="UTF-8" standalone="no"?>
<!-- Created with Inkscape (http://www.inkscape.org/) -->

<svg
   width="141.09895"
   height="140.76784"
   viewBox="0 0 37.332431 37.244825"
   version="1.1"
   id="svg5"
   sodipodi:docname="stone.svg"
   inkscape:version="1.4 (86a8ad7, 2024-10-11)"
   xml:space="preserve"
   xmlns:inkscape="http://www.inkscape.org/namespaces/inkscape"
   xmlns:sodipodi="http://sodipodi.sourceforge.net/DTD/sodipodi-0.dtd"
   xmlns="http://www.w3.org/2000/svg"
   xmlns:svg="http://www.w3.org/2000/svg"><sodipodi:namedview
     id="namedview12"
     pagecolor="#505050"
     bordercolor="#ffffff"
     borderopacity="1"
     inkscape:pageshadow="0"
     inkscape:pageopacity="0"
     inkscape:pagecheckerboard="1"
     inkscape:document-units="px"
     showgrid="false"
     units="px"
     inkscape:zoom="2.1775"
     inkscape:cx="22.27325"
     inkscape:cy="40.183698"
     inkscape:window-width="1920"
     inkscape:window-height="1009"
     inkscape:window-x="-8"
     inkscape:window-y="-8"
     inkscape:window-maximized="1"
     inkscape:current-layer="svg5"
     inkscape:showpageshadow="2"
     inkscape:deskcolor="#d1d1d1" /><defs
     id="defs2" /><g
     id="layer1"
     transform="matrix(1.75,0,0,1.75,-145.52217,-308.79082)"><path
       d="m 22.073,1.886 c 3.01,0.507 6.601,1.854 9.395,4.805 2.794,2.95 4.79,7.505 5.014,12.22 0.225,4.714 -1.322,9.587 -4.337,12.732 -3.014,3.145 -7.495,4.56 -11.76,4.785 C 16.119,36.652 12.071,35.686 9.148,34.08 6.225,32.474 4.43,30.23 3.288,27.856 2.146,25.483 1.658,22.981 1.601,20.23 1.545,17.479 1.918,14.478 3.111,11.824 4.304,9.171 6.311,6.868 8.298,5.296 10.284,3.724 12.247,2.883 14.442,2.297 16.636,1.711 19.064,1.379 22.073,1.887 Z"
       fill="#b3b3b3"
       stroke="#2d2d2d"
       stroke-width="2.424"
       id="path1-9"
       transform="matrix(0.57142858,0,0,0.57142858,82.93637,176.20747)" /><path
       d="m 29.104,14.288 c 0.048,3.128 -1.928,5.445 -5.379,5.445 -3.45,0 -6.877,-2.505 -6.247,-5.445 0.601,-2.808 2.92,-5.48 5.379,-5.446 4.094,0.055 6.206,2.753 6.247,5.446 z"
       fill="#cacaca"
       id="path2"
       transform="matrix(0.57142858,0,0,0.57142858,82.93637,176.20747)" /></g></svg>
