<?xml version="1.0" encoding="UTF-8" standalone="no"?>
<!-- Created with Inkscape (http://www.inkscape.org/) -->

<svg
   width="36.963272mm"
   height="36.96328mm"
   viewBox="0 0 36.963273 36.963281"
   version="1.1"
   id="svg1"
   inkscape:version="1.4.2 (f4327f4, 2025-05-13)"
   sodipodi:docname="22lr.svg"
   inkscape:export-filename="762mm.png"
   inkscape:export-xdpi="216.74667"
   inkscape:export-ydpi="216.74667"
   xml:space="preserve"
   xmlns:inkscape="http://www.inkscape.org/namespaces/inkscape"
   xmlns:sodipodi="http://sodipodi.sourceforge.net/DTD/sodipodi-0.dtd"
   xmlns="http://www.w3.org/2000/svg"
   xmlns:svg="http://www.w3.org/2000/svg"><sodipodi:namedview
     id="namedview1"
     pagecolor="#ffffff"
     bordercolor="#000000"
     borderopacity="0.25"
     inkscape:showpageshadow="2"
     inkscape:pageopacity="0.0"
     inkscape:pagecheckerboard="0"
     inkscape:deskcolor="#d1d1d1"
     inkscape:document-units="mm"
     inkscape:zoom="1.4142136"
     inkscape:cx="-33.587571"
     inkscape:cy="187.02974"
     inkscape:window-width="1920"
     inkscape:window-height="1009"
     inkscape:window-x="-8"
     inkscape:window-y="-8"
     inkscape:window-maximized="1"
     inkscape:current-layer="layer1" /><defs
     id="defs1"><inkscape:path-effect
       effect="fillet_chamfer"
       id="path-effect1"
       is_visible="true"
       lpeversion="1"
       nodesatellites_param="F,0,0,1,0,1.5875,0,1 @ F,0,0,1,0,1.5875,0,1 @ F,0,0,1,0,1.5875,0,1 @ F,0,0,1,0,1.5875,0,1"
       radius="7"
       unit="px"
       method="auto"
       mode="F"
       chamfer_steps="1"
       flexible="false"
       use_knot_distance="true"
       apply_no_radius="true"
       apply_with_radius="true"
       only_selected="false"
       hide_knots="false" /></defs><g
     inkscape:label="Camada 1"
     inkscape:groupmode="layer"
     id="layer1"
     transform="matrix(3,0,0,3,4.2664021,3.1749989)"><rect
       style="fill:#d5e2e7;fill-opacity:0.77766895;stroke:#6f7f87;stroke-width:1.08423;stroke-linecap:round;stroke-linejoin:miter;stroke-dasharray:none;stroke-opacity:1"
       id="rect1"
       width="11.236861"
       height="11.236863"
       x="-0.88001907"
       y="-0.51621801"
       sodipodi:type="rect" /><g
       id="g3"
       style="stroke:#758d96;stroke-width:0.7;stroke-dasharray:none;stroke-opacity:1"
       transform="matrix(0.83463542,0,0,0.83463542,-1.5213544,-1.1575524)"><circle
         style="fill:none;stroke:#758d96;stroke-width:0.7;stroke-dasharray:none;stroke-opacity:1"
         id="path1"
         cx="2.95"
         cy="2.95"
         r="1" /><circle
         style="fill:none;stroke:#758d96;stroke-width:0.7;stroke-dasharray:none;stroke-opacity:1"
         id="circle1"
         cx="12.05"
         cy="2.95"
         r="1" /><circle
         style="fill:none;stroke:#758d96;stroke-width:0.7;stroke-dasharray:none;stroke-opacity:1"
         id="path1-8"
         cx="2.95"
         cy="12.05"
         r="1" /><circle
         style="fill:none;stroke:#758d96;stroke-width:0.7;stroke-dasharray:none;stroke-opacity:1"
         id="circle1-8"
         cx="12.05"
         cy="12.05"
         r="1" /></g><path
       d="m 4.5972976,4.3684332 c 0,0.3198516 -0.1354666,0.5964292 -0.4063997,0.8297327 -0.082785,0.071496 -0.1730961,0.1429925 -0.2709331,0.2144888 L 2.7064102,6.2875429 H 4.5972976 V 7.0777645 H 1.5492999 V 6.0053209 L 3.5812984,4.5377664 V 4.2555444 C 3.5812984,4.0297668 3.4684096,3.916878 3.242632,3.916878 H 1.6621887 V 3.1266564 h 1.8062209 c 0.3951108,0 0.6810958,0.090311 0.8579549,0.2709331 0.1806221,0.1768591 0.2709331,0.4628441 0.2709331,0.8579549 z m 3.3302205,0 c 0,0.3198516 -0.1354666,0.5964292 -0.4063997,0.8297327 -0.082785,0.071496 -0.1730962,0.1429925 -0.2709331,0.2144888 L 6.0366306,6.2875429 H 7.9275181 V 7.0777645 H 4.8795204 V 6.0053209 L 6.9115189,4.5377664 v -0.282222 c 0,-0.2257776 -0.1128888,-0.3386664 -0.3386664,-0.3386664 H 4.9924092 V 3.1266564 h 1.8062209 c 0.3951108,0 0.6810958,0.090311 0.8579549,0.2709331 0.1806221,0.1768591 0.2709331,0.4628441 0.2709331,0.8579549 z"
       id="text1"
       style="font-size:5.64444px;font-family:'Russo One';-inkscape-font-specification:'Russo One, Normal';fill:#93a4ab;fill-opacity:1;stroke-width:0.076059"
       aria-label="22"
       sodipodi:nodetypes="sccccccccssccscsssccccccccssccscss" /></g></svg>
