<?xml version="1.0" encoding="UTF-8" standalone="no"?>
<!-- Created with Inkscape (http://www.inkscape.org/) -->

<svg
   width="15mm"
   height="15mm"
   viewBox="0 0 15 15"
   version="1.1"
   id="svg1"
   inkscape:version="1.4 (86a8ad7, 2024-10-11)"
   sodipodi:docname="308sub.svg"
   inkscape:export-filename="308sub.png"
   inkscape:export-xdpi="216.74667"
   inkscape:export-ydpi="216.74667"
   xmlns:inkscape="http://www.inkscape.org/namespaces/inkscape"
   xmlns:sodipodi="http://sodipodi.sourceforge.net/DTD/sodipodi-0.dtd"
   xmlns="http://www.w3.org/2000/svg"
   xmlns:svg="http://www.w3.org/2000/svg">
  <sodipodi:namedview
     id="namedview1"
     pagecolor="#ffffff"
     bordercolor="#000000"
     borderopacity="0.25"
     inkscape:showpageshadow="2"
     inkscape:pageopacity="0.0"
     inkscape:pagecheckerboard="0"
     inkscape:deskcolor="#d1d1d1"
     inkscape:document-units="mm"
     inkscape:zoom="5.6568542"
     inkscape:cx="43.398679"
     inkscape:cy="15.644738"
     inkscape:window-width="1920"
     inkscape:window-height="1009"
     inkscape:window-x="-8"
     inkscape:window-y="-8"
     inkscape:window-maximized="1"
     inkscape:current-layer="layer1" />
  <defs
     id="defs1" />
  <g
     inkscape:label="Camada 1"
     inkscape:groupmode="layer"
     id="layer1">
    <rect
       style="fill:#3c3f3c;fill-opacity:1;stroke:#2c302c;stroke-width:1.31997;stroke-linecap:round;stroke-linejoin:round;stroke-dasharray:none;stroke-opacity:1"
       id="rect1"
       width="13.680029"
       height="13.680032"
       x="0.65998536"
       y="0.65998536" />
    <g
       id="g3"
       style="stroke:#3d4a3d;stroke-opacity:1;stroke-width:0.7;stroke-dasharray:none">
      <circle
         style="fill:none;stroke:#3d4a3d;stroke-width:0.7;stroke-dasharray:none;stroke-opacity:1"
         id="path1"
         cx="2.95"
         cy="2.95"
         r="1" />
      <circle
         style="fill:none;stroke:#3d4a3d;stroke-width:0.7;stroke-dasharray:none;stroke-opacity:1"
         id="circle1"
         cx="12.05"
         cy="2.95"
         r="1" />
      <circle
         style="fill:none;stroke:#3d4a3d;stroke-width:0.7;stroke-dasharray:none;stroke-opacity:1"
         id="path1-8"
         cx="2.95"
         cy="12.05"
         r="1" />
      <circle
         style="fill:none;stroke:#3d4a3d;stroke-width:0.7;stroke-dasharray:none;stroke-opacity:1"
         id="circle1-8"
         cx="12.05"
         cy="12.05"
         r="1" />
    </g>
    <path
       d="M 1.8643738,8.5583337 H 2.8168744 V 9.3520842 H 1.8643738 Z m 3.1750007,0.8466672 q -0.8837089,0 -1.9579179,-0.1058334 V 8.584792 q 1.1694591,0.079375 1.7462511,0.079375 0.1217084,0 0.1905001,-0.068792 0.074083,-0.074083 0.074083,-0.1957918 V 8.1879168 q 0,-0.3175002 -0.3175002,-0.3175002 H 3.6635403 V 7.1295828 h 1.0054173 q 0.3175002,0 0.3175002,-0.3175002 V 6.7062492 q 0,-0.3175002 -0.3175002,-0.3175002 H 3.1343733 V 5.6479153 h 1.7991678 q 0.5185836,0 0.7620005,0.2381251 0.2434168,0.2328335 0.2434168,0.7143754 0,0.3175002 -0.1481668,0.5185837 -0.1428751,0.1957918 -0.3810002,0.2751668 0.4286252,0.1164168 0.5820837,0.5715004 0.052917,0.1640417 0.052917,0.3810002 v 0.052917 q 0,0.5185836 -0.2434169,0.7620004 Q 5.5579581,9.4050009 5.0393745,9.4050009 Z M 8.5847962,6.6533325 q 0,-0.3175002 -0.3175002,-0.3175002 H 7.6852123 q -0.3175002,0 -0.3175002,0.3175002 v 1.6933344 q 0,0.3175002 0.3175002,0.3175002 H 8.267296 q 0.3175002,0 0.3175002,-0.3175002 z m 0.9525005,1.6933344 q 0,0.5556253 -0.2540001,0.8096255 Q 9.0345881,9.4050009 8.4789628,9.4050009 H 7.4735455 q -0.5556253,0 -0.8096255,-0.2487085 Q 6.4152115,8.9022922 6.4152115,8.3466669 V 6.6533325 q 0,-0.5556253 0.2487085,-0.8043338 0.2540002,-0.2540001 0.8096255,-0.2540001 h 1.0054173 q 0.5556253,0 0.8043338,0.2540001 0.2540001,0.2487085 0.2540001,0.8043338 z M 11.177715,7.8704166 q -0.3175,0 -0.3175,0.3175002 v 0.2116668 q 0,0.1217084 0.06879,0.1957918 0.07408,0.068792 0.195792,0.068792 h 0.79375 q 0.121708,0 0.1905,-0.068792 0.07408,-0.074083 0.07408,-0.1957918 V 8.1879168 q 0,-0.3175002 -0.317501,-0.3175002 z m 0.105834,-1.5345843 q -0.317501,0 -0.317501,0.3175002 v 0.1587501 q 0,0.3175002 0.317501,0.3175002 h 0.47625 q 0.3175,0 0.3175,-0.3175002 V 6.6533325 q 0,-0.3175002 -0.3175,-0.3175002 z m 1.852084,2.0637513 q 0,0.5185836 -0.243417,0.7620004 -0.243416,0.2434169 -0.762,0.2434169 h -1.217084 q -0.518584,0 -0.762001,-0.2434169 Q 9.9077145,8.9181672 9.9077145,8.3995836 v -0.052917 q 0,-0.4021669 0.2010835,-0.6667504 0.15875,-0.2116668 0.433917,-0.2857502 Q 10.30459,7.3147913 10.156423,7.1189995 10.013548,6.917916 10.013548,6.6004158 v -0.052917 q 0,-0.4815419 0.243417,-0.7143754 0.243417,-0.2381251 0.762,-0.2381251 h 1.005417 q 0.518584,0 0.762001,0.2381251 0.243417,0.2328335 0.243417,0.7143754 v 0.052917 q 0,0.3175002 -0.148167,0.5185837 -0.142875,0.1957918 -0.381,0.2751668 0.428625,0.1164168 0.582083,0.5715004 0.05292,0.1640417 0.05292,0.3810002 z"
       id="text1"
       style="font-size:5.29167px;font-family:'Russo One';-inkscape-font-specification:'Russo One, Normal';fill:#597259"
       aria-label=".308" />
  </g>
</svg>
