<?xml version="1.0" encoding="UTF-8" standalone="no"?>
<!-- Created with Inkscape (http://www.inkscape.org/) -->

<svg
   width="15mm"
   height="15mm"
   viewBox="0 0 15 15"
   version="1.1"
   id="svg1"
   inkscape:version="1.4 (86a8ad7, 2024-10-11)"
   sodipodi:docname="40mm.svg"
   inkscape:export-filename="40mm.png"
   inkscape:export-xdpi="216.74667"
   inkscape:export-ydpi="216.74667"
   xmlns:inkscape="http://www.inkscape.org/namespaces/inkscape"
   xmlns:sodipodi="http://sodipodi.sourceforge.net/DTD/sodipodi-0.dtd"
   xmlns="http://www.w3.org/2000/svg"
   xmlns:svg="http://www.w3.org/2000/svg">
  <sodipodi:namedview
     id="namedview1"
     pagecolor="#ffffff"
     bordercolor="#000000"
     borderopacity="0.25"
     inkscape:showpageshadow="2"
     inkscape:pageopacity="0.0"
     inkscape:pagecheckerboard="0"
     inkscape:deskcolor="#d1d1d1"
     inkscape:document-units="mm"
     inkscape:zoom="5.6568542"
     inkscape:cx="43.398679"
     inkscape:cy="44.105786"
     inkscape:window-width="1920"
     inkscape:window-height="1009"
     inkscape:window-x="-8"
     inkscape:window-y="-8"
     inkscape:window-maximized="1"
     inkscape:current-layer="layer1" />
  <defs
     id="defs1" />
  <g
     inkscape:label="Camada 1"
     inkscape:groupmode="layer"
     id="layer1">
    <rect
       style="fill:#25a6a2;fill-opacity:1;stroke:#1b7577;stroke-width:1.31997;stroke-linecap:round;stroke-linejoin:round;stroke-dasharray:none;stroke-opacity:1"
       id="rect1"
       width="13.680029"
       height="13.680032"
       x="0.65998536"
       y="0.65998536" />
    <g
       id="g3"
       style="stroke:#208c82;stroke-opacity:1;stroke-width:0.7;stroke-dasharray:none">
      <circle
         style="fill:none;stroke:#208c82;stroke-width:0.7;stroke-dasharray:none;stroke-opacity:1"
         id="path1"
         cx="2.95"
         cy="2.95"
         r="1" />
      <circle
         style="fill:none;stroke:#208c82;stroke-width:0.7;stroke-dasharray:none;stroke-opacity:1"
         id="circle1"
         cx="12.05"
         cy="2.95"
         r="1" />
      <circle
         style="fill:none;stroke:#208c82;stroke-width:0.7;stroke-dasharray:none;stroke-opacity:1"
         id="path1-8"
         cx="2.95"
         cy="12.05"
         r="1" />
      <circle
         style="fill:none;stroke:#208c82;stroke-width:0.7;stroke-dasharray:none;stroke-opacity:1"
         id="circle1-8"
         cx="12.05"
         cy="12.05"
         r="1" />
    </g>
    <path
       d="M 5.6655588,8.9816678 H 3.0550016 V 7.9938894 L 4.748336,5.0305541 H 6.159448 L 4.4661136,7.9938894 H 5.6655588 V 6.9355553 H 6.9355596 V 7.9938894 H 7.4294488 V 8.9816678 H 6.9355596 V 9.9694462 H 5.6655588 Z M 10.675004,6.3711105 q 0,-0.4233336 -0.423334,-0.4233336 H 9.4755587 q -0.4233336,0 -0.4233336,0.4233336 v 2.2577793 q 0,0.4233336 0.4233336,0.4233336 H 10.25167 q 0.423334,0 0.423334,-0.4233336 z m 1.270001,2.2577793 q 0,0.7408338 -0.338667,1.0795007 -0.331611,0.3316115 -1.072445,0.3316115 H 9.1933363 q -0.7408338,0 -1.0795007,-0.3316115 Q 7.7822243,9.3697236 7.7822243,8.6288898 V 6.3711105 q 0,-0.7408338 0.3316113,-1.0724451 0.3386669,-0.3386669 1.0795007,-0.3386669 h 1.3405567 q 0.740834,0 1.072445,0.3386669 0.338667,0.3316113 0.338667,1.0724451 z"
       id="text1"
       style="font-size:7.05556px;font-family:'Russo One';-inkscape-font-specification:'Russo One, Normal';fill:#186768"
       aria-label="40" />
  </g>
</svg>
