<?xml version="1.0" encoding="UTF-8" standalone="no"?>
<!-- Created with Inkscape (http://www.inkscape.org/) -->

<svg
   width="15mm"
   height="15mm"
   viewBox="0 0 15 15"
   version="1.1"
   id="svg1"
   inkscape:version="1.4 (86a8ad7, 2024-10-11)"
   sodipodi:docname="556mm.svg"
   inkscape:export-filename="556mm.png"
   inkscape:export-xdpi="216.74667"
   inkscape:export-ydpi="216.74667"
   xmlns:inkscape="http://www.inkscape.org/namespaces/inkscape"
   xmlns:sodipodi="http://sodipodi.sourceforge.net/DTD/sodipodi-0.dtd"
   xmlns="http://www.w3.org/2000/svg"
   xmlns:svg="http://www.w3.org/2000/svg">
  <sodipodi:namedview
     id="namedview1"
     pagecolor="#ffffff"
     bordercolor="#000000"
     borderopacity="0.25"
     inkscape:showpageshadow="2"
     inkscape:pageopacity="0.0"
     inkscape:pagecheckerboard="0"
     inkscape:deskcolor="#d1d1d1"
     inkscape:document-units="mm"
     inkscape:zoom="5.6568542"
     inkscape:cx="4.3310291"
     inkscape:cy="15.644738"
     inkscape:window-width="1920"
     inkscape:window-height="1009"
     inkscape:window-x="-8"
     inkscape:window-y="-8"
     inkscape:window-maximized="1"
     inkscape:current-layer="layer1" />
  <defs
     id="defs1" />
  <g
     inkscape:label="Camada 1"
     inkscape:groupmode="layer"
     id="layer1">
    <rect
       style="fill:#00a30e;fill-opacity:1;stroke:#017b00;stroke-width:1.31997;stroke-linecap:round;stroke-linejoin:round;stroke-dasharray:none;stroke-opacity:1"
       id="rect1"
       width="13.680029"
       height="13.680032"
       x="0.65998536"
       y="0.65998536" />
    <g
       id="g3"
       style="stroke:#018c00;stroke-opacity:1;stroke-width:0.7;stroke-dasharray:none">
      <circle
         style="fill:none;stroke:#018c00;stroke-width:0.7;stroke-dasharray:none;stroke-opacity:1"
         id="path1"
         cx="2.95"
         cy="2.95"
         r="1" />
      <circle
         style="fill:none;stroke:#018c00;stroke-width:0.7;stroke-dasharray:none;stroke-opacity:1"
         id="circle1"
         cx="12.05"
         cy="2.95"
         r="1" />
      <circle
         style="fill:none;stroke:#018c00;stroke-width:0.7;stroke-dasharray:none;stroke-opacity:1"
         id="path1-8"
         cx="2.95"
         cy="12.05"
         r="1" />
      <circle
         style="fill:none;stroke:#018c00;stroke-width:0.7;stroke-dasharray:none;stroke-opacity:1"
         id="circle1-8"
         cx="12.05"
         cy="12.05"
         r="1" />
    </g>
    <path
       d="m 3.8593301,9.5319989 q -0.9426215,0 -2.0884429,-0.1128888 V 8.6571106 q 1.2474213,0.084667 1.8626653,0.084667 0.1298221,0 0.2031998,-0.073378 0.079022,-0.079022 0.079022,-0.2088443 v -0.282222 q 0,-0.3386664 -0.3386664,-0.3386664 H 1.9402205 V 5.5244463 H 4.6495517 V 6.314668 h -1.693332 v 0.7337772 h 0.9031104 q 0.5531551,0 0.8127994,0.2539998 0.2596442,0.2483554 0.2596442,0.7619994 v 0.3951108 q 0,0.5531552 -0.2596442,0.8127994 Q 4.4124852,9.5319989 3.8593301,9.5319989 Z M 5.2139979,8.6288884 H 6.2299972 V 9.4755545 H 5.2139979 Z m 3.3866628,0.9031105 q -0.9426215,0 -2.0884428,-0.1128888 V 8.6571106 q 1.2474212,0.084667 1.8626652,0.084667 0.1298222,0 0.2031999,-0.073378 0.079022,-0.079022 0.079022,-0.2088443 v -0.282222 q 0,-0.3386664 -0.3386664,-0.3386664 H 6.6815511 V 5.5244463 H 9.3908824 V 6.314668 H 7.6975503 v 0.7337772 h 0.9031104 q 0.5531552,0 0.8127994,0.2539998 0.2596443,0.2483554 0.2596443,0.7619994 v 0.3951108 q 0,0.5531552 -0.2596443,0.8127994 -0.2596442,0.2596443 -0.8127994,0.2596443 z m 2.4835553,-4.063997 q 0.773288,0 1.862665,0.1128888 v 0.7619995 q -0.310444,-0.016933 -0.530577,-0.028222 -0.214489,-0.016933 -0.3556,-0.022578 -0.135466,-0.011289 -0.270933,-0.022578 -0.225777,-0.011289 -0.417688,-0.011289 -0.344311,0 -0.344311,0.282222 v 0.5079996 q 0.54751,-0.1128888 0.959555,-0.1128888 h 0.39511 q 0.383822,0 0.615244,0.231422 0.231422,0.2314221 0.231422,0.615244 v 0.7337772 q 0,0.5136441 -0.259644,0.7676439 -0.259644,0.2483554 -0.812799,0.2483554 h -1.072444 q -0.553155,0 -0.812799,-0.2483554 -0.259645,-0.2539998 -0.259645,-0.7676439 v -1.975554 q 0,-0.5531552 0.259645,-0.8127994 0.259644,-0.2596443 0.812799,-0.2596443 z m 0.620889,2.2577761 q -0.214489,0 -0.395111,0.022578 -0.174978,0.022578 -0.282222,0.033867 v 0.6208884 q 0,0.3386664 0.338666,0.3386664 h 0.508 q 0.338666,0 0.338666,-0.3386664 V 7.9233334 q 0,-0.084667 -0.05644,-0.141111 -0.05645,-0.056444 -0.141111,-0.056444 z"
       id="text1"
       style="font-size:5.64444px;font-family:'Russo One';-inkscape-font-specification:'Russo One, Normal';fill:#017000"
       aria-label="5.56" />
  </g>
</svg>
