<?xml version="1.0" encoding="UTF-8" standalone="no"?>
<!-- Created with Inkscape (http://www.inkscape.org/) -->

<svg
   width="36.963272mm"
   height="36.96328mm"
   viewBox="0 0 36.963273 36.963281"
   version="1.1"
   id="svg1"
   inkscape:version="1.4.2 (f4327f4, 2025-05-13)"
   sodipodi:docname="9mm.svg"
   inkscape:export-filename="762mm.png"
   inkscape:export-xdpi="216.74667"
   inkscape:export-ydpi="216.74667"
   xml:space="preserve"
   xmlns:inkscape="http://www.inkscape.org/namespaces/inkscape"
   xmlns:sodipodi="http://sodipodi.sourceforge.net/DTD/sodipodi-0.dtd"
   xmlns="http://www.w3.org/2000/svg"
   xmlns:svg="http://www.w3.org/2000/svg"><sodipodi:namedview
     id="namedview1"
     pagecolor="#ffffff"
     bordercolor="#000000"
     borderopacity="0.25"
     inkscape:showpageshadow="2"
     inkscape:pageopacity="0.0"
     inkscape:pagecheckerboard="0"
     inkscape:deskcolor="#d1d1d1"
     inkscape:document-units="mm"
     inkscape:zoom="2"
     inkscape:cx="78.5"
     inkscape:cy="102.25"
     inkscape:window-width="1920"
     inkscape:window-height="1009"
     inkscape:window-x="-8"
     inkscape:window-y="-8"
     inkscape:window-maximized="1"
     inkscape:current-layer="layer1" /><defs
     id="defs1"><inkscape:path-effect
       effect="fillet_chamfer"
       id="path-effect1"
       is_visible="true"
       lpeversion="1"
       nodesatellites_param="F,0,0,1,0,1.5875,0,1 @ F,0,0,1,0,1.5875,0,1 @ F,0,0,1,0,1.5875,0,1 @ F,0,0,1,0,1.5875,0,1"
       radius="7"
       unit="px"
       method="auto"
       mode="F"
       chamfer_steps="1"
       flexible="false"
       use_knot_distance="true"
       apply_no_radius="true"
       apply_with_radius="true"
       only_selected="false"
       hide_knots="false" /></defs><g
     inkscape:label="Camada 1"
     inkscape:groupmode="layer"
     id="layer1"
     transform="matrix(3,0,0,3,4.2664021,3.1749989)"><rect
       style="fill:#dadc23;fill-opacity:1;stroke:#948018;stroke-width:1.08423;stroke-linecap:round;stroke-linejoin:miter;stroke-dasharray:none;stroke-opacity:1"
       id="rect1"
       width="11.236861"
       height="11.236863"
       x="-0.88001907"
       y="-0.51621801"
       sodipodi:type="rect" /><g
       id="g3"
       style="stroke:#948018;stroke-width:0.7;stroke-dasharray:none;stroke-opacity:1"
       transform="matrix(0.83463542,0,0,0.83463542,-1.5213544,-1.1575524)"><circle
         style="fill:none;fill-opacity:1;stroke:#948018;stroke-width:0.7;stroke-dasharray:none;stroke-opacity:1"
         id="path1"
         cx="2.95"
         cy="2.95"
         r="1" /><circle
         style="fill:none;fill-opacity:1;stroke:#948018;stroke-width:0.7;stroke-dasharray:none;stroke-opacity:1"
         id="circle1"
         cx="12.05"
         cy="2.95"
         r="1" /><circle
         style="fill:none;fill-opacity:1;stroke:#948018;stroke-width:0.7;stroke-dasharray:none;stroke-opacity:1"
         id="path1-8"
         cx="2.95"
         cy="12.05"
         r="1" /><circle
         style="fill:none;fill-opacity:1;stroke:#948018;stroke-width:0.7;stroke-dasharray:none;stroke-opacity:1"
         id="circle1-8"
         cx="12.05"
         cy="12.05"
         r="1" /></g><path
       d="m 3.3375707,6.3242292 q 1.2279742,0.089416 1.7287016,0.089416 0.1371039,0 0.2145974,-0.077494 0.083455,-0.083455 0.083455,-0.2205585 V 5.5790992 Q 4.7861034,5.69832 4.3509475,5.69832 H 3.9336747 q -0.4053508,0 -0.6497534,-0.2444026 Q 3.0395187,5.2095147 3.0395187,4.804164 V 4.0292288 q 0,-0.5424546 0.2742078,-0.8047404 0.2742078,-0.2682468 0.8583898,-0.2682468 h 1.1325976 q 0.5841819,0 0.8583897,0.2682468 0.2742079,0.2622858 0.2742079,0.8047404 v 2.086364 q 0,0.584182 -0.2742079,0.8583898 -0.2742078,0.2742078 -0.8583897,0.2742078 -0.8166625,0 -1.9671432,-0.1192208 z M 4.6489995,4.8637744 q 0.3397792,0 0.7153248,-0.05961 V 4.1484496 q 0,-0.3576624 -0.3576624,-0.3576624 H 4.4701683 q -0.3576624,0 -0.3576624,0.3576624 V 4.655138 q 0,0.089416 0.05961,0.149026 0.05961,0.05961 0.149026,0.05961 z"
       id="text2"
       style="font-size:5.96104px;font-family:'Russo One';-inkscape-font-specification:'Russo One, Normal';fill:#b7a11e;stroke-width:0.223539"
       aria-label="9" /></g></svg>
