<?xml version="1.0" encoding="UTF-8" standalone="no"?>
<!-- Created with Inkscape (http://www.inkscape.org/) -->

<svg
   width="16.587561mm"
   height="39.525806mm"
   viewBox="0 0 16.587561 39.525807"
   version="1.1"
   id="svg1"
   xml:space="preserve"
   inkscape:version="1.4.2 (f4327f4, 2025-05-13)"
   sodipodi:docname="default_skin_closeup.svg"
   inkscape:export-filename="inomeado.png"
   inkscape:export-xdpi="96"
   inkscape:export-ydpi="96"
   xmlns:inkscape="http://www.inkscape.org/namespaces/inkscape"
   xmlns:sodipodi="http://sodipodi.sourceforge.net/DTD/sodipodi-0.dtd"
   xmlns:xlink="http://www.w3.org/1999/xlink"
   xmlns="http://www.w3.org/2000/svg"
   xmlns:svg="http://www.w3.org/2000/svg"><sodipodi:namedview
     id="namedview1"
     pagecolor="#505050"
     bordercolor="#eeeeee"
     borderopacity="1"
     inkscape:showpageshadow="0"
     inkscape:pageopacity="0"
     inkscape:pagecheckerboard="0"
     inkscape:deskcolor="#505050"
     inkscape:document-units="mm"
     inkscape:zoom="5.7513469"
     inkscape:cx="35.209144"
     inkscape:cy="61.116119"
     inkscape:window-width="1920"
     inkscape:window-height="1009"
     inkscape:window-x="-8"
     inkscape:window-y="-8"
     inkscape:window-maximized="1"
     inkscape:current-layer="g2"
     showguides="true" /><defs
     id="defs1"><linearGradient
       id="linearGradient9"
       inkscape:collect="always"><stop
         style="stop-color:#5b3000;stop-opacity:1;"
         offset="0"
         id="stop9" /><stop
         style="stop-color:#945300;stop-opacity:1;"
         offset="1"
         id="stop10" /></linearGradient><linearGradient
       id="linearGradient1"
       inkscape:collect="always"><stop
         style="stop-color:#0066ff;stop-opacity:1;"
         offset="0"
         id="stop4" /><stop
         style="stop-color:#001aff;stop-opacity:1;"
         offset="1"
         id="stop1" /></linearGradient><linearGradient
       id="linearGradient5"
       inkscape:collect="always"><stop
         style="stop-color:#292929;stop-opacity:1;"
         offset="0"
         id="stop5" /><stop
         style="stop-color:#626262;stop-opacity:1;"
         offset="1"
         id="stop6" /></linearGradient><linearGradient
       id="linearGradient2"
       inkscape:collect="always"><stop
         style="stop-color:#000000;stop-opacity:1;"
         offset="0.24707136"
         id="stop2" /><stop
         style="stop-color:#000000;stop-opacity:0.72941176;"
         offset="0.46858358"
         id="stop7" /><stop
         style="stop-color:#000000;stop-opacity:0;"
         offset="0.99893504"
         id="stop3" /></linearGradient><linearGradient
       inkscape:collect="always"
       xlink:href="#linearGradient2"
       id="linearGradient3"
       x1="122.7891"
       y1="122.6459"
       x2="121.72581"
       y2="154.84851"
       gradientUnits="userSpaceOnUse"
       gradientTransform="matrix(1.012587,-2.4607413e-8,-2.6731867e-8,1.0125868,-1.7080076,-1.8160143)" /><linearGradient
       inkscape:collect="always"
       xlink:href="#linearGradient5"
       id="linearGradient6"
       x1="122.00185"
       y1="122.5999"
       x2="122.00184"
       y2="154.61848"
       gradientUnits="userSpaceOnUse"
       gradientTransform="matrix(1.012587,-2.4607413e-8,-2.6731867e-8,1.0125868,-1.7080076,-1.8160143)" /><linearGradient
       inkscape:collect="always"
       xlink:href="#linearGradient5"
       id="linearGradient11"
       gradientUnits="userSpaceOnUse"
       gradientTransform="matrix(1.012587,-2.4607413e-8,-2.6731867e-8,1.0125868,-1.7080076,-1.8160143)"
       x1="122.00185"
       y1="122.5999"
       x2="122.00184"
       y2="154.61848" /><linearGradient
       inkscape:collect="always"
       xlink:href="#linearGradient2"
       id="linearGradient12"
       gradientUnits="userSpaceOnUse"
       gradientTransform="matrix(1.012587,-2.4607413e-8,-2.6731867e-8,1.0125868,-1.7080076,-1.8160143)"
       x1="122.7891"
       y1="122.6459"
       x2="121.72581"
       y2="154.84851" /><clipPath
       clipPathUnits="userSpaceOnUse"
       id="clipPath9"><rect
         style="fill:#fbb010;fill-opacity:1;stroke:none;stroke-width:1.05376;stroke-dasharray:none;stroke-opacity:1"
         id="rect9"
         width="48.971191"
         height="28.760324"
         x="-4.9016471"
         y="32.559925" /></clipPath><clipPath
       clipPathUnits="userSpaceOnUse"
       id="clipPath10"><rect
         style="fill:#fbb010;fill-opacity:1;stroke:none;stroke-width:1.05376;stroke-dasharray:none;stroke-opacity:1"
         id="rect11"
         width="48.179913"
         height="35.602936"
         x="-5.253325"
         y="26.679558" /></clipPath><clipPath
       clipPathUnits="userSpaceOnUse"
       id="clipPath13"><path
         id="path14"
         style="fill:#ff9c2d;stroke-width:0.983096"
         d="M 1.7849885,34.442375 H 35.134812 L 34.786815,62.513827 26.428847,63.24839 25.854862,66.886766 8.7622063,67.166075 8.860951,63.007547 2.1329866,62.372763 Z"
         sodipodi:nodetypes="ccccccccc" /></clipPath><clipPath
       clipPathUnits="userSpaceOnUse"
       id="clipPath25"><path
         id="path27"
         style="fill:#04117c;fill-opacity:1;stroke-width:0.589858;stroke-dasharray:none;stroke-opacity:0.561214"
         d="M 2.4229851,91.431648 H 30.08884 V 102.364 H 2.4229851 Z" /></clipPath><linearGradient
       inkscape:collect="always"
       xlink:href="#linearGradient1"
       id="linearGradient4"
       x1="17.886532"
       y1="36.539536"
       x2="17.886532"
       y2="65.068916"
       gradientUnits="userSpaceOnUse" /><linearGradient
       inkscape:collect="always"
       xlink:href="#linearGradient9"
       id="linearGradient10"
       x1="180.04961"
       y1="136.17572"
       x2="44.92638"
       y2="147.82898"
       gradientUnits="userSpaceOnUse" /></defs><g
     id="g2"
     inkscape:label="CloseUp"
     transform="matrix(0.44654762,0,0,0.44654762,0.02573796,0.02727775)"><g
       id="g3"
       inkscape:label="Body"
       transform="matrix(1.1843672,0,0,0.89463237,-3.737557,0.6105639)"
       style="fill:#4e4e4e;fill-opacity:1;stroke-width:0.971481;stroke-dasharray:none"><g
         id="g22"
         style="stroke-width:0.971481;stroke-dasharray:none"><path
           style="display:inline;fill:#ffe1c2;fill-opacity:1;stroke:#000000;stroke-width:0.971481;stroke-dasharray:none;stroke-opacity:1"
           d="m 24.711843,42.18503 1.541142,23.943422 c 1.05873,2.00839 4.350356,1.473723 5.409086,0 C 31.249431,47.143022 30.962734,42.206731 29.637908,35.437144 19.803804,31.809582 17.259218,29.991589 7.9130475,35.146838 3.9550595,39.20491 3.7119012,62.701563 4.4167649,65.943984 c 3.832046,1.651709 4.4294567,-0.211325 4.2352202,0.184015 L 9.7669496,43.105104 8.6519851,67.512016 H 26.193985 Z"
           id="path3"
           sodipodi:nodetypes="ccccccccccc" /><path
           style="display:inline;fill:url(#linearGradient4);stroke:#000000;stroke-width:0.971481;stroke-dasharray:none;stroke-opacity:1"
           d="m 24.711843,42.18503 1.541142,23.943422 c 1.05873,2.00839 4.350356,1.473723 5.409086,0 C 31.249431,47.143022 30.962734,42.206731 29.637908,35.437144 19.803804,31.809582 17.259218,29.991589 7.9130475,35.146838 3.9550595,39.20491 3.7119012,62.701563 4.4167649,65.943984 c 3.832046,1.651709 4.4294567,-0.211325 4.2352202,0.184015 L 9.7669496,43.105104 8.6519851,67.512016 H 26.193985 Z"
           id="path13"
           sodipodi:nodetypes="ccccccccccc"
           clip-path="url(#clipPath13)" /></g><g
         id="g23"
         style="stroke-width:0.971481;stroke-dasharray:none"><path
           style="baseline-shift:baseline;display:inline;overflow:visible;opacity:1;fill:#04117c;fill-opacity:1;stroke-width:0.971481;stroke-dasharray:none;enable-background:accumulate;stop-color:#000000;stop-opacity:1"
           d="M 8.6519851,67.212895 8.0898823,91.455 c -1.7964847,0.540046 -2.1673009,1.679763 -1.9805908,4.141381 1.5221809,4.041804 6.6354055,1.027524 9.9092975,0.247824 L 16.39475,72.977867 c 0.729097,-0.419438 1.418539,-0.30842 2.093223,0 L 18.642227,91.455 c -2.141361,0.542682 -2.125424,1.621452 -1.5084,4.291 1.620062,2.853759 5.477849,1.002091 9.373657,-0.276 L 26.193985,67.127784 Z"
           id="path17" /><path
           style="baseline-shift:baseline;display:inline;overflow:visible;opacity:1;fill:#15161f;fill-opacity:1;stroke-width:0.971481;stroke-dasharray:none;enable-background:accumulate;stop-color:#000000;stop-opacity:1"
           d="M 8.6519851,67.212895 8.0898823,91.455 c -1.7964847,0.540046 -2.1673009,1.679763 -1.9805908,4.141381 1.5221809,4.041804 6.6354055,1.027524 9.9092975,0.247824 L 16.39475,72.977867 c 0.729097,-0.419438 1.418539,-0.30842 2.093223,0 L 18.642227,91.455 c -2.141361,0.542682 -2.125424,1.621452 -1.5084,4.291 1.620062,2.853759 5.477849,1.002091 9.373657,-0.276 L 26.193985,67.127784 Z"
           id="path25"
           clip-path="url(#clipPath25)"
           sodipodi:nodetypes="ccccccccccc" /><g
           id="g21"
           style="stroke-width:0.971481;stroke-dasharray:none"><path
             style="fill:none;fill-opacity:1;stroke:#000000;stroke-width:0.971481;stroke-dasharray:none;stroke-opacity:0.561214"
             d="m 8.369118,71.700114 c 3.220303,-0.531455 4.092779,-2.827107 4.285751,-4.862631"
             id="path15"
             sodipodi:nodetypes="cc" /><path
             style="fill:none;fill-opacity:1;stroke:#000000;stroke-width:0.971481;stroke-dasharray:none;stroke-opacity:0.561214"
             d="M 26.393398,71.575431 C 23.173095,71.043976 22.997823,68.92288 22.804851,66.887356"
             id="path21"
             sodipodi:nodetypes="cc" /></g><path
           style="baseline-shift:baseline;display:inline;overflow:visible;opacity:1;fill:#000000;fill-opacity:1;stroke-width:0.971481;stroke-dasharray:none;enable-background:accumulate;stop-color:#000000;stop-opacity:1"
           d="M 26.71875,66.595703 8.1347656,66.685547 7.5683594,91.130859 c -0.7754529,0.314508 -1.3909953,0.771123 -1.6972657,1.458985 -0.3583826,0.804902 -0.3868378,1.783538 -0.2910156,3.046875 l 0.00586,0.07617 0.027344,0.07031 c 0.4226858,1.122346 1.1622002,1.840409 2.0429688,2.164063 0.8807686,0.323653 1.8584348,0.283731 2.8476561,0.101562 1.978443,-0.364338 4.088996,-1.320852 5.636719,-1.689453 l 0.400391,-0.0957 0.01758,-1.082031 c 0.05342,0.257157 -0.0079,0.395851 0.05859,0.683593 l 0.01758,0.07617 0.03906,0.06641 c 0.461734,0.81335 1.13291,1.339451 1.898438,1.583985 0.765528,0.244534 1.603169,0.22865 2.478515,0.08789 1.750694,-0.281518 3.695983,-1.075463 5.621094,-1.707031 l 0.369141,-0.121094 z m -1.048828,1.064453 0.304687,27.419922 c -1.831672,0.615886 -3.639455,1.321145 -5.091797,1.554688 -0.778583,0.125199 -1.453087,0.118223 -1.988281,-0.05273 -0.516476,-0.164979 -0.915034,-0.486625 -1.255859,-1.058594 -0.279036,-1.237335 -0.402084,-2.122293 -0.275391,-2.578125 0.06589,-0.237073 0.165631,-0.386215 0.373047,-0.542968 0.207416,-0.156753 0.540491,-0.308232 1.035156,-0.433594 l 0.404297,-0.101563 -0.160156,-19.230468 -0.306641,-0.140625 c -0.755092,-0.345177 -1.688848,-0.48815 -2.578125,0.02344 l -0.261718,0.148438 -0.375,22.78125 C 13.847999,95.89594 11.959718,96.704119 10.310547,97.00782 9.4219531,97.171451 8.6298679,97.176686 8.0214844,96.953125 7.4321087,96.736549 6.9783947,96.316436 6.6425781,95.474609 6.5643156,94.33855 6.6177946,93.520192 6.8398437,93.021484 7.0693129,92.506113 7.4327346,92.206222 8.2421875,91.962891 L 8.6113281,91.851562 9.1699219,67.740234 Z m -8.216797,5.564453 c 0.160699,0.0079 0.338245,0.08645 0.509766,0.146485 l 0.148437,17.74414 c -0.369437,0.124491 -0.746557,0.239536 -1.013672,0.441407 -0.242539,0.183297 -0.350325,0.461568 -0.490234,0.71875 l 0.310547,-18.908204 c 0.180305,-0.06741 0.362349,-0.151062 0.535156,-0.142578 z"
           id="path18"
           sodipodi:nodetypes="cccscccssccccccsssccccsscsscccccccsscsccccsccsccs" /></g></g><g
       inkscape:label="Head"
       inkscape:groupmode="layer"
       id="layer1"
       style="display:inline"
       transform="matrix(0.27321982,0,0,0.27321982,-12.03615,-19.610103)"><path
         style="display:inline;fill:#ffe1c2;fill-opacity:1;stroke:#000000;stroke-width:3.66006;stroke-linecap:round;stroke-linejoin:round;stroke-dasharray:none;stroke-opacity:1"
         d="m 49.705138,137.40478 v 38.25474 c 33.376686,30.10816 76.540642,31.25308 108.410752,-0.0604 l 1.14874,-75.14786 C 140.45553,80.430244 78.449467,69.961831 49.705138,100.97169 Z"
         id="path16"
         sodipodi:nodetypes="cccccc"
         inkscape:label="Face Color" /><g
         id="g18"
         inkscape:label="Hair"
         transform="matrix(0.98685581,0,0,1.051324,0.57904087,-6.7790797)"
         style="stroke-width:3.59329;stroke-dasharray:none"><path
           style="baseline-shift:baseline;display:inline;overflow:visible;opacity:1;vector-effect:none;fill:url(#linearGradient10);stroke-width:3.59329;stroke-linecap:round;stroke-linejoin:round;stroke-dasharray:none;enable-background:accumulate;stop-color:#000000;stop-opacity:1"
           d="m 45.635687,108.75279 c 3.3362,6.78618 6.243151,13.02458 3.918208,26.71373 16.246758,-13.80131 83.316005,-14.90668 99.165525,-6.83088 2.97599,8.42391 6.21849,13.35302 10.45344,18.94428 -2.42922,9.64863 -1.47293,17.6045 -1.2881,25.9461 5.17157,-3.15029 12.94767,-11.41353 15.08922,-24.84201 18.2014,-22.78886 -5.635,-61.559615 -5.635,-61.559615 0,0 -19.87863,-11.07664 -29.69586,-7.629971 C 121.13076,73.690805 116.78127,77.423403 108.394,77.869861 82.280199,76.469327 49.944225,83.884655 49.499998,99.736059 Z"
           id="path6"
           sodipodi:nodetypes="ccccccccccc"
           inkscape:label="Hair Color" /><path
           style="fill:#b97100;fill-opacity:1;stroke-width:3.59329;stroke-linecap:round;stroke-linejoin:round;stroke-dasharray:none"
           d="m 48.974342,107.06641 c -3.155607,-0.8543 -4.460907,3.97011 -1.308594,4.82617 23.498783,6.37355 45.389253,0.096 63.915402,-7.47937 2.7527,-1.12558 2.06518,-2.99816 -0.23987,-2.40164 -23.740254,6.13778 -39.147557,11.35261 -62.366938,5.05484 z"
           id="path24"
           sodipodi:nodetypes="ccscc"
           inkscape:label="Hair Line" /><path
           style="baseline-shift:baseline;display:inline;overflow:visible;opacity:1;vector-effect:none;stroke-width:3.59329;stroke-linecap:round;stroke-linejoin:round;stroke-dasharray:none;enable-background:accumulate;stop-color:#000000;stop-opacity:1"
           d="m 119.91406,74.560547 c -4.3889,0.255775 -7.662,1.301728 -11.59961,1.513672 -13.221224,-0.689295 -27.900903,0.812146 -39.542966,4.548828 -5.846322,1.876458 -10.935105,4.308421 -14.701172,7.429687 -3.622546,3.002319 -5.993519,6.780108 -6.287109,11.128907 l -3.798828,8.863279 c -0.206367,0.48177 -0.1921,1.02963 0.03906,1.5 3.32617,6.76578 6.028227,12.26451 3.759766,25.6211 -0.279094,1.65219 1.655434,2.7534 2.933594,1.66992 3.605854,-3.06311 10.654975,-5.75025 19.33789,-7.63867 8.682916,-1.88842 19.005212,-3.06242 29.316407,-3.55469 10.311198,-0.49227 20.619648,-0.30467 29.285158,0.50195 8.35808,0.778 15.09215,2.22342 18.70312,3.91992 2.83523,7.73763 6.02725,12.72359 9.91797,17.91602 -2.24485,9.59267 -1.36647,17.59684 -1.18945,25.58594 0.0305,1.38469 1.55016,2.21565 2.73242,1.49414 5.62146,-3.42434 13.51314,-11.95067 15.83789,-25.67969 9.29184,-12.03322 7.76551,-27.86986 4.04688,-40.5293 -3.76104,-12.803802 -9.83594,-22.667966 -9.83594,-22.667966 -0.16124,-0.262414 -0.38722,-0.478979 -0.65625,-0.628907 0,0 -5.06793,-2.827028 -11.40625,-5.21875 -6.07847,-2.293672 -13.26647,-4.305189 -18.99414,-2.667968 -8.15779,-2.817032 -13.58432,-3.358839 -17.89844,-3.107422 z m 0.11524,3.554687 c 4.00484,-0.270889 8.92163,0.228726 17.01757,3.074219 0.38558,0.135495 0.80583,0.135495 1.19141,0 3.98339,-1.398504 11.24547,0.222882 17.30078,2.507813 5.63689,2.127043 9.87412,4.4347 10.48438,4.769531 0.35319,0.581818 5.74271,9.511655 9.23437,21.398433 3.60682,12.27879 4.86447,26.98988 -3.6875,37.69727 -0.19404,0.24253 -0.32189,0.53121 -0.37109,0.83789 -1.70668,10.70164 -7.12948,17.74467 -11.61328,21.51758 -0.27074,-7.09487 -0.67774,-13.9236 1.33008,-21.89844 0.13292,-0.52863 0.0187,-1.08902 -0.31055,-1.52344 -4.1946,-5.53798 -7.27863,-10.21399 -10.19141,-18.45898 -0.15369,-0.43431 -0.46832,-0.79299 -0.8789,-1.00195 -4.43385,-2.25918 -11.66956,-3.6426 -20.54493,-4.46875 -8.87536,-0.82616 -19.32286,-1.01344 -29.791011,-0.51368 -10.468152,0.49977 -20.950937,1.68473 -29.908203,3.63282 -7.07668,1.53908 -13.129147,3.52919 -17.615235,6.17773 1.104183,-10.83106 -1.225047,-17.27002 -4.076172,-23.13086 l 3.552735,-8.28906 c 0.08902,-0.20772 0.138051,-0.43036 0.144531,-0.656251 0.09407,-3.356648 1.828482,-6.285201 5.066406,-8.96875 3.237924,-2.683548 7.948435,-4.989705 13.50586,-6.773437 11.114848,-3.567465 25.579763,-5.069921 38.427739,-4.38086 0.0644,0.0035 0.12895,0.0035 0.19335,0 4.44257,-0.236479 7.53423,-1.277939 11.53907,-1.548828 z"
           id="path9"
           sodipodi:nodetypes="scsscccccssscccccsccscscsccscscccccccsssccccsscc"
           inkscape:label="Hair Outline" /></g><g
         id="g17"
         inkscape:label="Eyes"
         style="display:inline"><g
           id="g1"
           style="display:inline"
           inkscape:label="Eye 1"><path
             id="path1"
             style="fill:#ffffff;fill-opacity:1;stroke-width:0.247178"
             d="m 144.3996,139.81005 c -0.30419,8.37619 -8.94691,20.69262 -19.86997,20.69262 -10.92307,0 -17.93781,-8.96493 -17.93781,-21.6127 0,-12.64775 10.60303,-21.7967 21.5261,-21.7967 10.92306,0 16.54452,15.47907 16.28168,22.71678 z"
             sodipodi:nodetypes="sssss" /><g
             id="g4"
             inkscape:label="Pupil"
             transform="matrix(0.98400323,0.17890332,-0.19498212,0.9808068,28.735653,-18.77406)"><path
               id="path2"
               style="fill:url(#linearGradient6);fill-opacity:0.677382;stroke:none;stroke-width:0.268337;stroke-dasharray:none"
               d="m 133.19566,138.631 a 11.366195,16.257384 4.2902238e-6 0 1 -11.36619,16.25739 11.366195,16.257384 4.2902238e-6 0 1 -11.3662,-16.25739 11.366195,16.257384 4.2902238e-6 0 1 11.3662,-16.2574 11.366195,16.257384 4.2902238e-6 0 1 11.36619,16.2574 z" /><ellipse
               style="fill:#242424;fill-opacity:1;stroke:none;stroke-width:0.283998"
               id="path4"
               cx="121.17834"
               cy="138.86256"
               rx="6.9833469"
               ry="10.195683" /><path
               id="path5"
               style="fill:url(#linearGradient3);fill-opacity:0.677382;stroke:none;stroke-width:0.267912"
               d="m 133.19566,138.631 a 11.366195,16.257384 4.2902238e-6 0 1 -11.36619,16.25739 11.366195,16.257384 4.2902238e-6 0 1 -11.3662,-16.25739 11.366195,16.257384 4.2902238e-6 0 1 11.3662,-16.2574 11.366195,16.257384 4.2902238e-6 0 1 11.36619,16.2574 z" /></g><path
             style="stroke-linecap:round;stroke-linejoin:round"
             d="m 126.62109,115.91602 c -3.88622,0.0452 -7.22682,1.64021 -10.24699,3.55096 -1.65683,1.04866 -0.51393,3.07675 1.14348,2.02911 4.95029,-3.13186 13.0969,-3.61445 18.64844,0.13086 5.55154,3.74532 9.06234,11.62877 4.61718,26.40625 -0.23782,0.79277 0.21144,1.62836 1.00391,1.86719 0.79339,0.23908 1.63033,-0.21044 1.86914,-1.00391 4.66408,-15.50527 0.91719,-25.2157 -5.8125,-29.75585 -3.36485,-2.27008 -7.33643,-3.26984 -11.22266,-3.22461 z"
             id="path7"
             sodipodi:nodetypes="sccscscss" /></g><ellipse
           style="display:inline;fill:#ffffff;fill-opacity:1;stroke:none;stroke-width:9.50158;stroke-linecap:round;stroke-linejoin:round;stroke-dasharray:none;stroke-opacity:1"
           id="path26-5"
           cx="118.20382"
           cy="128.28862"
           rx="2.3170869"
           ry="2.5067503" /><g
           id="g11"
           style="display:inline"
           inkscape:label="Eye 2"
           transform="matrix(-1,0,0,1,197.36227,-2.8625995)"><path
             id="path8"
             style="display:inline;fill:#ffffff;fill-opacity:1;stroke-width:0.236752"
             d="m 134.51134,142.2823 c -0.27907,8.37619 -4.30454,17.6999 -11.46299,18.22037 -9.99468,0.72669 -16.45653,-8.96493 -16.45653,-21.6127 0,-12.64775 5.43971,-20.58659 15.45461,-20.23528 7.41869,0.26024 12.70605,16.3899 12.46491,23.62761 z"
             sodipodi:nodetypes="sssss" /><path
             style="display:inline;stroke-linecap:round;stroke-linejoin:round"
             d="m 119.47266,117.28516 c -3.06446,-0.11707 -5.85353,1.34941 -8.38609,3.60348 -3.37676,3.00543 -5.03626,7.61168 -5.86246,14.65042 -0.22794,1.94773 1.69337,2.29726 1.92237,0.34961 0.76557,-6.52209 2.99082,-10.79976 5.65821,-13.17383 2.66738,-2.37406 5.7622,-2.96848 8.85742,-2.04882 6.19044,1.83931 12.45965,10.29397 11.51367,24.83789 -0.0547,0.82687 0.57155,1.5414 1.39844,1.5957 0.82758,0.0546 1.54242,-0.57272 1.5957,-1.40039 1.00677,-15.47861 -5.64231,-25.52825 -13.65234,-27.9082 -1.00126,-0.2975 -2.02344,-0.46684 -3.04492,-0.50586 z"
             id="path11"
             sodipodi:nodetypes="ssccsscccss" /><g
             id="g10"
             inkscape:label="Pupil"
             transform="matrix(-0.84632829,0.17890332,0.16770157,0.98080679,198.40931,-16.69217)"
             style="display:inline"><path
               id="path22"
               style="fill:url(#linearGradient11);fill-opacity:0.677382;stroke:none;stroke-width:0.268337;stroke-dasharray:none"
               d="m 133.19566,138.631 a 11.366195,16.257384 4.2902238e-6 0 1 -11.36619,16.25739 11.366195,16.257384 4.2902238e-6 0 1 -11.3662,-16.25739 11.366195,16.257384 4.2902238e-6 0 1 11.3662,-16.2574 11.366195,16.257384 4.2902238e-6 0 1 11.36619,16.2574 z" /><ellipse
               style="fill:#242424;fill-opacity:1;stroke:none;stroke-width:0.283998"
               id="ellipse22"
               cx="121.17834"
               cy="138.86256"
               rx="6.9833469"
               ry="10.195683" /><path
               id="path23"
               style="fill:url(#linearGradient12);fill-opacity:0.677382;stroke:none;stroke-width:0.267912"
               d="m 133.19566,138.631 a 11.366195,16.257384 4.2902238e-6 0 1 -11.36619,16.25739 11.366195,16.257384 4.2902238e-6 0 1 -11.3662,-16.25739 11.366195,16.257384 4.2902238e-6 0 1 11.3662,-16.2574 11.366195,16.257384 4.2902238e-6 0 1 11.36619,16.2574 z" /></g><ellipse
             style="fill:#ffffff;fill-opacity:1;stroke:none;stroke-width:8.63415;stroke-linecap:round;stroke-linejoin:round;stroke-dasharray:none;stroke-opacity:1"
             id="path26"
             cx="-120.92749"
             cy="129.16736"
             transform="scale(-1,1)"
             rx="1.9720592"
             ry="2.4320965" /></g></g></g></g></svg>
