<?xml version="1.0" encoding="UTF-8" standalone="no"?>
<!-- Created with Inkscape (http://www.inkscape.org/) -->

<svg
   width="37.747219mm"
   height="88.453117mm"
   viewBox="0 0 37.747221 88.453119"
   version="1.1"
   id="svg1"
   xml:space="preserve"
   inkscape:version="1.4.2 (f4327f4, 2025-05-13)"
   sodipodi:docname="kaklik_closeup.svg"
   inkscape:export-filename="inomeado.png"
   inkscape:export-xdpi="96"
   inkscape:export-ydpi="96"
   xmlns:inkscape="http://www.inkscape.org/namespaces/inkscape"
   xmlns:sodipodi="http://sodipodi.sourceforge.net/DTD/sodipodi-0.dtd"
   xmlns:xlink="http://www.w3.org/1999/xlink"
   xmlns="http://www.w3.org/2000/svg"
   xmlns:svg="http://www.w3.org/2000/svg"><sodipodi:namedview
     id="namedview1"
     pagecolor="#505050"
     bordercolor="#eeeeee"
     borderopacity="1"
     inkscape:showpageshadow="0"
     inkscape:pageopacity="0"
     inkscape:pagecheckerboard="0"
     inkscape:deskcolor="#505050"
     inkscape:document-units="mm"
     inkscape:zoom="1.0167041"
     inkscape:cx="-41.80174"
     inkscape:cy="122.45451"
     inkscape:window-width="1920"
     inkscape:window-height="1009"
     inkscape:window-x="-8"
     inkscape:window-y="-8"
     inkscape:window-maximized="1"
     inkscape:current-layer="svg1" /><defs
     id="defs1"><linearGradient
       id="linearGradient25"
       inkscape:collect="always"><stop
         style="stop-color:#ee0033;stop-opacity:1;"
         offset="0"
         id="stop25" /><stop
         style="stop-color:#b20037;stop-opacity:1"
         offset="1"
         id="stop26" /></linearGradient><linearGradient
       id="linearGradient15"
       inkscape:collect="always"><stop
         style="stop-color:#f9c8c7;stop-opacity:1;"
         offset="0.97259653"
         id="stop15" /><stop
         style="stop-color:#860c10;stop-opacity:1;"
         offset="1"
         id="stop16" /></linearGradient><linearGradient
       id="linearGradient5"
       inkscape:collect="always"><stop
         style="stop-color:#292929;stop-opacity:1;"
         offset="0"
         id="stop5" /><stop
         style="stop-color:#626262;stop-opacity:1;"
         offset="1"
         id="stop6" /></linearGradient><linearGradient
       id="linearGradient2"
       inkscape:collect="always"><stop
         style="stop-color:#000000;stop-opacity:1;"
         offset="0.24707136"
         id="stop2" /><stop
         style="stop-color:#000000;stop-opacity:0.72941176;"
         offset="0.46858358"
         id="stop7" /><stop
         style="stop-color:#000000;stop-opacity:0;"
         offset="0.99893504"
         id="stop3" /></linearGradient><linearGradient
       inkscape:collect="always"
       xlink:href="#linearGradient2"
       id="linearGradient3"
       x1="122.7891"
       y1="122.6459"
       x2="121.72581"
       y2="154.84851"
       gradientUnits="userSpaceOnUse"
       gradientTransform="matrix(1.012587,-2.4607413e-8,-2.6731867e-8,1.0125868,-1.7080076,-1.8160143)" /><linearGradient
       inkscape:collect="always"
       xlink:href="#linearGradient5"
       id="linearGradient6"
       x1="122.00185"
       y1="122.5999"
       x2="122.00184"
       y2="154.61848"
       gradientUnits="userSpaceOnUse"
       gradientTransform="matrix(1.012587,-2.4607413e-8,-2.6731867e-8,1.0125868,-1.7080076,-1.8160143)" /><linearGradient
       inkscape:collect="always"
       xlink:href="#linearGradient5"
       id="linearGradient11"
       gradientUnits="userSpaceOnUse"
       gradientTransform="matrix(1.012587,-2.4607413e-8,-2.6731867e-8,1.0125868,-1.7080076,-1.8160143)"
       x1="122.00185"
       y1="122.5999"
       x2="122.00184"
       y2="154.61848" /><linearGradient
       inkscape:collect="always"
       xlink:href="#linearGradient2"
       id="linearGradient12"
       gradientUnits="userSpaceOnUse"
       gradientTransform="matrix(1.012587,-2.4607413e-8,-2.6731867e-8,1.0125868,-1.7080076,-1.8160143)"
       x1="122.7891"
       y1="122.6459"
       x2="121.72581"
       y2="154.84851" /><radialGradient
       inkscape:collect="always"
       xlink:href="#linearGradient15"
       id="radialGradient16"
       cx="110.63863"
       cy="184.06361"
       fx="110.63863"
       fy="184.06361"
       r="11.096799"
       gradientTransform="matrix(1.9681518,-0.68108764,0.37023081,1.0494065,-176.43623,67.234036)"
       gradientUnits="userSpaceOnUse" /><linearGradient
       inkscape:collect="always"
       xlink:href="#linearGradient25"
       id="linearGradient26"
       x1="91.639412"
       y1="81.474449"
       x2="79.785828"
       y2="127.29416"
       gradientUnits="userSpaceOnUse" /><clipPath
       clipPathUnits="userSpaceOnUse"
       id="clipPath9"><rect
         style="fill:#fbb010;fill-opacity:1;stroke:none;stroke-width:1.05376;stroke-dasharray:none;stroke-opacity:1"
         id="rect9"
         width="48.971191"
         height="28.760324"
         x="-4.9016471"
         y="32.559925" /></clipPath><clipPath
       clipPathUnits="userSpaceOnUse"
       id="clipPath10"><rect
         style="fill:#fbb010;fill-opacity:1;stroke:none;stroke-width:1.05376;stroke-dasharray:none;stroke-opacity:1"
         id="rect11"
         width="48.179913"
         height="35.602936"
         x="-5.253325"
         y="26.679558" /></clipPath><clipPath
       clipPathUnits="userSpaceOnUse"
       id="clipPath13"><path
         id="path14"
         style="fill:#ff9c2d;stroke-width:0.983096"
         d="M 1.7849885,34.442375 H 35.134812 L 34.786815,62.513827 26.428847,63.24839 25.854862,66.886766 8.7622063,67.166075 8.860951,63.007547 2.1329866,62.372763 Z"
         sodipodi:nodetypes="ccccccccc" /></clipPath><clipPath
       clipPathUnits="userSpaceOnUse"
       id="clipPath25"><path
         id="path27"
         style="fill:#04117c;fill-opacity:1;stroke-width:0.589858;stroke-dasharray:none;stroke-opacity:0.561214"
         d="M 2.4229851,91.431648 H 30.08884 V 102.364 H 2.4229851 Z" /></clipPath></defs><g
     id="g3"
     inkscape:label="Body"
     transform="matrix(1.1843672,0,0,0.89463237,-3.737557,0.6105639)"
     style="fill:#4e4e4e;fill-opacity:1;stroke-width:0.971481;stroke-dasharray:none"><g
       id="g22"
       style="stroke-width:0.971481;stroke-dasharray:none"><path
         style="display:inline;fill:#ffe1c2;fill-opacity:1;stroke:#000000;stroke-width:0.971481;stroke-dasharray:none;stroke-opacity:1"
         d="m 24.711843,42.18503 1.541142,23.943422 c 1.05873,2.00839 4.350356,1.473723 5.409086,0 C 31.249431,47.143022 30.962734,42.206731 29.637908,35.437144 19.803804,31.809582 17.259218,29.991589 7.9130475,35.146838 3.9550595,39.20491 3.7119012,62.701563 4.4167649,65.943984 c 3.832046,1.651709 4.4294567,-0.211325 4.2352202,0.184015 L 9.7669496,43.105104 8.6519851,67.512016 H 26.193985 Z"
         id="path3"
         sodipodi:nodetypes="ccccccccccc" /><path
         style="display:inline;fill:#ffa71a;fill-opacity:1;stroke:#000000;stroke-width:0.971481;stroke-dasharray:none;stroke-opacity:1"
         d="m 24.711843,42.18503 1.541142,23.943422 c 1.05873,2.00839 4.350356,1.473723 5.409086,0 C 31.249431,47.143022 30.962734,42.206731 29.637908,35.437144 19.803804,31.809582 17.259218,29.991589 7.9130475,35.146838 3.9550595,39.20491 3.7119012,62.701563 4.4167649,65.943984 c 3.832046,1.651709 4.4294567,-0.211325 4.2352202,0.184015 L 9.7669496,43.105104 8.6519851,67.512016 H 26.193985 Z"
         id="path13"
         sodipodi:nodetypes="ccccccccccc"
         clip-path="url(#clipPath13)" /><path
         style="font-weight:bold;font-size:22.1961px;font-family:Dubai;-inkscape-font-specification:'Dubai, Bold';fill:#e8e8f8;fill-opacity:1;stroke-width:0.971481;stroke-dasharray:none;stroke-opacity:0.561214"
         d="M 14.759221,51.140044 17.59191,55.4013 v 0.102067 H 15.776891 L 13.15403,51.407968 v 4.095399 h -1.489784 v -8.267348 h 1.489784 v 3.827476 l 2.612369,-3.827476 h 1.678631 v 0.102066 z m 5.161794,2.806816 h 3.084484 v 1.556507 H 18.43123 v -8.267348 h 1.489785 z"
         id="text27"
         aria-label="KL" /><g
         id="g33"
         transform="matrix(0.59519356,0,0,0.59519356,6.2280269,14.685937)"
         style="stroke-width:1.63221;stroke-dasharray:none"><path
           style="baseline-shift:baseline;display:inline;overflow:visible;opacity:1;fill:#737e80;fill-opacity:1;stroke-width:1.63221;stroke-linecap:round;stroke-linejoin:round;stroke-dasharray:none;enable-background:accumulate;stop-color:#000000;stop-opacity:1"
           d="m 15.011719,43.703125 a 0.49154785,0.49154785 0 0 0 -0.521485,0.458984 l -0.117187,1.798828 a 0.49154785,0.49154785 0 0 0 0.458984,0.521485 0.49154785,0.49154785 0 0 0 0.521485,-0.458985 l 0.117187,-1.798828 a 0.49154785,0.49154785 0 0 0 -0.458984,-0.521484 z"
           id="path33" /><path
           style="baseline-shift:baseline;display:inline;overflow:visible;opacity:1;fill:#906116;fill-opacity:1;stroke-width:1.63221;stroke-linecap:round;stroke-linejoin:round;stroke-dasharray:none;enable-background:accumulate;stop-color:#000000;stop-opacity:1"
           d="m 15.751953,36.28125 a 0.491548,0.491548 0 0 0 -0.537109,0.441406 l -0.685547,7.052735 a 0.491548,0.491548 0 0 0 0.441406,0.537109 0.491548,0.491548 0 0 0 0.53711,-0.441406 l 0.685546,-7.052735 A 0.491548,0.491548 0 0 0 15.751953,36.28125 Z"
           id="path30" /></g><g
         id="g35"
         transform="matrix(-0.59519356,0,0,0.59519356,26.882485,14.685937)"
         style="stroke-width:1.63221;stroke-dasharray:none"><path
           style="baseline-shift:baseline;display:inline;overflow:visible;opacity:1;fill:#737e80;fill-opacity:1;stroke-width:1.63221;stroke-linecap:round;stroke-linejoin:round;stroke-dasharray:none;enable-background:accumulate;stop-color:#000000;stop-opacity:1"
           d="m 15.011719,43.703125 a 0.49154785,0.49154785 0 0 0 -0.521485,0.458984 l -0.117187,1.798828 a 0.49154785,0.49154785 0 0 0 0.458984,0.521485 0.49154785,0.49154785 0 0 0 0.521485,-0.458985 l 0.117187,-1.798828 a 0.49154785,0.49154785 0 0 0 -0.458984,-0.521484 z"
           id="path34" /><path
           style="baseline-shift:baseline;display:inline;overflow:visible;opacity:1;fill:#906116;fill-opacity:1;stroke-width:1.63221;stroke-linecap:round;stroke-linejoin:round;stroke-dasharray:none;enable-background:accumulate;stop-color:#000000;stop-opacity:1"
           d="m 15.751953,36.28125 a 0.491548,0.491548 0 0 0 -0.537109,0.441406 l -0.685547,7.052735 a 0.491548,0.491548 0 0 0 0.441406,0.537109 0.491548,0.491548 0 0 0 0.53711,-0.441406 l 0.685546,-7.052735 A 0.491548,0.491548 0 0 0 15.751953,36.28125 Z"
           id="path35" /></g></g><g
       id="g23"
       style="stroke-width:0.971481;stroke-dasharray:none"><path
         style="baseline-shift:baseline;display:inline;overflow:visible;opacity:1;fill:#04117c;fill-opacity:1;stroke-width:0.971481;stroke-dasharray:none;enable-background:accumulate;stop-color:#000000;stop-opacity:1"
         d="M 8.6519851,67.212895 8.0898823,91.455 c -1.7964847,0.540046 -2.1673009,1.679763 -1.9805908,4.141381 1.5221809,4.041804 6.6354055,1.027524 9.9092975,0.247824 L 16.39475,72.977867 c 0.729097,-0.419438 1.418539,-0.30842 2.093223,0 L 18.642227,91.455 c -2.141361,0.542682 -2.125424,1.621452 -1.5084,4.291 1.620062,2.853759 5.477849,1.002091 9.373657,-0.276 L 26.193985,67.127784 Z"
         id="path17" /><path
         style="baseline-shift:baseline;display:inline;overflow:visible;opacity:1;fill:#070a2d;fill-opacity:1;stroke-width:0.971481;stroke-dasharray:none;enable-background:accumulate;stop-color:#000000;stop-opacity:1"
         d="M 8.6519851,67.212895 8.0898823,91.455 c -1.7964847,0.540046 -2.1673009,1.679763 -1.9805908,4.141381 1.5221809,4.041804 6.6354055,1.027524 9.9092975,0.247824 L 16.39475,72.977867 c 0.729097,-0.419438 1.418539,-0.30842 2.093223,0 L 18.642227,91.455 c -2.141361,0.542682 -2.125424,1.621452 -1.5084,4.291 1.620062,2.853759 5.477849,1.002091 9.373657,-0.276 L 26.193985,67.127784 Z"
         id="path25"
         clip-path="url(#clipPath25)"
         sodipodi:nodetypes="ccccccccccc" /><g
         id="g21"
         style="stroke-width:0.971481;stroke-dasharray:none"><path
           style="fill:none;fill-opacity:1;stroke:#000000;stroke-width:0.971481;stroke-dasharray:none;stroke-opacity:0.561214"
           d="m 8.369118,71.700114 c 3.220303,-0.531455 4.092779,-2.827107 4.285751,-4.862631"
           id="path15"
           sodipodi:nodetypes="cc" /><path
           style="fill:none;fill-opacity:1;stroke:#000000;stroke-width:0.971481;stroke-dasharray:none;stroke-opacity:0.561214"
           d="M 26.393398,71.575431 C 23.173095,71.043976 22.997823,68.92288 22.804851,66.887356"
           id="path21"
           sodipodi:nodetypes="cc" /></g><path
         style="baseline-shift:baseline;display:inline;overflow:visible;opacity:1;fill:#000000;fill-opacity:1;stroke-width:0.971481;stroke-dasharray:none;enable-background:accumulate;stop-color:#000000;stop-opacity:1"
         d="M 26.71875,66.595703 8.1347656,66.685547 7.5683594,91.130859 c -0.7754529,0.314508 -1.3909953,0.771123 -1.6972657,1.458985 -0.3583826,0.804902 -0.3868378,1.783538 -0.2910156,3.046875 l 0.00586,0.07617 0.027344,0.07031 c 0.4226858,1.122346 1.1622002,1.840409 2.0429688,2.164063 0.8807686,0.323653 1.8584348,0.283731 2.8476561,0.101562 1.978443,-0.364338 4.088996,-1.320852 5.636719,-1.689453 l 0.400391,-0.0957 0.01758,-1.082031 c 0.05342,0.257157 -0.0079,0.395851 0.05859,0.683593 l 0.01758,0.07617 0.03906,0.06641 c 0.461734,0.81335 1.13291,1.339451 1.898438,1.583985 0.765528,0.244534 1.603169,0.22865 2.478515,0.08789 1.750694,-0.281518 3.695983,-1.075463 5.621094,-1.707031 l 0.369141,-0.121094 z m -1.048828,1.064453 0.304687,27.419922 c -1.831672,0.615886 -3.639455,1.321145 -5.091797,1.554688 -0.778583,0.125199 -1.453087,0.118223 -1.988281,-0.05273 -0.516476,-0.164979 -0.915034,-0.486625 -1.255859,-1.058594 -0.279036,-1.237335 -0.402084,-2.122293 -0.275391,-2.578125 0.06589,-0.237073 0.165631,-0.386215 0.373047,-0.542968 0.207416,-0.156753 0.540491,-0.308232 1.035156,-0.433594 l 0.404297,-0.101563 -0.160156,-19.230468 -0.306641,-0.140625 c -0.755092,-0.345177 -1.688848,-0.48815 -2.578125,0.02344 l -0.261718,0.148438 -0.375,22.78125 C 13.847999,95.89594 11.959718,96.704119 10.310547,97.00782 9.4219531,97.171451 8.6298679,97.176686 8.0214844,96.953125 7.4321087,96.736549 6.9783947,96.316436 6.6425781,95.474609 6.5643156,94.33855 6.6177946,93.520192 6.8398437,93.021484 7.0693129,92.506113 7.4327346,92.206222 8.2421875,91.962891 L 8.6113281,91.851562 9.1699219,67.740234 Z m -8.216797,5.564453 c 0.160699,0.0079 0.338245,0.08645 0.509766,0.146485 l 0.148437,17.74414 c -0.369437,0.124491 -0.746557,0.239536 -1.013672,0.441407 -0.242539,0.183297 -0.350325,0.461568 -0.490234,0.71875 l 0.310547,-18.908204 c 0.180305,-0.06741 0.362349,-0.151062 0.535156,-0.142578 z"
         id="path18"
         sodipodi:nodetypes="cccscccssccccccsssccccsscsscccccccsscsccccsccsccs" /></g></g><g
     inkscape:label="Head"
     inkscape:groupmode="layer"
     id="layer1"
     style="display:inline"
     transform="matrix(0.27321982,0,0,0.27321982,-12.03615,-19.610103)"><path
       style="display:inline;fill:#ffe1c2;fill-opacity:1;stroke:#000000;stroke-width:3.66006;stroke-linecap:round;stroke-linejoin:round;stroke-dasharray:none;stroke-opacity:1"
       d="m 49.705138,137.40478 v 38.25474 c 33.376686,30.10816 76.540642,31.25308 108.410752,-0.0604 l 1.14874,-75.14786 C 140.45553,80.430244 78.449467,69.961831 49.705138,100.97169 Z"
       id="path16"
       sodipodi:nodetypes="cccccc"
       inkscape:label="Face Color" /><g
       id="g18"
       inkscape:label="Hair"
       transform="matrix(0.98685581,0,0,1.051324,0.57904087,-6.7790797)"
       style="stroke-width:3.59329;stroke-dasharray:none"><path
         style="display:inline;fill:url(#linearGradient26);stroke-width:3.59329;stroke-linecap:round;stroke-linejoin:round;stroke-dasharray:none"
         d="m 45.635687,108.75279 c 3.3362,6.78618 6.243151,13.02458 3.918208,26.71373 3.979799,-5.96573 8.786475,-11.49913 9.460981,-15.81221 l 11.031645,15.55197 5.799177,-14.49636 24.356932,9.41091 c -3.717298,-5.89769 -5.984556,-11.17394 -7.275123,-16.03161 8.376483,6.59105 15.866443,15.10291 26.156263,17.54838 -2.82091,-6.55251 -5.78806,-13.14158 -5.91463,-19.0205 l 17.66543,12.69702 17.88485,3.32152 c 2.97599,8.42391 6.21849,13.35302 10.45344,18.94428 -2.42922,9.64863 -1.47293,17.6045 -1.2881,25.9461 5.17157,-3.15029 12.94767,-11.41353 15.08922,-24.84201 18.2014,-22.78886 6.69427,-63.180924 -5.15242,-67.901483 C 157.67308,78.929105 147.46035,76.047755 137.64312,79.494424 121.13076,73.690805 116.78127,77.423403 108.394,77.869861 82.280199,76.469327 49.944225,83.884655 49.499998,99.736059 Z"
         id="path19"
         inkscape:label="Hair Color"
         sodipodi:nodetypes="ccccccccccccccccccc" /><path
         style="fill:#f91b2d;stroke-width:3.59329;stroke-linecap:round;stroke-linejoin:round;stroke-dasharray:none"
         d="m 52.386719,96.976562 c -1.332708,-0.360797 -2.70557,0.427069 -3.066407,1.759766 -0.360926,1.332112 0.425908,2.704702 1.757813,3.066402 23.498783,6.37355 50.597105,8.25259 75.517475,1.8097 2.89473,-0.74846 2.06518,-2.99816 -0.23987,-2.40164 -23.74025,6.13778 -50.74963,2.06354 -73.969011,-4.234228 z"
         id="path24"
         sodipodi:nodetypes="cccscc"
         inkscape:label="Hair Line" /><path
         style="display:inline;stroke-width:3.59329;stroke-linecap:round;stroke-linejoin:round;stroke-dasharray:none"
         d="m 119.92188,74.773437 c -4.36642,0.256697 -7.62964,1.300397 -11.59766,1.513672 -13.201874,-0.690644 -27.872466,0.811432 -39.486329,4.539063 -5.829106,1.870932 -10.896269,4.295445 -14.63086,7.390625 -3.606804,2.989272 -5.945973,6.72713 -6.21875,11.029297 l -3.80664,8.882816 a 1.5826582,1.5826582 0 0 0 0.0332,1.32226 c 3.327364,6.76821 6.05449,12.35378 3.779297,25.75 a 1.5826582,1.5826582 0 0 0 2.876953,1.14453 c 1.952027,-2.92609 4.143516,-5.79468 5.96875,-8.52539 1.08722,-1.62657 1.960415,-3.19483 2.65625,-4.75195 l 9.259765,13.05273 a 1.5826582,1.5826582 0 0 0 2.759766,-0.32617 l 5.21875,-13.04492 22.898437,8.84766 a 1.5826582,1.5826582 0 0 0 1.908211,-2.32032 c -2.322377,-3.68456 -3.891771,-7.02747 -5.166023,-10.23437 6.675603,5.76595 13.372803,12.00274 22.343753,14.13476 a 1.5826582,1.5826582 0 0 0 1.81836,-2.16601 c -2.25081,-5.22827 -4.44503,-10.37842 -5.33203,-14.98242 l 14.70508,10.57031 a 1.5826582,1.5826582 0 0 0 0.63476,0.26953 l 17.03125,3.16406 c 2.83757,7.7301 6.02477,12.69651 9.92969,17.90039 -2.26584,9.599 -1.38105,17.59706 -1.20313,25.62696 a 1.5826582,1.5826582 0 0 0 2.40625,1.3164 c 5.56477,-3.38981 13.43549,-11.8763 15.74414,-25.55468 9.25149,-11.84648 10.88721,-27.89054 8.77735,-41.60547 -1.06497,-6.92274 -3.08362,-13.268069 -5.63867,-18.259769 -2.55505,-4.991699 -5.58284,-8.709734 -9.1836,-10.144531 a 1.5826582,1.5826582 0 0 0 -0.30273,-0.08594 c -9.86956,-1.802481 -20.21069,-4.732816 -30.43164,-1.376953 -8.09654,-2.787947 -13.4738,-3.327679 -17.75195,-3.076172 z m 0.0996,3.13086 c 4.02809,-0.270009 8.98261,0.231779 17.09766,3.083984 a 1.5826582,1.5826582 0 0 0 1.04883,0 c 9.16704,-3.218399 18.9822,-0.555659 29.15234,1.314453 2.30771,0.964334 5.11676,4.029372 7.45508,8.597657 2.36562,4.621621 4.3087,10.684869 5.32617,17.298829 2.03494,13.22791 0.35141,28.58692 -8.36328,39.49805 a 1.5826582,1.5826582 0 0 0 -0.32617,0.73828 c -1.75999,11.03594 -7.44221,18.19243 -12.0293,21.91211 -0.27073,-7.24824 -0.73278,-14.21067 1.32422,-22.38086 a 1.5826582,1.5826582 0 0 0 -0.27344,-1.3418 c -4.19941,-5.54434 -7.30234,-10.24931 -10.22265,-18.51563 a 1.5826582,1.5826582 0 0 0 -1.20313,-1.02929 l -17.53711,-3.25781 -17.3789,-12.49024 a 1.5826582,1.5826582 0 0 0 -2.50391,1.31836 c 0.11546,5.3627 2.38562,10.93233 4.75391,16.45313 -8.17448,-3.12801 -14.8412,-10.28219 -22.43555,-16.25782 a 1.5826582,1.5826582 0 0 0 -2.507813,1.65039 c 1.03563,3.8981 2.924027,8.13769 5.375,12.60352 l -20.357421,-7.86523 a 1.5826582,1.5826582 0 0 0 -2.039063,0.88867 l -4.720703,11.79882 -9.351563,-13.18359 a 1.5826582,1.5826582 0 0 0 -2.853515,0.67188 c -0.264553,1.69166 -1.500507,4.04469 -3.242188,6.65039 -0.743558,1.11242 -1.686991,2.43678 -2.548828,3.64062 0.591527,-9.54508 -1.620659,-15.48024 -4.294922,-20.96679 l 3.589844,-8.375 a 1.5826582,1.5826582 0 0 0 0.126953,-0.57813 c 0.09609,-3.428903 1.875132,-6.417318 5.144531,-9.126953 3.2694,-2.709635 8.003484,-5.025195 13.578125,-6.814453 11.149283,-3.578517 25.631033,-5.081023 38.503903,-4.390625 a 1.5826582,1.5826582 0 0 0 0.16993,0 c 4.41289,-0.234901 7.51488,-1.274913 11.54296,-1.544922 z"
         id="path20"
         inkscape:label="Hair Outline" /></g><g
       id="g17"
       inkscape:label="Eyes"><g
         id="g1"
         style="display:inline"
         inkscape:label="Eye 1"><path
           id="path1"
           style="fill:#ffffff;fill-opacity:1;stroke-width:0.247178"
           d="m 144.3996,139.81005 c -0.30419,8.37619 -8.94691,20.69262 -19.86997,20.69262 -10.92307,0 -17.93781,-8.96493 -17.93781,-21.6127 0,-12.64775 10.60303,-21.7967 21.5261,-21.7967 10.92306,0 16.54452,15.47907 16.28168,22.71678 z"
           sodipodi:nodetypes="sssss" /><g
           id="g4"
           inkscape:label="Pupil"
           transform="matrix(0.98400323,0.17890332,-0.19498212,0.9808068,28.735653,-18.77406)"><path
             id="path2"
             style="fill:url(#linearGradient6);fill-opacity:0.677382;stroke:none;stroke-width:0.268337;stroke-dasharray:none"
             d="m 133.19566,138.631 a 11.366195,16.257384 4.2902238e-6 0 1 -11.36619,16.25739 11.366195,16.257384 4.2902238e-6 0 1 -11.3662,-16.25739 11.366195,16.257384 4.2902238e-6 0 1 11.3662,-16.2574 11.366195,16.257384 4.2902238e-6 0 1 11.36619,16.2574 z" /><ellipse
             style="fill:#242424;fill-opacity:1;stroke:none;stroke-width:0.283998"
             id="path4"
             cx="121.17834"
             cy="138.86256"
             rx="6.9833469"
             ry="10.195683" /><path
             id="path5"
             style="fill:url(#linearGradient3);fill-opacity:0.677382;stroke:none;stroke-width:0.267912"
             d="m 133.19566,138.631 a 11.366195,16.257384 4.2902238e-6 0 1 -11.36619,16.25739 11.366195,16.257384 4.2902238e-6 0 1 -11.3662,-16.25739 11.366195,16.257384 4.2902238e-6 0 1 11.3662,-16.2574 11.366195,16.257384 4.2902238e-6 0 1 11.36619,16.2574 z" /></g><path
           style="stroke-linecap:round;stroke-linejoin:round"
           d="m 126.62109,115.91602 c -3.88622,0.0452 -7.22682,1.64021 -10.24699,3.55096 -1.65683,1.04866 -0.51393,3.07675 1.14348,2.02911 4.95029,-3.13186 13.0969,-3.61445 18.64844,0.13086 5.55154,3.74532 9.06234,11.62877 4.61718,26.40625 -0.23782,0.79277 0.21144,1.62836 1.00391,1.86719 0.79339,0.23908 1.63033,-0.21044 1.86914,-1.00391 4.66408,-15.50527 0.91719,-25.2157 -5.8125,-29.75585 -3.36485,-2.27008 -7.33643,-3.26984 -11.22266,-3.22461 z"
           id="path7"
           sodipodi:nodetypes="sccscscss" /></g><ellipse
         style="display:inline;fill:#ffffff;fill-opacity:1;stroke:none;stroke-width:9.50158;stroke-linecap:round;stroke-linejoin:round;stroke-dasharray:none;stroke-opacity:1"
         id="path26-5"
         cx="118.20382"
         cy="128.28862"
         rx="2.3170869"
         ry="2.5067503" /><g
         id="g11"
         style="display:inline"
         inkscape:label="Eye 2"
         transform="matrix(-1,0,0,1,197.36227,-2.8625995)"><path
           id="path8"
           style="display:inline;fill:#ffffff;fill-opacity:1;stroke-width:0.236752"
           d="m 134.51134,142.2823 c -0.27907,8.37619 -4.30454,17.6999 -11.46299,18.22037 -9.99468,0.72669 -16.45653,-8.96493 -16.45653,-21.6127 0,-12.64775 5.43971,-20.58659 15.45461,-20.23528 7.41869,0.26024 12.70605,16.3899 12.46491,23.62761 z"
           sodipodi:nodetypes="sssss" /><path
           style="display:inline;stroke-linecap:round;stroke-linejoin:round"
           d="m 119.47266,117.28516 c -3.06446,-0.11707 -5.85353,1.34941 -8.38609,3.60348 -3.37676,3.00543 -5.03626,7.61168 -5.86246,14.65042 -0.22794,1.94773 1.69337,2.29726 1.92237,0.34961 0.76557,-6.52209 2.99082,-10.79976 5.65821,-13.17383 2.66738,-2.37406 5.7622,-2.96848 8.85742,-2.04882 6.19044,1.83931 12.45965,10.29397 11.51367,24.83789 -0.0547,0.82687 0.57155,1.5414 1.39844,1.5957 0.82758,0.0546 1.54242,-0.57272 1.5957,-1.40039 1.00677,-15.47861 -5.64231,-25.52825 -13.65234,-27.9082 -1.00126,-0.2975 -2.02344,-0.46684 -3.04492,-0.50586 z"
           id="path11"
           sodipodi:nodetypes="ssccsscccss" /><g
           id="g10"
           inkscape:label="Pupil"
           transform="matrix(-0.84632829,0.17890332,0.16770157,0.98080679,198.40931,-16.69217)"
           style="display:inline"><path
             id="path22"
             style="fill:url(#linearGradient11);fill-opacity:0.677382;stroke:none;stroke-width:0.268337;stroke-dasharray:none"
             d="m 133.19566,138.631 a 11.366195,16.257384 4.2902238e-6 0 1 -11.36619,16.25739 11.366195,16.257384 4.2902238e-6 0 1 -11.3662,-16.25739 11.366195,16.257384 4.2902238e-6 0 1 11.3662,-16.2574 11.366195,16.257384 4.2902238e-6 0 1 11.36619,16.2574 z" /><ellipse
             style="fill:#242424;fill-opacity:1;stroke:none;stroke-width:0.283998"
             id="ellipse22"
             cx="121.17834"
             cy="138.86256"
             rx="6.9833469"
             ry="10.195683" /><path
             id="path23"
             style="fill:url(#linearGradient12);fill-opacity:0.677382;stroke:none;stroke-width:0.267912"
             d="m 133.19566,138.631 a 11.366195,16.257384 4.2902238e-6 0 1 -11.36619,16.25739 11.366195,16.257384 4.2902238e-6 0 1 -11.3662,-16.25739 11.366195,16.257384 4.2902238e-6 0 1 11.3662,-16.2574 11.366195,16.257384 4.2902238e-6 0 1 11.36619,16.2574 z" /></g><ellipse
           style="fill:#ffffff;fill-opacity:1;stroke:none;stroke-width:8.63415;stroke-linecap:round;stroke-linejoin:round;stroke-dasharray:none;stroke-opacity:1"
           id="path26"
           cx="-120.92749"
           cy="129.16736"
           transform="scale(-1,1)"
           rx="1.9720592"
           ry="2.4320965" /></g></g><path
       style="display:inline;fill:url(#radialGradient16);stroke:none;stroke-width:3.65453;stroke-linecap:round;stroke-linejoin:round;stroke-dasharray:none;stroke-opacity:1"
       d="m 89.321493,176.3079 c 2.084363,-3.00224 20.452257,-7.34069 24.554427,-6.80069 5.38616,6.15147 0.5646,18.57231 -8.9291,18.99956 -7.374906,-5.6e-4 -13.049586,-5.54527 -15.625327,-12.19887 z"
       id="path12"
       sodipodi:nodetypes="cccc"
       inkscape:label="Mounth" /></g></svg>
