<?xml version="1.0" encoding="UTF-8" standalone="no"?>
<!-- Created with Inkscape (http://www.inkscape.org/) -->

<svg
   width="21.909323mm"
   height="4.9348831mm"
   viewBox="0 0 21.909323 4.9348831"
   version="1.1"
   id="svg878"
   inkscape:version="1.4.2 (f4327f4, 2025-05-13)"
   sodipodi:docname="ak47.svg"
   xmlns:inkscape="http://www.inkscape.org/namespaces/inkscape"
   xmlns:sodipodi="http://sodipodi.sourceforge.net/DTD/sodipodi-0.dtd"
   xmlns="http://www.w3.org/2000/svg"
   xmlns:svg="http://www.w3.org/2000/svg">
  <sodipodi:namedview
     id="namedview880"
     pagecolor="#ffffff"
     bordercolor="#666666"
     borderopacity="1.0"
     inkscape:pageshadow="2"
     inkscape:pageopacity="0.0"
     inkscape:pagecheckerboard="0"
     inkscape:document-units="mm"
     showgrid="false"
     inkscape:zoom="2.015579"
     inkscape:cx="83.846875"
     inkscape:cy="-1.7364737"
     inkscape:window-width="1920"
     inkscape:window-height="1009"
     inkscape:window-x="-8"
     inkscape:window-y="-8"
     inkscape:window-maximized="1"
     inkscape:current-layer="layer1"
     fit-margin-top="0"
     fit-margin-left="0"
     fit-margin-right="0"
     fit-margin-bottom="0"
     inkscape:showpageshadow="2"
     inkscape:deskcolor="#d1d1d1" />
  <defs
     id="defs875" />
  <g
     inkscape:label="Layer 1"
     inkscape:groupmode="layer"
     id="layer1"
     transform="matrix(0.3028593,0,0,0.3028593,-4.8434292,-45.185081)">
    <rect
       style="fill:#242424;fill-opacity:1;stroke:#292929;stroke-width:0;stroke-linecap:square;stroke-linejoin:round;stroke-miterlimit:0"
       id="rect1202"
       width="18.296673"
       height="2.3489537"
       x="70.037254"
       y="151.88962" />
    <rect
       style="fill:#242424;fill-opacity:1;stroke:#292929;stroke-width:0;stroke-linecap:square;stroke-linejoin:round;stroke-miterlimit:0"
       id="rect1202-3"
       width="17.806669"
       height="0.32168487"
       x="70.002579"
       y="154.44989" />
    <path
       id="rect1592"
       style="fill:#242424;stroke:#292929;stroke-width:0;stroke-linecap:square;stroke-linejoin:round;stroke-miterlimit:0"
       d="m 86.270153,150.03787 -0.529157,2.38073 h 1.930606 v -2.38073 z m -0.0925,1.14773 h 1.353399 v 0.59893 h -1.353399 z" />
    <rect
       style="fill:#242424;fill-opacity:1;stroke:#292929;stroke-width:0;stroke-linecap:square;stroke-linejoin:round;stroke-miterlimit:0"
       id="rect2699"
       width="1.1346371"
       height="0.80810452"
       x="-87.832535"
       y="153.96347"
       transform="scale(-1,1)" />
    <rect
       style="fill:#242424;fill-opacity:1;stroke:#292929;stroke-width:0;stroke-linecap:square;stroke-linejoin:round;stroke-miterlimit:0"
       id="rect2803"
       width="6.7564058"
       height="1.7325517"
       x="69.985603"
       y="149.20142" />
    <path
       id="rect2803-7"
       style="fill:#242424;stroke:#292929;stroke-width:0;stroke-linecap:square;stroke-linejoin:round;stroke-miterlimit:0"
       transform="rotate(45)"
       d="m 159.76613,51.236534 h 5.25969 L 165.4,52.302923 159.76613,52.6771 Z"
       sodipodi:nodetypes="ccccc" />
    <rect
       style="fill:#5e3503;fill-opacity:1;stroke:#292929;stroke-width:0;stroke-linecap:square;stroke-linejoin:round;stroke-miterlimit:0"
       id="rect3917"
       width="9.0461111"
       height="2.6555822"
       x="61.003052"
       y="149.20142" />
    <rect
       style="fill:#5e3503;fill-opacity:1;stroke:#292929;stroke-width:0;stroke-linecap:square;stroke-linejoin:round;stroke-miterlimit:0"
       id="rect3917-5"
       width="11.576149"
       height="3.2904265"
       x="58.470623"
       y="151.98296" />
    <rect
       style="fill:#5e3503;fill-opacity:1;stroke:#292929;stroke-width:0;stroke-linecap:square;stroke-linejoin:round;stroke-miterlimit:0"
       id="rect3917-5-9"
       width="2.5331926"
       height="3.290427"
       x="67.506409"
       y="150.87233" />
    <rect
       style="fill:#5e3503;fill-opacity:1;stroke:#292929;stroke-width:0;stroke-linecap:square;stroke-linejoin:round;stroke-miterlimit:0"
       id="rect3917-5-9-1"
       width="2.5331926"
       height="3.290427"
       x="63.445251"
       y="150.42035" />
    <rect
       style="fill:#5e3503;fill-opacity:1;stroke:#292929;stroke-width:0;stroke-linecap:square;stroke-linejoin:round;stroke-miterlimit:0"
       id="rect3917-5-9-1-2"
       width="3.4156699"
       height="3.2904267"
       x="58.470623"
       y="151.72044" />
    <rect
       style="fill:#242424;fill-opacity:1;stroke:#292929;stroke-width:0;stroke-linecap:square;stroke-linejoin:round;stroke-miterlimit:0"
       id="rect4786"
       width="1.6831471"
       height="1.1951463"
       x="70.039597"
       y="150.87233" />
    <rect
       style="fill:#242424;fill-opacity:1;stroke:#292929;stroke-width:0;stroke-linecap:square;stroke-linejoin:round;stroke-miterlimit:0"
       id="rect6812"
       width="2.8766525"
       height="2.6555746"
       x="58.412209"
       y="149.20142" />
    <path
       id="rect7432"
       style="fill:#242424;stroke:#292929;stroke-width:0;stroke-linecap:square;stroke-linejoin:round;stroke-miterlimit:0"
       d="m 50.743579,154.46521 4.688603,-1.1156 c -0.0629,3.56402 0.600222,6.70002 4.631106,7.74372 l -1.431697,4.39594 c -5.000746,-1.60036 -7.931395,-7.28265 -7.888012,-11.02406 z"
       sodipodi:nodetypes="ccccc" />
    <rect
       style="fill:#5e3503;fill-opacity:1;stroke:#292929;stroke-width:0;stroke-linecap:square;stroke-linejoin:round;stroke-miterlimit:0"
       id="rect9189"
       width="4.5077615"
       height="7.6700025"
       x="94.800621"
       y="127.74342"
       transform="rotate(21.512881)" />
    <path
       id="rect9189-2"
       style="fill:#5e3503;stroke:#292929;stroke-width:0;stroke-linecap:square;stroke-linejoin:round;stroke-miterlimit:0"
       transform="matrix(0.46966917,0.8828425,-0.94345846,0.33149078,0,0)"
       d="m 158.07066,36.900291 h 3.5659 l -0.5596,10.072941 -3.36117,-2.141597 z"
       sodipodi:nodetypes="ccccc" />
    <rect
       style="fill:#242424;fill-opacity:1;stroke:#292929;stroke-width:0;stroke-linecap:square;stroke-linejoin:round;stroke-miterlimit:0"
       id="rect7030"
       width="17.884094"
       height="6.0718813"
       x="40.652855"
       y="149.19499" />
    <rect
       style="fill:#434343;fill-opacity:1;stroke:#292929;stroke-width:0;stroke-linecap:square;stroke-linejoin:round;stroke-miterlimit:0"
       id="rect8579"
       width="6.3782125"
       height="1.828289"
       x="51.287495"
       y="149.97025" />
    <rect
       style="fill:#5e5e5e;fill-opacity:1;stroke:#292929;stroke-width:0;stroke-linecap:square;stroke-linejoin:round;stroke-miterlimit:0"
       id="rect9011"
       width="0.46988878"
       height="0.78151405"
       x="57.195812"
       y="151.01703" />
    <path
       id="rect9807"
       style="fill:#242424;fill-opacity:1;stroke:#292929;stroke-width:0;stroke-linecap:square;stroke-linejoin:round;stroke-miterlimit:0"
       d="m 173.27344,586.18164 c -0.62816,0 -1.13477,0.50661 -1.13477,1.13477 v 6.32812 c 0,0.62816 0.50661,1.13477 1.13477,1.13477 h 12.74023 c 0.62816,0 1.13477,-0.50661 1.13477,-1.13477 v -6.32812 c 0,-0.62816 -0.50661,-1.13477 -1.13477,-1.13477 z m 1.30859,0.63477 c 0.0155,-7.8e-4 0.0312,0 0.0469,0 h 10.19531 c 0.50259,0 0.90625,0.40365 0.90625,0.90625 v 5.0625 c 0,0.50259 -0.40366,0.9082 -0.90625,0.9082 h -10.19531 c -0.5026,0 -0.90625,-0.40561 -0.90625,-0.9082 v -5.0625 c 0,-0.48689 0.37871,-0.88205 0.85937,-0.90625 z"
       transform="scale(0.26458333)" />
    <rect
       style="fill:#242424;fill-opacity:1;stroke:#292929;stroke-width:0;stroke-linecap:square;stroke-linejoin:round;stroke-miterlimit:0"
       id="rect9975"
       width="1.1521704"
       height="1.5962566"
       x="49.385658"
       y="155.0862" />
    <path
       id="path10079"
       style="fill:#242424;fill-opacity:1;stroke:#292929;stroke-width:0;stroke-linecap:square;stroke-linejoin:round;stroke-miterlimit:0"
       d="m 46.948168,154.88223 a 0.96031393,0.96031393 0 0 0 -0.692959,1.1682 0.96031393,0.96031393 0 0 0 1.16811,0.69258 0.96031393,0.96031393 0 0 0 0.11864,-0.0393 0.96031393,0.96031393 0 0 1 -0.984591,-0.72032 0.96031393,0.96031393 0 0 1 0.575937,-1.12942 0.96031393,0.96031393 0 0 0 -0.185102,0.0281 z" />
    <path
       id="rect10386"
       style="fill:#242424;stroke:#292929;stroke-width:0;stroke-linecap:square;stroke-linejoin:round;stroke-miterlimit:0"
       d="m 39.427028,151.78361 h 3.092552 v 3.48327 h -1.866725 z"
       sodipodi:nodetypes="ccccc" />
    <path
       id="rect10386-6"
       style="fill:#242424;stroke:#292929;stroke-width:0;stroke-linecap:square;stroke-linejoin:round;stroke-miterlimit:0"
       d="m 39.427028,151.82548 3.092552,-0.0419 v -2.58862 h -1.866725 z"
       sodipodi:nodetypes="ccccc" />
    <path
       id="rect7287"
       style="fill:#5e3503;fill-opacity:1;stroke:#292929;stroke-width:0;stroke-linecap:square;stroke-linejoin:round;stroke-miterlimit:0"
       d="m 16.106739,152.99644 19.208024,-1.36169 -3.701501,6.0622 -15.620921,4.85296 z"
       sodipodi:nodetypes="ccccc" />
    <path
       id="rect8804"
       style="fill:#5e3503;stroke:#292929;stroke-width:0;stroke-linecap:square;stroke-linejoin:round;stroke-miterlimit:0"
       transform="matrix(0.70901349,0.70519491,-0.76093349,0.64882989,0,0)"
       d="m 138.7641,82.886163 2.24536,-0.372398 -0.28498,2.541458 -1.49684,0.374425 z"
       sodipodi:nodetypes="ccccc" />
  </g>
</svg>
