<?xml version="1.0" encoding="UTF-8" standalone="no"?>
<!-- Created with Inkscape (http://www.inkscape.org/) -->

<svg
   width="50mm"
   height="6.879035mm"
   viewBox="0 0 50.000001 6.879035"
   version="1.1"
   id="svg5"
   inkscape:version="1.4 (86a8ad7, 2024-10-11)"
   sodipodi:docname="awms.svg"
   xmlns:inkscape="http://www.inkscape.org/namespaces/inkscape"
   xmlns:sodipodi="http://sodipodi.sourceforge.net/DTD/sodipodi-0.dtd"
   xmlns="http://www.w3.org/2000/svg"
   xmlns:svg="http://www.w3.org/2000/svg">
  <sodipodi:namedview
     id="namedview7"
     pagecolor="#ffffff"
     bordercolor="#666666"
     borderopacity="1.0"
     inkscape:pageshadow="2"
     inkscape:pageopacity="0.0"
     inkscape:pagecheckerboard="0"
     inkscape:document-units="mm"
     showgrid="false"
     inkscape:zoom="2.3949987"
     inkscape:cx="145.9291"
     inkscape:cy="-75.365385"
     inkscape:window-width="1920"
     inkscape:window-height="1009"
     inkscape:window-x="-8"
     inkscape:window-y="-8"
     inkscape:window-maximized="1"
     inkscape:current-layer="layer1"
     fit-margin-top="0"
     fit-margin-left="0"
     fit-margin-right="0"
     fit-margin-bottom="0"
     inkscape:showpageshadow="2"
     inkscape:deskcolor="#d1d1d1" />
  <defs
     id="defs2" />
  <g
     inkscape:label="Layer 1"
     inkscape:groupmode="layer"
     id="layer1"
     transform="matrix(0.19279579,0,0,0.19279579,-0.37184774,-21.53705)">
    <rect
       style="fill:#000000;fill-opacity:1;stroke-width:0.0301805;stroke-linecap:square"
       id="rect880"
       width="7.0686312"
       height="27.515633"
       x="1.928713"
       y="115.93742" />
    <rect
       style="fill:#334736;fill-opacity:1;stroke-width:0.0301805;stroke-linecap:square"
       id="rect880-3"
       width="7.0686312"
       height="27.515633"
       x="8.6654301"
       y="115.93742" />
    <rect
       style="fill:#334736;fill-opacity:1;stroke-width:0.0329871;stroke-linecap:square"
       id="rect1011"
       width="28.117426"
       height="23.083593"
       x="15.401435"
       y="115.93742" />
    <path
       style="fill:#334736;fill-opacity:1;stroke:none;stroke-width:0.136772px;stroke-linecap:butt;stroke-linejoin:miter;stroke-opacity:1"
       d="m 15.606659,141.45214 c 0.689553,-2.62806 1.86088,-2.26776 2.763539,-2.89802 l -2.817331,0.006 z"
       id="path1148"
       sodipodi:nodetypes="cccc" />
    <path
       style="fill:#344736;fill-opacity:1;stroke:none;stroke-width:0.0910403px;stroke-linecap:butt;stroke-linejoin:miter;stroke-opacity:1"
       d="m 45.230188,117.77701 c -1.749338,-0.459 -1.509506,-1.23867 -1.929029,-1.83951 l 0.0041,1.87532 z"
       id="path1148-6"
       sodipodi:nodetypes="cccc" />
    <path
       id="path1775"
       style="fill:#334736;fill-opacity:1;stroke:none;stroke-width:0.136772px;stroke-linecap:butt;stroke-linejoin:miter;stroke-opacity:1"
       d="m 42.92804,117.77162 0.356728,21.05787 c 0,0 3.27799,5.04753 8.138339,5.04491 4.86035,-0.003 6.761275,2.04727 11.286051,2.17536 4.524776,0.12809 5.514831,1.33979 5.514831,1.33979 l 10.040179,-0.13212 4.234322,-10.48814 v -18.99767 z m 20.061788,6.33648 c 4.67545,0.0271 10.131234,0.8945 10.131234,0.8945 0,0 1.260169,7.68343 -3.042727,10.06125 -4.302898,2.37781 -6.421944,3.20916 -11.075727,2.33248 -4.653783,-0.87668 -4.91308,-5.04098 -5.020267,-6.04831 -0.107186,-1.00734 -0.07155,-4.33152 3.199131,-6.34542 1.124295,-0.69227 3.359311,-0.9087 5.808356,-0.8945 z"
       sodipodi:nodetypes="cccscccccscsssss" />
    <rect
       style="fill:#334736;fill-opacity:1;stroke:none;stroke-width:0.0404651;stroke-linecap:square"
       id="rect3017"
       width="49.63847"
       height="5.8325305"
       x="82.166595"
       y="115.98438" />
    <path
       id="rect3017-7"
       style="stroke-width:0.0596278;stroke-linecap:square"
       d="M 82.166595,115.98438 H 230.89395 v 4.2269 H 82.166595 Z" />
    <rect
       style="fill:#000000;fill-opacity:1;stroke:none;stroke-width:0.159395;stroke-linecap:square"
       id="rect3148"
       width="30.776325"
       height="6.7410951"
       x="230.49416"
       y="114.83561" />
    <rect
       style="fill:#000000;fill-opacity:1;stroke:none;stroke-width:0.0540939;stroke-linecap:square"
       id="rect5599"
       width="1.8882544"
       height="3.2579353"
       x="75.761856"
       y="115.24895" />
    <circle
       style="fill:#000000;fill-opacity:1;stroke:none;stroke-width:0.0835304;stroke-linecap:square"
       id="path5791"
       cx="76.682945"
       cy="119.75185"
       r="2.3207855" />
    <path
       style="fill:#000000;fill-opacity:1;stroke:none;stroke-width:0.264583px;stroke-linecap:butt;stroke-linejoin:miter;stroke-opacity:1"
       d="m 88.804139,126.17204 c 0,0 -1.878349,2.35955 -1.732315,3.63794 0.146034,1.2784 2.026161,3.72445 2.026161,3.72445 0,0 -1.556076,-3.41002 -0.847744,-4.67124 0.708335,-1.26121 0.553898,-2.69115 0.553898,-2.69115 v 0 0"
       id="path5940" />
    <path
       style="fill:#1f1f1f;fill-opacity:1;stroke:none;stroke-width:0.264583px;stroke-linecap:butt;stroke-linejoin:miter;stroke-opacity:1"
       d="m 101.31165,132.74742 v 3.35793 l 12.93776,-2.13923 v -2.53416 z"
       id="path6495" />
    <rect
       style="fill:#5e5e5e;fill-opacity:1;stroke:none;stroke-width:0.0649999;stroke-linecap:square"
       id="rect6864"
       width="13.568384"
       height="2.7935684"
       x="99.418274"
       y="116.0183" />
    <rect
       style="fill:#000000;fill-opacity:1;stroke:none;stroke-width:0.0244984;stroke-linecap:square"
       id="rect6971"
       width="49.6759"
       height="1.0255035"
       x="82.166595"
       y="115.15163" />
    <path
       id="path4488"
       style="fill:#334736;fill-opacity:1;stroke:none;stroke-width:0.264583px;stroke-linecap:butt;stroke-linejoin:miter;stroke-opacity:1"
       d="m 141.20482,127.15147 -48.444593,0.0289 c 2.58843,0.44082 3.561197,1.69475 3.523816,3.34347 -0.0454,2.00168 -1.619906,4.50375 -4.698936,4.97696 -3.07903,0.4732 -6.785933,-1.75746 -6.848163,-3.63493 -0.0526,-1.58689 1.496354,-4.02115 4.402318,-4.68291 l -7.304464,0.004 0.134359,7.74889 c 0,0 3.672789,3.46337 8.852688,3.12694 5.179899,-0.33642 8.315772,-4.13567 8.315772,-4.13567 0,0 10.509533,-1.31498 16.742133,-2.14405 6.2326,-0.82907 25.32507,-4.63176 25.32507,-4.63176 z" />
    <rect
       style="fill:#334736;fill-opacity:1;stroke:none;stroke-width:0.196748;stroke-linecap:square"
       id="rect3603"
       width="81.671402"
       height="7.4865284"
       x="82.166595"
       y="120.03242" />
    <path
       id="rect3603-2"
       style="fill:#334736;stroke-width:0.0740231;stroke-linecap:square"
       d="m 147.21962,115.15163 h 16.32841 l -4.7625,5.30056 h -16.32841 z"
       sodipodi:nodetypes="ccccc" />
    <rect
       style="fill:#000000;fill-opacity:1;stroke-width:0.0889076;stroke-linecap:square"
       id="rect4163"
       width="4.6072917"
       height="2.0420771"
       x="77.559303"
       y="115.15163" />
    <rect
       style="fill:#000000;fill-opacity:1;stroke-width:0.0649999;stroke-linecap:square"
       id="rect4393"
       width="32.194637"
       height="2.0009272"
       x="10.340793"
       y="111.70913" />
    <rect
       style="fill:#000000;fill-opacity:1;stroke-width:0.0660942;stroke-linecap:square"
       id="rect4397"
       width="1.5738363"
       height="2.3776639"
       x="32.846001"
       y="113.62104" />
    <rect
       style="fill:#000000;fill-opacity:1;stroke-width:0.0660942;stroke-linecap:square"
       id="rect4397-3"
       width="1.5738363"
       height="2.3776639"
       x="20.252287"
       y="113.56419" />
    <rect
       style="fill:#000000;fill-opacity:1;stroke-width:0.091695;stroke-linecap:square"
       id="rect5300"
       width="3.4479239"
       height="1.7458863"
       x="94.534325"
       y="114.38503" />
    <rect
       style="fill:#000000;fill-opacity:1;stroke-width:0.0521217;stroke-linecap:square"
       id="rect5404"
       width="31.753111"
       height="1.3992682"
       x="92.726311"
       y="113.03297" />
    <rect
       style="fill:#000000;fill-opacity:1;stroke-width:0.0649999;stroke-linecap:square"
       id="rect5819"
       width="9.4345684"
       height="2.2363284"
       x="114.18444"
       y="113.88453" />
    <rect
       style="fill:#000000;fill-opacity:1;stroke-width:0.0458194;stroke-linecap:square"
       id="rect6081"
       width="1.2600856"
       height="0.58422083"
       x="95.163834"
       y="112.51038" />
    <rect
       style="fill:#000000;fill-opacity:1;stroke-width:0.0458194;stroke-linecap:square"
       id="rect6081-6"
       width="1.2600856"
       height="0.58422083"
       x="97.316551"
       y="112.51038" />
    <rect
       style="fill:#000000;fill-opacity:1;stroke-width:0.0458194;stroke-linecap:square"
       id="rect6081-7"
       width="1.2600856"
       height="0.58422083"
       x="99.634972"
       y="112.51038" />
    <rect
       style="fill:#000000;fill-opacity:1;stroke-width:0.0458194;stroke-linecap:square"
       id="rect6081-6-5"
       width="1.2600856"
       height="0.58422083"
       x="101.78767"
       y="112.51038" />
    <rect
       style="fill:#000000;fill-opacity:1;stroke-width:0.0458194;stroke-linecap:square"
       id="rect6081-3"
       width="1.2600856"
       height="0.58422083"
       x="104.10609"
       y="112.51038" />
    <rect
       style="fill:#000000;fill-opacity:1;stroke-width:0.0458194;stroke-linecap:square"
       id="rect6081-6-56"
       width="1.2600856"
       height="0.58422083"
       x="106.2588"
       y="112.51038" />
    <rect
       style="fill:#000000;fill-opacity:1;stroke-width:0.0458194;stroke-linecap:square"
       id="rect6081-7-2"
       width="1.2600856"
       height="0.58422083"
       x="108.57722"
       y="112.51038" />
    <rect
       style="fill:#000000;fill-opacity:1;stroke-width:0.0458194;stroke-linecap:square"
       id="rect6081-6-5-9"
       width="1.2600856"
       height="0.58422083"
       x="110.7299"
       y="112.51038" />
    <rect
       style="fill:#000000;fill-opacity:1;stroke-width:0.0458194;stroke-linecap:square"
       id="rect6081-7-1"
       width="1.2600856"
       height="0.58422083"
       x="112.84657"
       y="112.45533" />
    <rect
       style="fill:#000000;fill-opacity:1;stroke-width:0.0458194;stroke-linecap:square"
       id="rect6081-6-5-2"
       width="1.2600856"
       height="0.58422083"
       x="114.99927"
       y="112.45533" />
    <rect
       style="fill:#000000;fill-opacity:1;stroke-width:0.0458194;stroke-linecap:square"
       id="rect6081-3-7"
       width="1.2600856"
       height="0.58422083"
       x="117.31769"
       y="112.45533" />
    <rect
       style="fill:#000000;fill-opacity:1;stroke-width:0.0458194;stroke-linecap:square"
       id="rect6081-6-56-0"
       width="1.2600856"
       height="0.58422083"
       x="119.4704"
       y="112.45533" />
    <rect
       style="fill:#000000;fill-opacity:1;stroke-width:0.0458194;stroke-linecap:square"
       id="rect6081-7-2-9"
       width="1.2600856"
       height="0.58422083"
       x="121.78879"
       y="112.45533" />
    <rect
       style="fill:#000000;fill-opacity:1;stroke-width:0.0374308;stroke-linecap:square"
       id="rect5404-6"
       width="16.375986"
       height="1.3992682"
       x="147.21962"
       y="113.75236" />
    <rect
       style="fill:#000000;fill-opacity:1;stroke-width:0.0458194;stroke-linecap:square"
       id="rect6081-7-2-92"
       width="1.2600856"
       height="0.58422083"
       x="147.69339"
       y="113.22977" />
    <rect
       style="fill:#000000;fill-opacity:1;stroke-width:0.0458194;stroke-linecap:square"
       id="rect6081-6-5-9-0"
       width="1.2600856"
       height="0.58422083"
       x="149.84607"
       y="113.22977" />
    <rect
       style="fill:#000000;fill-opacity:1;stroke-width:0.0458194;stroke-linecap:square"
       id="rect6081-7-1-2"
       width="1.2600856"
       height="0.58422083"
       x="151.96277"
       y="113.17473" />
    <rect
       style="fill:#000000;fill-opacity:1;stroke-width:0.0458194;stroke-linecap:square"
       id="rect6081-6-5-2-3"
       width="1.2600856"
       height="0.58422083"
       x="154.11545"
       y="113.17473" />
    <rect
       style="fill:#000000;fill-opacity:1;stroke-width:0.0458194;stroke-linecap:square"
       id="rect6081-3-7-7"
       width="1.2600856"
       height="0.58422083"
       x="156.43387"
       y="113.17473" />
    <rect
       style="fill:#000000;fill-opacity:1;stroke-width:0.0458194;stroke-linecap:square"
       id="rect6081-6-56-0-5"
       width="1.2600856"
       height="0.58422083"
       x="158.58658"
       y="113.17473" />
    <rect
       style="fill:#000000;fill-opacity:1;stroke-width:0.0458194;stroke-linecap:square"
       id="rect6081-7-2-9-9"
       width="1.2600856"
       height="0.58422083"
       x="160.90497"
       y="113.17473" />
    <path
       id="rect6834"
       style="stroke-width:0.0649999;stroke-linecap:square"
       d="m 146.69702,117.25375 h 2.83196 c 0.8508,0.44549 0.53457,0.89097 0,1.33646 h -2.83196 c -0.43968,-0.45944 -0.77326,-0.91551 0,-1.33646 z"
       sodipodi:nodetypes="ccccc" />
    <path
       id="rect6834-2"
       style="stroke-width:0.0649999;stroke-linecap:square"
       d="m 151.38967,117.27425 h 2.83196 c 0.8508,0.44549 0.53457,0.89097 0,1.33646 h -2.83196 c -0.43968,-0.45944 -0.77326,-0.91551 0,-1.33646 z"
       sodipodi:nodetypes="ccccc" />
    <path
       id="rect6834-2-8"
       style="stroke-width:0.0649999;stroke-linecap:square"
       d="m 156.02567,117.33121 h 2.83196 c 0.8508,0.44549 0.53457,0.89097 0,1.33646 h -2.83196 c -0.43968,-0.45944 -0.77326,-0.91551 0,-1.33646 z"
       sodipodi:nodetypes="ccccc" />
    <rect
       style="fill:#000000;fill-opacity:1;stroke-width:0.0710027;stroke-linecap:square"
       id="rect7145"
       width="25.812275"
       height="2.3015983"
       x="133.04536"
       y="119.4962" />
  </g>
</svg>
