<?xml version="1.0" encoding="UTF-8" standalone="no"?>
<!-- Created with Inkscape (http://www.inkscape.org/) -->

<svg
   width="40.798244mm"
   height="21.634912mm"
   viewBox="0 0 40.798243 21.634912"
   version="1.1"
   id="svg1"
   inkscape:version="1.4.2 (f4327f4, 2025-05-13)"
   sodipodi:docname="pig_1.svg"
   xmlns:inkscape="http://www.inkscape.org/namespaces/inkscape"
   xmlns:sodipodi="http://sodipodi.sourceforge.net/DTD/sodipodi-0.dtd"
   xmlns="http://www.w3.org/2000/svg"
   xmlns:svg="http://www.w3.org/2000/svg">
  <sodipodi:namedview
     id="namedview1"
     pagecolor="#000000"
     bordercolor="#000000"
     borderopacity="0.25"
     inkscape:showpageshadow="2"
     inkscape:pageopacity="0.0"
     inkscape:pagecheckerboard="true"
     inkscape:deskcolor="#000000"
     inkscape:document-units="mm"
     inkscape:zoom="1.0167041"
     inkscape:cx="105.73381"
     inkscape:cy="1.4753555"
     inkscape:window-width="1920"
     inkscape:window-height="1009"
     inkscape:window-x="-8"
     inkscape:window-y="-8"
     inkscape:window-maximized="1"
     inkscape:current-layer="layer1" />
  <defs
     id="defs1" />
  <g
     inkscape:label="Camada 1"
     inkscape:groupmode="layer"
     id="layer1"
     transform="matrix(0.32273008,0,0,0.32273008,-8.3051991,-16.619396)">
    <ellipse
       style="fill:#d87bd8;fill-opacity:1;stroke:#8c2c94;stroke-width:3.4804;stroke-dasharray:none;stroke-opacity:1"
       id="path2"
       cx="45.203533"
       cy="33.518585"
       rx="43.463333"
       ry="31.778387"
       transform="translate(25.734196,51.496275)" />
    <path
       id="path1"
       style="fill:#d87bd8;stroke:#8c2c94;stroke-width:3;stroke-dasharray:none;stroke-opacity:1"
       d="m 150.648,84.554827 c -0.14609,14.188702 -6.7604,10.796386 -7.63771,13.662192 -3.87313,12.651971 -13.7125,17.528331 -27.63297,17.528331 -17.073608,0 -30.914501,-13.84089 -30.9145,-30.914501 -10e-7,-17.073607 13.840893,-30.914499 30.9145,-30.9145 13.30955,0 22.9985,4.362534 27.35391,16.159023 1.25419,3.396942 8.06417,0.163391 7.91677,14.479455 z"
       sodipodi:nodetypes="sssssss" />
    <g
       id="g4"
       transform="matrix(0.64948766,0,0,0.64948766,51.661951,28.887197)">
      <path
         id="path3"
         style="fill-opacity:0.565831;stroke-width:4.69021"
         d="m 148.38221,79.388438 c -0.12238,1.111148 -0.90621,2.024077 -2.02408,2.024074 -1.11786,-2e-6 -3.35818,-2.654352 -3.35818,-3.772215 0,-1.117864 0.90621,-2.024073 2.02407,-2.024074 2.72059,-3e-6 3.55853,1.953159 3.35819,3.772215 z"
         sodipodi:nodetypes="sssss" />
      <path
         id="path4"
         style="fill-opacity:0.565831;stroke-width:4.69021"
         d="m 148.38221,89.34183 c -0.12238,-1.111148 -0.90621,-2.024077 -2.02408,-2.024074 -1.11786,2e-6 -3.35818,2.654352 -3.35818,3.772215 0,1.117864 0.90621,2.024073 2.02407,2.024074 2.72059,3e-6 3.55853,-1.953159 3.35819,-3.772215 z"
         sodipodi:nodetypes="sssss" />
    </g>
    <g
       id="g7"
       inkscape:label="Eye"
       transform="translate(3.7200208e-4,-15.457244)">
      <ellipse
         style="fill:#2e2e2e;fill-opacity:1;stroke:none;stroke-width:1.97256;stroke-dasharray:none;stroke-opacity:1"
         id="ellipse6"
         cx="134.67229"
         cy="91.292168"
         rx="2.9276588"
         ry="2.3439417" />
      <path
         id="ellipse7"
         style="fill:#3f3f3f;fill-opacity:1;stroke-width:6.99999"
         d="m 136.55546,91.327438 c 0,1.147926 -1.28366,1.957992 -1.50612,1.346359 -0.34807,-0.957018 -1.1117,-0.932455 -1.45971,-0.04896 -0.23487,0.596249 -0.89299,-0.105418 -0.90519,-1.297442 -0.009,-0.83835 0.86656,-1.518046 1.93551,-1.518045 1.06895,-10e-7 1.93551,0.679651 1.93551,1.518045 z"
         sodipodi:nodetypes="sssssss" />
      <ellipse
         style="fill:#ffffff;fill-opacity:1;stroke:none;stroke-width:1.04603;stroke-dasharray:none;stroke-opacity:1"
         id="path7"
         cx="133.7793"
         cy="90.178276"
         rx="0.65576434"
         ry="0.47174945" />
    </g>
    <g
       id="g9"
       inkscape:label="Eye"
       transform="translate(3.7200208e-4,-0.65722485)">
      <ellipse
         style="fill:#2e2e2e;fill-opacity:1;stroke:none;stroke-width:1.97256;stroke-dasharray:none;stroke-opacity:1"
         id="ellipse8"
         cx="134.67229"
         cy="91.292168"
         rx="2.9276588"
         ry="2.3439417" />
      <path
         id="path8"
         style="fill:#3f3f3f;fill-opacity:1;stroke-width:6.99999"
         d="m 136.55546,91.327438 c 0,1.147926 -1.28366,1.957992 -1.50612,1.346359 -0.34807,-0.957018 -1.1117,-0.932455 -1.45971,-0.04896 -0.23487,0.596249 -0.89299,-0.105418 -0.90519,-1.297442 -0.009,-0.83835 0.86656,-1.518046 1.93551,-1.518045 1.06895,-10e-7 1.93551,0.679651 1.93551,1.518045 z"
         sodipodi:nodetypes="sssssss" />
      <ellipse
         style="fill:#ffffff;fill-opacity:1;stroke:none;stroke-width:1.04603;stroke-dasharray:none;stroke-opacity:1"
         id="ellipse9"
         cx="133.54929"
         cy="90.523308"
         rx="0.65576434"
         ry="0.47174945" />
    </g>
  </g>
</svg>
