<?xml version="1.0" encoding="UTF-8" standalone="no"?>
<svg
   width="34.918289"
   height="34.918289"
   viewBox="-26 -28 34.918289 34.918286"
   version="1.1"
   id="svg14"
   sodipodi:docname="emote_wheel_hover_center.svg"
   inkscape:version="1.4.2 (f4327f4, 2025-05-13)"
   inkscape:export-filename="MD.png"
   inkscape:export-xdpi="585.14288"
   inkscape:export-ydpi="585.14288"
   xmlns:inkscape="http://www.inkscape.org/namespaces/inkscape"
   xmlns:sodipodi="http://sodipodi.sourceforge.net/DTD/sodipodi-0.dtd"
   xmlns="http://www.w3.org/2000/svg"
   xmlns:svg="http://www.w3.org/2000/svg">
  <sodipodi:namedview
     id="namedview14"
     pagecolor="#505050"
     bordercolor="#ffffff"
     borderopacity="1"
     inkscape:showpageshadow="0"
     inkscape:pageopacity="0"
     inkscape:pagecheckerboard="1"
     inkscape:deskcolor="#505050"
     inkscape:zoom="5.6568543"
     inkscape:cx="-20.152543"
     inkscape:cy="27.135222"
     inkscape:window-width="1920"
     inkscape:window-height="1009"
     inkscape:window-x="-8"
     inkscape:window-y="-8"
     inkscape:window-maximized="1"
     inkscape:current-layer="svg14"
     showgrid="false"
     showguides="false" />
  <defs
     id="defs7">
    <clipPath
       id="b">
      <circle
         cy="-15"
         r="9.5"
         id="circle1"
         cx="0" />
      <circle
         cy="-15"
         r="9.5"
         transform="rotate(120)"
         id="circle2"
         cx="0" />
      <circle
         cy="-15"
         r="9.5"
         transform="rotate(-120)"
         id="circle3"
         cx="0" />
    </clipPath>
    <mask
       maskUnits="userSpaceOnUse"
       id="mask14">
      <g
         id="g18"
         transform="matrix(-0.3980914,0.68951456,-0.68951456,-0.3980914,15.914388,-5.5218685)">
        <path
           fill="#ffffff"
           d="M -17.911372,-20.069095 H 49.912244 V 47.754521 H -17.911372 Z"
           id="path14"
           style="stroke-width:1.25599" />
        <path
           d="m 18.512422,-15.045124 v -5.023971 H 13.48845 v 5.023971 m 1.88399,21.3518796 v 5.0239714 h 1.255992 V 6.3067556"
           id="path15"
           style="stroke-width:1.25599" />
        <circle
           cy="-4.9971805"
           r="13.187925"
           id="circle15"
           cx="16.000437"
           style="stroke-width:1.25599" />
        <g
           transform="matrix(-0.62799645,1.0877218,-1.0877218,-0.62799645,16.000436,13.842713)"
           id="g16">
          <path
             d="m 2,-23 v -4 h -4 v 4 m 1.5,17 v 4 h 1 v -4"
             id="path16"
             style="stroke-width:1" />
          <circle
             cy="-15"
             r="10.5"
             id="circle16"
             cx="0" />
        </g>
        <g
           transform="matrix(-0.62799645,-1.0877218,1.0877218,-0.62799645,16.000436,13.842713)"
           id="g17">
          <path
             d="m 2,-23 v -4 h -4 v 4 m 1.5,17 v 4 h 1 v -4"
             id="path17" />
          <circle
             cy="-15"
             r="10.5"
             id="circle17"
             cx="0" />
        </g>
        <circle
           r="3.7679787"
           id="circle18"
           cx="16.000437"
           cy="13.842713"
           style="stroke-width:1.25599" />
      </g>
    </mask>
    <mask
       maskUnits="userSpaceOnUse"
       id="mask18">
      <g
         id="g22"
         transform="matrix(-0.3980914,-0.68951456,0.68951456,-0.3980914,-3.1751162,16.543199)"
         style="stroke-width:1.25599">
        <path
           fill="#ffffff"
           d="M -17.911372,-20.069095 H 49.912244 V 47.754521 H -17.911372 Z"
           id="path18" />
        <path
           d="m 18.512422,-15.045124 v -5.023971 H 13.48845 v 5.023971 m 1.88399,21.3518796 v 5.0239714 h 1.255992 V 6.3067556"
           id="path19" />
        <circle
           cy="-4.9971805"
           r="13.187925"
           id="circle19"
           cx="16.000437" />
        <g
           transform="matrix(-0.62799645,1.0877218,-1.0877218,-0.62799645,16.000436,13.842713)"
           id="g20">
          <path
             d="m 2,-23 v -4 h -4 v 4 m 1.5,17 v 4 h 1 v -4"
             id="path20" />
          <circle
             cy="-15"
             r="10.5"
             id="circle20"
             cx="0" />
        </g>
        <g
           transform="matrix(-0.62799645,-1.0877218,1.0877218,-0.62799645,16.000436,13.842713)"
           id="g21">
          <path
             d="m 2,-23 v -4 h -4 v 4 m 1.5,17 v 4 h 1 v -4"
             id="path21" />
          <circle
             cy="-15"
             r="10.5"
             id="circle21"
             cx="0" />
        </g>
        <circle
           r="3.7679787"
           id="circle22"
           cx="16.000437"
           cy="13.842713" />
      </g>
    </mask>
    <mask
       maskUnits="userSpaceOnUse"
       id="mask22">
      <g
         id="g26"
         transform="matrix(0.79618284,0,0,0.79618284,-12.739273,-11.021331)">
        <path
           fill="#ffffff"
           d="M -17.911372,-20.069095 H 49.912244 V 47.754521 H -17.911372 Z"
           id="path22" />
        <path
           d="m 18.512422,-15.045124 v -5.023971 H 13.48845 v 5.023971 m 1.88399,21.3518796 v 5.0239714 h 1.255992 V 6.3067556"
           id="path23" />
        <circle
           cy="-4.9971805"
           r="13.187925"
           id="circle23"
           cx="16.000437" />
        <g
           transform="matrix(-0.62799645,1.0877218,-1.0877218,-0.62799645,16.000436,13.842713)"
           id="g24">
          <path
             d="m 2,-23 v -4 h -4 v 4 m 1.5,17 v 4 h 1 v -4"
             id="path24" />
          <circle
             cy="-15"
             r="10.5"
             id="circle24"
             cx="0" />
        </g>
        <g
           transform="matrix(-0.62799645,-1.0877218,1.0877218,-0.62799645,16.000436,13.842713)"
           id="g25">
          <path
             d="m 2,-23 v -4 h -4 v 4 m 1.5,17 v 4 h 1 v -4"
             id="path25" />
          <circle
             cy="-15"
             r="10.5"
             id="circle25"
             cx="0" />
        </g>
        <circle
           r="3.7679787"
           id="circle26"
           cx="16.000437"
           cy="13.842713" />
      </g>
    </mask>
    <mask
       id="b-3"
       maskUnits="userSpaceOnUse"
       x="-30"
       y="-30"
       width="60"
       height="60">
      <path
         d="M -27,-27 H 27 V 27 H -27 Z"
         fill="#ffffff"
         id="path3" />
      <path
         d="m 2,-23 v -4 h -4 v 4 m 1.5,17 v 4 h 1 v -4"
         id="path4" />
      <circle
         cy="-15"
         r="10.5"
         id="circle4"
         cx="0" />
      <g
         transform="rotate(120)"
         id="g5">
        <path
           d="m 2,-23 v -4 h -4 v 4 m 1.5,17 v 4 h 1 v -4"
           id="path5" />
        <circle
           cy="-15"
           r="10.5"
           id="circle5"
           cx="0" />
      </g>
      <g
         transform="rotate(-120)"
         id="g6">
        <path
           d="m 2,-23 v -4 h -4 v 4 m 1.5,17 v 4 h 1 v -4"
           id="path6" />
        <circle
           cy="-15"
           r="10.5"
           id="circle6"
           cx="0" />
      </g>
      <circle
         r="3"
         id="circle7"
         cx="0"
         cy="0" />
    </mask>
    <clipPath
       id="d">
      <circle
         cy="-15"
         r="9.5"
         id="circle1-6"
         cx="0" />
      <circle
         transform="rotate(120)"
         cy="-15"
         r="9.5"
         id="circle2-7"
         cx="0" />
      <circle
         transform="rotate(-120)"
         cy="-15"
         r="9.5"
         id="circle3-5"
         cx="0" />
    </clipPath>
  </defs>
  <circle
     style="opacity:1;fill:none;fill-opacity:0.315287;stroke:#1f327b;stroke-width:6.9;stroke-linecap:round;stroke-dasharray:none;stroke-opacity:1"
     id="path32"
     cx="-8.5408554"
     cy="-10.540855"
     r="14.009145" />
</svg>
