<?xml version="1.0" encoding="UTF-8" standalone="no"?>
<!-- Created with Inkscape (http://www.inkscape.org/) -->

<svg
   width="119.46174mm"
   height="23.272339mm"
   viewBox="0 0 119.46174 23.272339"
   version="1.1"
   id="svg5"
   inkscape:version="1.1.2 (0a00cf5339, 2022-02-04)"
   sodipodi:docname="ar15.svg"
   xmlns:inkscape="http://www.inkscape.org/namespaces/inkscape"
   xmlns:sodipodi="http://sodipodi.sourceforge.net/DTD/sodipodi-0.dtd"
   xmlns="http://www.w3.org/2000/svg"
   xmlns:svg="http://www.w3.org/2000/svg">
  <sodipodi:namedview
     id="namedview7"
     pagecolor="#ffffff"
     bordercolor="#666666"
     borderopacity="1.0"
     inkscape:pageshadow="2"
     inkscape:pageopacity="0.0"
     inkscape:pagecheckerboard="0"
     inkscape:document-units="mm"
     showgrid="false"
     fit-margin-top="0"
     fit-margin-left="0"
     fit-margin-right="0"
     fit-margin-bottom="0"
     inkscape:zoom="1.1407905"
     inkscape:cx="361.15309"
     inkscape:cy="50.84194"
     inkscape:window-width="1920"
     inkscape:window-height="996"
     inkscape:window-x="0"
     inkscape:window-y="0"
     inkscape:window-maximized="1"
     inkscape:current-layer="layer1" />
  <defs
     id="defs2">
    <clipPath
       clipPathUnits="userSpaceOnUse"
       id="clipPath15839">
      <g
         id="g15875"
         transform="translate(0,0.08199958)">
        <path
           style="fill:#ffffff;fill-opacity:1;stroke:none;stroke-width:0.198976px;stroke-linecap:butt;stroke-linejoin:miter;stroke-opacity:1"
           d="m 158.75501,141.07688 c 0,0 0.71457,0.89015 1.01813,0.87238 0.30355,-0.0178 0.76052,-0.34992 0.76052,-0.34992 z"
           id="path15841"
           sodipodi:nodetypes="czcc" />
        <path
           style="fill:#ffffff;fill-opacity:1;stroke:none;stroke-width:0.198976px;stroke-linecap:butt;stroke-linejoin:miter;stroke-opacity:1"
           d="m 160.53366,141.59934 c 0,0 0.71457,0.36098 1.01813,0.34321 0.30355,-0.0178 0.76052,-0.34992 0.76052,-0.34992 z"
           id="path15843"
           sodipodi:nodetypes="czcc" />
        <path
           style="fill:#ffffff;fill-opacity:1;stroke:none;stroke-width:0.198976px;stroke-linecap:butt;stroke-linejoin:miter;stroke-opacity:1"
           d="m 162.31231,141.59263 c 0,0 0.71457,0.36098 1.01813,0.34321 0.30355,-0.0178 0.76052,-0.34992 0.76052,-0.34992 z"
           id="path15845"
           sodipodi:nodetypes="czcc" />
        <path
           style="fill:#ffffff;fill-opacity:1;stroke:none;stroke-width:0.198976px;stroke-linecap:butt;stroke-linejoin:miter;stroke-opacity:1"
           d="m 164.09096,141.58592 c 0,0 0.71457,0.36098 1.01813,0.34321 0.30355,-0.0178 0.76052,-0.34992 0.76052,-0.34992 z"
           id="path15847"
           sodipodi:nodetypes="czcc" />
        <path
           style="fill:#ffffff;fill-opacity:1;stroke:none;stroke-width:0.198976px;stroke-linecap:butt;stroke-linejoin:miter;stroke-opacity:1"
           d="m 165.86961,141.57921 c 0,0 0.71457,0.36098 1.01813,0.34321 0.30355,-0.0178 0.76052,-0.34992 0.76052,-0.34992 z"
           id="path15849"
           sodipodi:nodetypes="czcc" />
        <path
           style="fill:#ffffff;fill-opacity:1;stroke:none;stroke-width:0.198976px;stroke-linecap:butt;stroke-linejoin:miter;stroke-opacity:1"
           d="m 167.64826,141.5725 c 0,0 0.71457,0.36098 1.01813,0.34321 0.30355,-0.0178 0.76052,-0.34992 0.76052,-0.34992 z"
           id="path15851"
           sodipodi:nodetypes="czcc" />
        <path
           style="fill:#ffffff;fill-opacity:1;stroke:none;stroke-width:0.198976px;stroke-linecap:butt;stroke-linejoin:miter;stroke-opacity:1"
           d="m 169.42691,141.56579 c 0,0 0.71457,0.36098 1.01813,0.34321 0.30355,-0.0178 0.76052,-0.34992 0.76052,-0.34992 z"
           id="path15853"
           sodipodi:nodetypes="czcc" />
        <path
           style="fill:#ffffff;fill-opacity:1;stroke:none;stroke-width:0.198976px;stroke-linecap:butt;stroke-linejoin:miter;stroke-opacity:1"
           d="m 171.20556,141.55908 c 0,0 0.71457,0.36098 1.01813,0.34321 0.30355,-0.0178 0.76052,-0.34992 0.76052,-0.34992 z"
           id="path15855"
           sodipodi:nodetypes="czcc" />
        <path
           style="fill:#ffffff;fill-opacity:1;stroke:none;stroke-width:0.198976px;stroke-linecap:butt;stroke-linejoin:miter;stroke-opacity:1"
           d="m 172.98421,141.67501 c 0,0 0.71457,0.36098 1.01813,0.34321 0.30355,-0.0178 0.76052,-0.34992 0.76052,-0.34992 z"
           id="path15857"
           sodipodi:nodetypes="czcc" />
        <path
           style="fill:#ffffff;fill-opacity:1;stroke:none;stroke-width:0.198976px;stroke-linecap:butt;stroke-linejoin:miter;stroke-opacity:1"
           d="m 174.76286,141.6683 c 0,0 0.71457,0.36098 1.01813,0.34321 0.30355,-0.0178 0.76052,-0.34992 0.76052,-0.34992 z"
           id="path15859"
           sodipodi:nodetypes="czcc" />
        <path
           style="fill:#ffffff;fill-opacity:1;stroke:none;stroke-width:0.198976px;stroke-linecap:butt;stroke-linejoin:miter;stroke-opacity:1"
           d="m 176.54151,141.66159 c 0,0 0.71457,0.36098 1.01813,0.34321 0.30355,-0.0178 0.76052,-0.34992 0.76052,-0.34992 z"
           id="path15861"
           sodipodi:nodetypes="czcc" />
        <path
           style="fill:#ffffff;fill-opacity:1;stroke:none;stroke-width:0.198976px;stroke-linecap:butt;stroke-linejoin:miter;stroke-opacity:1"
           d="m 178.32016,141.65488 c 0,0 0.71457,0.36098 1.01813,0.34321 0.30355,-0.0178 0.76052,-0.34992 0.76052,-0.34992 z"
           id="path15863"
           sodipodi:nodetypes="czcc" />
        <path
           style="fill:#ffffff;fill-opacity:1;stroke:none;stroke-width:0.198976px;stroke-linecap:butt;stroke-linejoin:miter;stroke-opacity:1"
           d="m 180.09881,141.77081 c 0,0 0.71457,0.36098 1.01813,0.34321 0.30355,-0.0178 0.76052,-0.34992 0.76052,-0.34992 z"
           id="path15865"
           sodipodi:nodetypes="czcc" />
        <path
           style="fill:#ffffff;fill-opacity:1;stroke:none;stroke-width:0.198976px;stroke-linecap:butt;stroke-linejoin:miter;stroke-opacity:1"
           d="m 181.87746,141.7641 c 0,0 0.71457,0.36098 1.01813,0.34321 0.30355,-0.0178 0.76052,-0.34992 0.76052,-0.34992 z"
           id="path15867"
           sodipodi:nodetypes="czcc" />
        <path
           style="fill:#ffffff;fill-opacity:1;stroke:none;stroke-width:0.198976px;stroke-linecap:butt;stroke-linejoin:miter;stroke-opacity:1"
           d="m 183.65611,141.75739 c 0,0 0.71457,0.36098 1.01813,0.34321 0.30355,-0.0178 0.76052,-0.34992 0.76052,-0.34992 z"
           id="path15869"
           sodipodi:nodetypes="czcc" />
        <path
           style="fill:#ffffff;fill-opacity:1;stroke:none;stroke-width:0.198976px;stroke-linecap:butt;stroke-linejoin:miter;stroke-opacity:1"
           d="m 185.43476,141.75068 c 0,0 0.71457,0.36098 1.01813,0.34321 0.30355,-0.0178 0.76052,-0.34992 0.76052,-0.34992 z"
           id="path15871"
           sodipodi:nodetypes="czcc" />
        <path
           style="fill:#ffffff;fill-opacity:1;stroke:none;stroke-width:0.198976px;stroke-linecap:butt;stroke-linejoin:miter;stroke-opacity:1"
           d="m 187.21341,141.74397 c 0,0 0.71457,0.36098 1.01813,0.34321 0.30355,-0.0178 0.76052,-0.34992 0.76052,-0.34992 z"
           id="path15873"
           sodipodi:nodetypes="czcc" />
      </g>
    </clipPath>
  </defs>
  <g
     inkscape:label="Layer 1"
     inkscape:groupmode="layer"
     id="layer1"
     transform="translate(-22.10429,-125.51274)">
    <path
       style="fill:#242424;fill-opacity:1;stroke:#242424;stroke-width:0.264583px;stroke-linecap:butt;stroke-linejoin:miter;stroke-opacity:1"
       d="m 23.298922,143.9576 19.461587,-5.36865 8.04502,-1.05433 V 132.3018 H 22.243936 c 0.258128,4.7689 0.688925,6.89155 1.054986,11.6558 z"
       id="path891"
       sodipodi:nodetypes="cccccc" />
    <path
       style="fill:#242424;fill-opacity:1;stroke:#242424;stroke-width:0.264583px;stroke-linecap:butt;stroke-linejoin:miter;stroke-opacity:1"
       d="m 50.668869,137.53462 c 0,0 3.55195,-1.15161 3.24085,2.23818 -0.31109,3.38978 -2.83256,7.68884 -2.83256,7.68884 l 4.38726,1.1615 0.21659,-0.838 -0.67772,-0.40344 1.93687,-5.72143 4.10591,-0.0966 c 0,0 -1.28583,-1.10587 0.14621,-2.78876 0.25812,-0.30334 0.0813,-2.07355 -0.38209,-2.16925 -2.10737,-0.43526 -10.14132,0.92892 -10.14132,0.92892 v 0 0"
       id="path1673"
       sodipodi:nodetypes="csccccccssccc" />
    <rect
       style="fill:#242424;fill-opacity:1;stroke:#242424;stroke-width:0.0656966;stroke-linecap:square;stroke-opacity:1"
       id="rect2893"
       width="4.9199958"
       height="5.2122841"
       x="50.805607"
       y="132.19182" />
    <path
       style="fill:#242424;fill-opacity:1;stroke:#242424;stroke-width:0.264583px;stroke-linecap:butt;stroke-linejoin:miter;stroke-opacity:1"
       d="m 64.434269,141.56909 c 0,0 1.68289,-1.50764 0.0303,-2.74849 -1.65256,-1.24084 1.51461,0.0244 1.51461,0.0244 l -1e-5,2.68273 z"
       id="path3435"
       sodipodi:nodetypes="csccc" />
    <path
       style="fill:#242424;fill-opacity:1;stroke:#242424;stroke-width:0.264583px;stroke-linecap:butt;stroke-linejoin:miter;stroke-opacity:1"
       d="m 61.046069,141.56367 4.44653,0.005 v 0 0"
       id="path3470" />
    <path
       style="fill:#454545;fill-opacity:1;stroke:none;stroke-width:0.264583px;stroke-linecap:butt;stroke-linejoin:miter;stroke-opacity:1"
       d="m 66.810439,140.98971 v 4.60879 l 6.16938,-1.55569 v -3.69182 z"
       id="path5542"
       sodipodi:nodetypes="ccccc" />
    <path
       id="rect4087"
       style="fill:#242424;stroke:#242424;stroke-width:0.0649999;stroke-linecap:square"
       d="m 66.080029,132.19182 h 7.47455 v 8.35378 l -7.47455,1.05834 z"
       sodipodi:nodetypes="ccccc" />
    <path
       style="fill:#242424;fill-opacity:1;stroke:none;stroke-width:0.264583px;stroke-linecap:butt;stroke-linejoin:miter;stroke-opacity:1"
       d="m 61.654579,138.25649 c 0,0 -0.58916,1.25558 -0.49746,1.64124 0.0917,0.38566 0.81201,1.07871 0.81201,1.07871 0,0 -0.44932,-0.74283 -0.51214,-1.11267 -0.0628,-0.36984 0.19762,-1.60728 0.19762,-1.60728 z"
       id="path5941"
       sodipodi:nodetypes="czczcc" />
    <rect
       style="fill:#242424;fill-opacity:1;stroke:#242424;stroke-width:0.0649999;stroke-linecap:square;stroke-opacity:1"
       id="rect2997"
       width="13.1874"
       height="6.6531959"
       x="55.58894"
       y="132.19182" />
    <path
       id="path7856"
       style="fill:#242424;fill-opacity:1;stroke:none;stroke-width:0.264583px;stroke-linecap:butt;stroke-linejoin:miter;stroke-opacity:1"
       d="m 53.969439,125.5133 c -0.37064,0.0246 -0.54054,0.68213 -0.54054,0.68213 0,0 -1.33402,4.30783 -1.68568,4.98005 -0.35166,0.67222 -1.07435,0.35089 -1.07435,0.35089 v 0.80202 0.11006 l 24.01765,-0.0698 c 0,0 -0.90167,-4.27691 -1.29243,-4.83743 -0.39076,-0.56045 -1.20819,-0.55345 -1.20819,-0.55345 0,0 -17.78381,-1.44641 -18.17977,-1.46451 -0.0124,-5.7e-4 -0.0247,-8e-4 -0.0367,0 z m 11.74295,1.7973 c 3.65203,-0.005 6.95549,0.0415 7.0621,0.2589 0.23877,0.48682 1.11593,3.38415 0,3.43855 -1.3672,0.0667 -13.90636,0.40879 -17.65887,0.0971 -0.55896,-0.0464 -0.91058,-0.0421 -0.98288,-0.0971 -0.65375,-0.49693 1.15938,-3.16165 1.74511,-3.55689 0.0626,-0.0422 0.30137,-0.0996 0.68058,-0.0956 1.50096,0.0147 5.50193,-0.0404 9.15396,-0.045 z" />
    <rect
       style="fill:#242424;fill-opacity:1;stroke:none;stroke-width:0.0649999;stroke-linecap:square;stroke-opacity:1"
       id="rect10377"
       width="4.0555882"
       height="4.6603174"
       x="73.418152"
       y="132.19182" />
    <path
       style="fill:#000000;fill-opacity:1;stroke:none;stroke-width:0.233102px;stroke-linecap:butt;stroke-linejoin:miter;stroke-opacity:1"
       d="m 77.448249,131.56439 c 2.6e-4,1.81703 0,5.86378 0,5.86378 l 33.243341,-0.97273 V 131.955 Z"
       id="path11056" />
    <path
       id="path16549"
       style="fill:#242424;fill-opacity:1;stroke:none;stroke-width:0.264583px;stroke-linecap:butt;stroke-linejoin:miter;stroke-opacity:1"
       d="m 114.84909,126.40706 c -0.65558,-0.011 -1.34462,0.28888 -1.34462,0.28888 l -2.89491,5.25911 v 4.5005 l 5.96449,0.031 c 0,0 -0.18232,-8.95036 -0.82631,-9.71878 -0.22136,-0.26416 -0.55525,-0.35494 -0.89865,-0.36071 z m -1.24281,1.81333 h 2.23552 v 3.93568 h -4.74132 z" />
    <rect
       style="fill:#242424;fill-opacity:1;stroke:none;stroke-width:0.142692;stroke-linecap:square;stroke-miterlimit:4;stroke-dasharray:none;stroke-opacity:1"
       id="rect17509"
       width="28.522881"
       height="2.6438456"
       x="111.13084"
       y="133.0632" />
    <rect
       style="fill:#242424;fill-opacity:1;stroke:none;stroke-width:0.0855703;stroke-linecap:square;stroke-miterlimit:4;stroke-dasharray:none;stroke-opacity:1"
       id="rect17985"
       width="6.674747"
       height="2.9473333"
       x="134.89128"
       y="132.9402" />
  </g>
</svg>
