<?xml version="1.0" encoding="UTF-8" standalone="no"?>
<!-- Created with Inkscape (http://www.inkscape.org/) -->

<svg
   width="206.72186mm"
   height="42.702126mm"
   viewBox="0 0 206.72186 42.702126"
   version="1.1"
   id="svg5"
   sodipodi:docname="hp18.svg"
   inkscape:version="1.1.2 (0a00cf5339, 2022-02-04)"
   xmlns:inkscape="http://www.inkscape.org/namespaces/inkscape"
   xmlns:sodipodi="http://sodipodi.sourceforge.net/DTD/sodipodi-0.dtd"
   xmlns="http://www.w3.org/2000/svg"
   xmlns:svg="http://www.w3.org/2000/svg">
  <sodipodi:namedview
     id="namedview7"
     pagecolor="#ffffff"
     bordercolor="#666666"
     borderopacity="1.0"
     inkscape:pageshadow="2"
     inkscape:pageopacity="0.0"
     inkscape:pagecheckerboard="0"
     inkscape:document-units="mm"
     showgrid="false"
     showguides="false"
     inkscape:zoom="0.80910843"
     inkscape:cx="351.00363"
     inkscape:cy="122.3569"
     inkscape:window-width="1920"
     inkscape:window-height="996"
     inkscape:window-x="0"
     inkscape:window-y="0"
     inkscape:window-maximized="1"
     inkscape:current-layer="layer1"
     fit-margin-top="0"
     fit-margin-left="0"
     fit-margin-right="0"
     fit-margin-bottom="0" />
  <defs
     id="defs2" />
  <g
     inkscape:label="Layer 1"
     inkscape:groupmode="layer"
     id="layer1"
     transform="translate(-1.1192505,-101.93782)">
    <rect
       style="fill:#1a1a1a;fill-opacity:1;stroke:none;stroke-width:0.0627047;stroke-linecap:square"
       id="rect935"
       width="1.5495528"
       height="27.559238"
       x="1.1192505"
       y="114.7545" />
    <path
       style="fill:#1a1a1a;fill-opacity:1;stroke:none;stroke-width:0.264583px;stroke-linecap:butt;stroke-linejoin:miter;stroke-opacity:1"
       d="m 2.4132071,115.58348 v 25.90258 c 0,0 0.702393,-1.63342 3.75457,-2.31634 3.052181,-0.68292 36.0845059,-7.96342 39.9678659,-11.35906 3.88337,-3.39563 17.93269,-6.7214 17.93269,-6.7214 l 3.23289,-8.90091 c 0,0 -17.72026,-0.0133 -34.57922,0.9059 -13.719986,0.74803 -26.7264049,2.45989 -30.3087959,2.48923 z"
       id="path1390"
       sodipodi:nodetypes="ccssccsc" />
    <path
       style="fill:#1a1a1a;fill-opacity:1;stroke:#1a1a1a;stroke-width:0.264583px;stroke-linecap:butt;stroke-linejoin:miter;stroke-opacity:1"
       d="m 66.974217,112.31615 14.96987,-1.13474 2.17406,7.74377 3.05923,4.71722 -4.93676,0.42616 c 0,0 -5.81332,-2.0872 -7.33741,3.00226 -1.5241,5.08946 -5.65957,11.31962 -3.26085,14.877 2.39871,3.55738 1.45819,2.36976 1.45819,2.36976 h -15.0013 l 8.2275,-19.71786 c 1.10524,-2.64879 -2.58542,-3.65623 -2.58542,-3.65623 l 3.23289,-8.62734 -3.23289,8.62734 z"
       id="path2457"
       sodipodi:nodetypes="cccccssccscccc" />
    <path
       style="fill:#1a1a1a;fill-opacity:1;stroke:none;stroke-width:0.264583px;stroke-linecap:butt;stroke-linejoin:miter;stroke-opacity:1"
       d="m 83.588977,117.86685 3.5884,5.77555 c 0,0 0.37036,2.00367 3.17044,1.80847 2.80007,-0.19519 16.348673,-7.43952 16.348673,-7.43952 l -12.942553,-0.18593 c 0,0 2.17445,0.24689 2.98416,0.82379 1.2865,0.91661 1.01741,2.54529 -2.58029,4.42392 -7.77723,4.06108 -7.62397,-3.3547 -6.82673,-4.52835 0.79724,-1.17364 6.45281,-0.79574 6.45281,-0.79574 z"
       id="path3275"
       sodipodi:nodetypes="ccsccssscc" />
    <path
       style="fill:#1a1a1a;fill-opacity:1;stroke:#000000;stroke-width:0.122161px;stroke-linecap:butt;stroke-linejoin:miter;stroke-opacity:1"
       d="m 89.154737,117.62746 c 0,0 -1.70334,1.70863 0.21643,4.52755 1.91977,2.81891 -0.73089,-0.77377 -0.0818,-2.52435 0.64907,-1.75059 -0.1346,-2.0032 -0.1346,-2.0032 z"
       id="path3823" />
    <path
       style="fill:#1a1a1a;fill-opacity:1;stroke:#1a1a1a;stroke-width:0.264583px;stroke-linecap:butt;stroke-linejoin:miter;stroke-opacity:1"
       d="m 81.944087,111.18141 c 0,0 6.79926,-4.72404 13.8022,-5.34805 7.002943,-0.62402 40.135113,-0.18421 40.135113,-0.18421 l 0.17223,12.33651 -52.464653,-0.11881 z"
       id="path3971" />
    <rect
       style="fill:#1a1a1a;fill-opacity:1;stroke:none;stroke-width:0.0539946;stroke-linecap:square;stroke-opacity:1"
       id="rect4360"
       width="64.495155"
       height="4.2497873"
       x="135.7536"
       y="106.16035" />
    <path
       id="path4747"
       style="fill:#1a1a1a;fill-opacity:1;stroke:none;stroke-width:0.233652px;stroke-linecap:butt;stroke-linejoin:miter;stroke-opacity:1"
       d="m 200.06691,106.04028 v 4.55474 h 7.7742 v -4.55474 z m 4.14083,0.63916 3.24425,1.68174 -3.85041,1.62733 -3.14503,-1.66522 z" />
    <path
       id="path4989"
       style="fill:#1a1a1a;fill-opacity:1;stroke:none;stroke-width:0.278802px;stroke-linecap:butt;stroke-linejoin:miter;stroke-opacity:1"
       d="m 194.02426,103.6531 -2.3109,2.55136 7.46344,0.0613 -0.25086,-2.61263 z m -0.0897,0.89866 h 4.46119 v 0.97153 h -4.46119 z" />
    <path
       id="rect5705"
       style="stroke-width:0.0649999;stroke-linecap:square"
       d="m 103.01479,108.38244 h 15.96472 v 1.34425 h -15.96472 c -0.90059,-0.34603 -0.67048,-0.82019 0,-1.34425 z"
       sodipodi:nodetypes="ccccc" />
    <rect
       style="fill:#0a0a0a;fill-opacity:1;stroke:none;stroke-width:0.0712255;stroke-linecap:square;stroke-opacity:1"
       id="rect6245"
       width="12.736067"
       height="2.6083171"
       x="118.97951"
       y="107.40742" />
    <rect
       style="fill:#2e2e2e;fill-opacity:1;stroke:none;stroke-width:0.0408261;stroke-linecap:square;stroke-opacity:1"
       id="rect6371"
       width="0.62108022"
       height="1.4652731"
       x="129.30974"
       y="108.5508" />
    <path
       style="fill:#262626;fill-opacity:1;stroke:none;stroke-width:0.264583px;stroke-linecap:butt;stroke-linejoin:miter;stroke-opacity:1"
       d="m 136.05363,117.98566 h 46.7864 c 0,0 -0.46344,-8.70593 -9.22139,-8.90903 -8.75795,-0.2031 -37.80863,-0.32158 -37.80863,-0.32158 z"
       id="path7601"
       sodipodi:nodetypes="ccscc" />
    <rect
       style="fill:#262626;fill-opacity:1;stroke:none;stroke-width:0.070646;stroke-linecap:square;stroke-opacity:1"
       id="rect8985"
       width="8.6327667"
       height="4.6267157"
       x="179.73772"
       y="111.41666" />
    <rect
       style="fill:#262626;fill-opacity:1;stroke:none;stroke-width:0.0649999;stroke-linecap:square;stroke-opacity:1"
       id="rect9107"
       width="1.6602582"
       height="0.79196769"
       x="168.00574"
       y="117.94986" />
    <rect
       style="fill:#262626;fill-opacity:1;stroke:none;stroke-width:0.0649999;stroke-linecap:square;stroke-opacity:1"
       id="rect9107-3"
       width="1.6602582"
       height="0.79196769"
       x="170.60242"
       y="117.92656" />
    <rect
       style="fill:#262626;fill-opacity:1;stroke:none;stroke-width:0.0649999;stroke-linecap:square;stroke-opacity:1"
       id="rect9107-6"
       width="1.6602582"
       height="0.79196769"
       x="173.34723"
       y="117.94561" />
    <rect
       style="fill:#262626;fill-opacity:1;stroke:none;stroke-width:0.0649999;stroke-linecap:square;stroke-opacity:1"
       id="rect9107-3-7"
       width="1.6602582"
       height="0.79196769"
       x="175.94391"
       y="117.9223" />
    <circle
       style="fill:#262626;fill-opacity:1;stroke:none;stroke-width:0.0649999;stroke-linecap:square;stroke-opacity:1"
       id="path9287"
       cx="127.58121"
       cy="115.60142"
       r="0.83060807" />
    <rect
       style="fill:#1a1a1a;fill-opacity:1;stroke:none;stroke-width:0.0649999;stroke-linecap:square;stroke-opacity:1"
       id="rect9391"
       width="2.3462043"
       height="1.0650049"
       x="128.68996"
       y="104.71442" />
    <rect
       style="fill:#1a1a1a;fill-opacity:1;stroke:none;stroke-width:0.0649999;stroke-linecap:square;stroke-opacity:1"
       id="rect9391-5"
       width="2.3462043"
       height="1.0650049"
       x="125.70523"
       y="104.76344" />
    <rect
       style="fill:#1a1a1a;fill-opacity:1;stroke:none;stroke-width:0.0649999;stroke-linecap:square;stroke-opacity:1"
       id="rect9391-3"
       width="2.3462043"
       height="1.0650049"
       x="122.88532"
       y="104.75668" />
    <rect
       style="fill:#1a1a1a;fill-opacity:1;stroke:none;stroke-width:0.0649999;stroke-linecap:square;stroke-opacity:1"
       id="rect9391-5-5"
       width="2.3462043"
       height="1.0650049"
       x="119.90056"
       y="104.8057" />
    <rect
       style="fill:#1a1a1a;fill-opacity:1;stroke:none;stroke-width:0.0649999;stroke-linecap:square;stroke-opacity:1"
       id="rect9391-6"
       width="2.3462043"
       height="1.0650049"
       x="116.88113"
       y="104.74759" />
    <rect
       style="fill:#1a1a1a;fill-opacity:1;stroke:none;stroke-width:0.0649999;stroke-linecap:square;stroke-opacity:1"
       id="rect9391-5-2"
       width="2.3462043"
       height="1.0650049"
       x="113.89635"
       y="104.79659" />
    <rect
       style="fill:#1a1a1a;fill-opacity:1;stroke:none;stroke-width:0.0649999;stroke-linecap:square;stroke-opacity:1"
       id="rect9391-3-9"
       width="2.3462043"
       height="1.0650049"
       x="111.07642"
       y="104.78985" />
    <rect
       style="fill:#1a1a1a;fill-opacity:1;stroke:none;stroke-width:0.0649999;stroke-linecap:square;stroke-opacity:1"
       id="rect9391-5-5-1"
       width="2.3462043"
       height="1.0650049"
       x="108.09163"
       y="104.83887" />
    <path
       style="mix-blend-mode:multiply;fill:#1a1a1a;fill-opacity:1;stroke:none;stroke-width:0.264583px;stroke-linecap:butt;stroke-linejoin:miter;stroke-opacity:1"
       d="m 92.826269,104.78499 c 0,0 2.911777,-0.29731 3.040153,-1.79566 0.128376,-1.49835 2.767735,-0.95579 2.767735,-0.95579 0,0 -0.690097,1.75191 1.176774,1.9713 1.866839,0.21938 6.693379,0.36884 6.693379,0.36884 l -0.092,1.33676 -13.539099,0.24499 z"
       id="path9849"
       sodipodi:nodetypes="cscscccc" />
  </g>
</svg>
