<?xml version="1.0" encoding="UTF-8" standalone="no"?>
<!-- Created with Inkscape (http://www.inkscape.org/) -->

<svg
   width="50mm"
   height="9.2123384mm"
   viewBox="0 0 50 9.2123382"
   version="1.1"
   id="svg5"
   inkscape:version="1.4 (86a8ad7, 2024-10-11)"
   sodipodi:docname="kar98k.svg"
   xmlns:inkscape="http://www.inkscape.org/namespaces/inkscape"
   xmlns:sodipodi="http://sodipodi.sourceforge.net/DTD/sodipodi-0.dtd"
   xmlns="http://www.w3.org/2000/svg"
   xmlns:svg="http://www.w3.org/2000/svg">
  <sodipodi:namedview
     id="namedview7"
     pagecolor="#ffffff"
     bordercolor="#666666"
     borderopacity="1.0"
     inkscape:pageshadow="2"
     inkscape:pageopacity="0.0"
     inkscape:pagecheckerboard="0"
     inkscape:document-units="mm"
     showgrid="false"
     inkscape:zoom="1.1455122"
     inkscape:cx="90.789081"
     inkscape:cy="-84.241792"
     inkscape:window-width="1920"
     inkscape:window-height="1009"
     inkscape:window-x="-8"
     inkscape:window-y="-8"
     inkscape:window-maximized="1"
     inkscape:current-layer="layer2"
     fit-margin-top="0"
     fit-margin-left="0"
     fit-margin-right="0"
     fit-margin-bottom="0"
     inkscape:showpageshadow="2"
     inkscape:deskcolor="#d1d1d1" />
  <defs
     id="defs2" />
  <g
     inkscape:groupmode="layer"
     id="layer2"
     inkscape:label="Layer 2"
     transform="matrix(0.57276989,0,0,0.57276989,-53.083819,-79.128118)">
    <path
       id="path5411"
       style="fill:#383838;fill-opacity:1;stroke:#303030;stroke-width:0;stroke-linecap:square;stroke-linejoin:round;stroke-miterlimit:4;stroke-dasharray:none"
       d="m 119.84991,146.52901 a 1.1746118,1.2404685 0 0 0 -1.17401,1.24131 1.1746118,1.2404685 0 0 0 1.17401,1.23984 1.1746118,1.2404685 0 0 0 0.12787,-0.009 1.1746118,1.2404685 0 0 1 -1.02984,-1.22968 1.1746118,1.2404685 0 0 1 1.05727,-1.23405 1.1746118,1.2404685 0 0 0 -0.1551,-0.011 z" />
    <path
       id="path4939"
       style="fill:#383838;fill-opacity:1;stroke:#000000;stroke-width:0;stroke-linecap:butt;stroke-linejoin:miter;stroke-miterlimit:4;stroke-dasharray:none;stroke-opacity:1"
       d="m 122.18908,146.50191 -1.62486,0.097 c 0.0112,0.006 0.0222,0.0112 0.0333,0.0171 0.97854,0.51959 0.56794,2.14763 0.38506,2.30751 -0.18292,0.1599 -2.76643,0.47645 -3.13754,-0.24054 -0.36826,-0.7115 0.45601,-1.93128 0.46873,-1.95003 l -0.8015,0.0475 0.41644,0.29378 c 0,0 -0.41067,1.14142 -0.27763,1.63818 0.13303,0.49676 3.39655,0.87908 3.63194,0.23484 0.23539,-0.64426 0.0447,-1.93957 0.0447,-1.93957 z" />
  </g>
  <g
     inkscape:label="Layer 1"
     inkscape:groupmode="layer"
     id="layer1"
     transform="matrix(0.57276989,0,0,0.57276989,-53.083819,-79.128118)">
    <g
       id="g889"
       transform="translate(63.254621,34.406235)"
       style="fill:#a2792c;fill-opacity:1">
      <path
         id="rect6015"
         style="fill:#c79435;fill-opacity:1;stroke:#292929;stroke-width:0;stroke-linecap:square;stroke-linejoin:round;stroke-miterlimit:0"
         d="m 48.193708,111.0307 c 2.992995,-0.0726 4.296056,-1.56211 5.519593,-2.6707 2.591025,-0.38145 52.383309,-0.25377 53.957219,-0.15147 l -0.009,1.49723 -54.558846,2.78927 c -1.701947,-0.54187 -4.331837,1.91976 -5.10613,3.33543 -4.212531,0.17751 -1.940023,-1.93601 0.197207,-4.7998 z"
         sodipodi:nodetypes="cccccccc" />
      <path
         id="rect7287"
         style="fill:#c59335;fill-opacity:1;stroke:#292929;stroke-width:0;stroke-linecap:square;stroke-linejoin:round;stroke-miterlimit:0"
         d="m 29.538914,110.27405 19.737191,-0.30335 -3.701501,5.00387 -16.150088,4.85296 z"
         sodipodi:nodetypes="ccccc" />
      <rect
         style="fill:#c59335;fill-opacity:1;stroke:#292929;stroke-width:0;stroke-linecap:square;stroke-linejoin:round;stroke-miterlimit:0;stroke-dasharray:none"
         id="rect8804"
         width="1.1523387"
         height="1.4161541"
         x="116.04262"
         y="43.367359"
         transform="matrix(0.70901349,0.70519491,-0.76093349,0.64882989,0,0)" />
    </g>
    <rect
       style="fill:#c59335;fill-opacity:1;stroke:#303030;stroke-width:0;stroke-linecap:square;stroke-linejoin:round;stroke-miterlimit:0"
       id="rect3174"
       width="13.820801"
       height="1.8015007"
       x="145.9433"
       y="140.99586" />
    <path
       id="rect3278"
       style="stroke:#303030;stroke-width:0;stroke-linecap:square;stroke-linejoin:round;stroke-miterlimit:0"
       d="m 159.7641,140.93968 h 2.1657 v 3.62823 l -2.1657,0.15566 z"
       sodipodi:nodetypes="ccccc" />
    <rect
       style="fill:#000000;fill-opacity:1;stroke:#303030;stroke-width:0;stroke-linecap:square;stroke-linejoin:round;stroke-miterlimit:0"
       id="rect3836"
       width="18.044434"
       height="1.6857156"
       x="161.92979"
       y="140.93968" />
    <path
       id="rect3838"
       style="stroke:#303030;stroke-width:0;stroke-linecap:square;stroke-linejoin:round;stroke-miterlimit:0"
       d="m 177.81009,140.15398 h 1.26354 v 0.83616 h -1.79271 z"
       sodipodi:nodetypes="ccccc" />
    <path
       id="rect4019"
       style="stroke:#303030;stroke-width:0;stroke-linecap:square;stroke-linejoin:round;stroke-miterlimit:0"
       d="m 169.07771,140.94658 h 3.92211 v 2.97052 l -3.92211,0.2935 z"
       sodipodi:nodetypes="ccccc" />
    <rect
       style="fill:#000000;fill-opacity:1;stroke:#303030;stroke-width:0;stroke-linecap:square;stroke-linejoin:round;stroke-miterlimit:0"
       id="rect4238"
       width="29.766785"
       height="1.6918228"
       x="116.17651"
       y="140.99586" />
    <rect
       style="fill:#000000;fill-opacity:1;stroke:#303030;stroke-width:0;stroke-linecap:square;stroke-linejoin:round;stroke-miterlimit:0"
       id="rect4342"
       width="2.5356288"
       height="2.1714308"
       x="116.95139"
       y="140.59654" />
    <rect
       style="fill:#000000;fill-opacity:1;stroke:#303030;stroke-width:0;stroke-linecap:square;stroke-linejoin:round;stroke-miterlimit:0"
       id="rect4446"
       width="0.66203958"
       height="2.4252167"
       x="119.58485"
       y="138.66052" />
    <circle
       style="fill:#000000;fill-opacity:1;stroke:#303030;stroke-width:0;stroke-linecap:square;stroke-linejoin:round;stroke-miterlimit:0"
       id="path4550"
       cx="119.90047"
       cy="138.97787"
       r="0.82794833" />
    <rect
       style="fill:#000000;fill-opacity:1;stroke:#303030;stroke-width:0;stroke-linecap:square;stroke-linejoin:round;stroke-miterlimit:0"
       id="rect4654"
       width="3.0045385"
       height="2.3460777"
       x="122.3419"
       y="140.37201" />
    <rect
       style="fill:#000000;fill-opacity:1;stroke:#303030;stroke-width:0;stroke-linecap:square;stroke-linejoin:round;stroke-miterlimit:0"
       id="rect4654-3"
       width="3.0045385"
       height="2.3460777"
       x="130.50073"
       y="140.33328" />
    <rect
       style="fill:#000000;fill-opacity:1;stroke:#303030;stroke-width:0;stroke-linecap:square;stroke-linejoin:round;stroke-miterlimit:0"
       id="rect4654-3-6"
       width="4.8809419"
       height="2.3460777"
       x="141.06236"
       y="140.11737" />
  </g>
</svg>
