<?xml version="1.0" encoding="UTF-8" standalone="no"?>
<!-- Created with Inkscape (http://www.inkscape.org/) -->

<svg
   width="206.88754mm"
   height="54.696739mm"
   viewBox="0 0 206.88754 54.696739"
   version="1.1"
   id="svg5"
   inkscape:version="1.1.2 (0a00cf5339, 2022-02-04)"
   sodipodi:docname="spas12.svg"
   xmlns:inkscape="http://www.inkscape.org/namespaces/inkscape"
   xmlns:sodipodi="http://sodipodi.sourceforge.net/DTD/sodipodi-0.dtd"
   xmlns="http://www.w3.org/2000/svg"
   xmlns:svg="http://www.w3.org/2000/svg">
  <sodipodi:namedview
     id="namedview7"
     pagecolor="#ffffff"
     bordercolor="#666666"
     borderopacity="1.0"
     inkscape:pageshadow="2"
     inkscape:pageopacity="0.0"
     inkscape:pagecheckerboard="0"
     inkscape:document-units="mm"
     showgrid="false"
     inkscape:zoom="0.66111222"
     inkscape:cx="402.35226"
     inkscape:cy="-249.57941"
     inkscape:window-width="1920"
     inkscape:window-height="996"
     inkscape:window-x="0"
     inkscape:window-y="0"
     inkscape:window-maximized="1"
     inkscape:current-layer="layer1"
     fit-margin-top="0"
     fit-margin-left="0"
     fit-margin-right="0"
     fit-margin-bottom="0" />
  <defs
     id="defs2" />
  <g
     inkscape:label="Layer 1"
     inkscape:groupmode="layer"
     id="layer1"
     transform="translate(-14.854278,-116.17136)">
    <rect
       style="fill:#272727;fill-opacity:1;stroke:#292929;stroke-width:0;stroke-linecap:square;stroke-linejoin:round;stroke-miterlimit:0"
       id="rect880"
       width="131.11182"
       height="6.8568997"
       x="90.566109"
       y="122.76176" />
    <rect
       style="fill:#272727;fill-opacity:1;stroke:#292929;stroke-width:0;stroke-linecap:square;stroke-linejoin:round;stroke-miterlimit:0"
       id="rect880-3"
       width="35.977394"
       height="7.0286679"
       x="185.76442"
       y="132.66016" />
    <rect
       style="fill:#272727;fill-opacity:1;stroke:#292929;stroke-width:0;stroke-linecap:square;stroke-linejoin:round;stroke-miterlimit:0"
       id="rect882"
       width="7.717196"
       height="9.0025148"
       x="214.02461"
       y="121.5602" />
    <path
       id="rect986"
       style="fill:#272727;stroke:#292929;stroke-width:0;stroke-linecap:square;stroke-linejoin:round;stroke-miterlimit:0"
       d="m 203.88928,116.17136 h 5.67469 l 0.52917,6.82892 h -6.20386 z"
       sodipodi:nodetypes="ccccc" />
    <path
       id="rect1225"
       style="fill:#171717;stroke:#292929;stroke-width:0;stroke-linecap:square;stroke-linejoin:round;stroke-miterlimit:0"
       d="m 117.44792,125.89635 h 80.25702 l 6.25888,2.11667 v 12.94719 c -9.41795,-6.5e-4 -7.6e-4,-0.1939 -28.33831,0.0147 -6.63718,0.0489 -7.84289,-2.81772 -15.40494,-3.44506 -12.12849,-1.00618 -36.40777,-2.15521 -42.77265,3.43036 z"
       sodipodi:nodetypes="ccccsscc" />
    <rect
       style="fill:#070707;fill-opacity:1;stroke:#292929;stroke-width:0;stroke-linecap:square;stroke-linejoin:round;stroke-miterlimit:0"
       id="rect2533"
       width="2.3246965"
       height="10.281442"
       x="119.29964"
       y="126.04373" />
    <rect
       style="fill:#070707;fill-opacity:1;stroke:#292929;stroke-width:0;stroke-linecap:square;stroke-linejoin:round;stroke-miterlimit:0"
       id="rect2533-6"
       width="2.3246968"
       height="9.5246477"
       x="124.0974"
       y="125.93787" />
    <rect
       style="fill:#070707;fill-opacity:1;stroke:#292929;stroke-width:0;stroke-linecap:square;stroke-linejoin:round;stroke-miterlimit:0"
       id="rect2533-7"
       width="2.3246968"
       height="8.0807648"
       x="129.16782"
       y="126.04101" />
    <rect
       style="fill:#070707;fill-opacity:1;stroke:#292929;stroke-width:0;stroke-linecap:square;stroke-linejoin:round;stroke-miterlimit:0"
       id="rect2533-6-5"
       width="2.3246968"
       height="8.0807648"
       x="133.96556"
       y="125.93513" />
    <rect
       style="fill:#070707;fill-opacity:1;stroke:#292929;stroke-width:0;stroke-linecap:square;stroke-linejoin:round;stroke-miterlimit:0"
       id="rect2533-3"
       width="2.3246968"
       height="8.0807648"
       x="138.54453"
       y="125.96885" />
    <rect
       style="fill:#070707;fill-opacity:1;stroke:#292929;stroke-width:0;stroke-linecap:square;stroke-linejoin:round;stroke-miterlimit:0"
       id="rect2533-6-56"
       width="2.3246968"
       height="8.0807648"
       x="143.34222"
       y="125.86301" />
    <rect
       style="fill:#070707;fill-opacity:1;stroke:#292929;stroke-width:0;stroke-linecap:square;stroke-linejoin:round;stroke-miterlimit:0"
       id="rect2533-7-2"
       width="2.3246968"
       height="8.0807648"
       x="148.41266"
       y="125.96614" />
    <rect
       style="fill:#070707;fill-opacity:1;stroke:#292929;stroke-width:0;stroke-linecap:square;stroke-linejoin:round;stroke-miterlimit:0"
       id="rect2533-6-5-9"
       width="2.3246968"
       height="8.0807648"
       x="153.21037"
       y="125.86024" />
    <rect
       style="fill:#070707;fill-opacity:1;stroke:#292929;stroke-width:0;stroke-linecap:square;stroke-linejoin:round;stroke-miterlimit:0"
       id="rect2533-1"
       width="2.3246968"
       height="8.0807648"
       x="157.75571"
       y="125.95641" />
    <rect
       style="fill:#070707;fill-opacity:1;stroke:#292929;stroke-width:0;stroke-linecap:square;stroke-linejoin:round;stroke-miterlimit:0"
       id="rect2533-6-2"
       width="2.3246968"
       height="8.0807648"
       x="162.55341"
       y="125.85053" />
    <rect
       style="fill:#070707;fill-opacity:1;stroke:#292929;stroke-width:0;stroke-linecap:square;stroke-linejoin:round;stroke-miterlimit:0"
       id="rect2533-7-7"
       width="2.3246968"
       height="8.8497791"
       x="167.62384"
       y="125.95368" />
    <rect
       style="fill:#070707;fill-opacity:1;stroke:#292929;stroke-width:0;stroke-linecap:square;stroke-linejoin:round;stroke-miterlimit:0"
       id="rect2533-6-5-0"
       width="2.3246968"
       height="9.9867802"
       x="172.42154"
       y="125.84778" />
    <rect
       style="fill:#070707;fill-opacity:1;stroke:#292929;stroke-width:0;stroke-linecap:square;stroke-linejoin:round;stroke-miterlimit:0"
       id="rect2533-3-9"
       width="2.3246965"
       height="11.22336"
       x="177.0005"
       y="125.88152" />
    <rect
       style="fill:#070707;fill-opacity:1;stroke:#292929;stroke-width:0;stroke-linecap:square;stroke-linejoin:round;stroke-miterlimit:0"
       id="rect2533-6-56-3"
       width="2.3246965"
       height="11.207066"
       x="181.79819"
       y="125.89156" />
    <rect
       style="fill:#070707;fill-opacity:1;stroke:#292929;stroke-width:0;stroke-linecap:square;stroke-linejoin:round;stroke-miterlimit:0"
       id="rect2533-7-2-6"
       width="2.3246965"
       height="10.768016"
       x="186.86862"
       y="125.87881" />
    <path
       id="rect3906"
       style="fill:#303030;fill-opacity:1;stroke:#292929;stroke-width:0;stroke-linecap:square;stroke-linejoin:round;stroke-miterlimit:0"
       d="m 117.01718,122.77303 v 3.12332 h 80.15859 v -3.12332 z m 63.60146,0.62942 h 5.29219 c 0.58905,0.61119 0.60586,1.24979 0,1.91823 h -5.29219 c -0.76853,-0.58009 -0.70718,-1.22423 0,-1.91823 z m -8.59947,0.004 h 5.29218 c 0.58905,0.61119 0.60586,1.24979 0,1.91823 h -5.29218 c -0.76854,-0.58009 -0.7072,-1.22423 0,-1.91823 z m 16.40468,0 h 5.29167 c 0.58905,0.61119 0.60586,1.24979 0,1.91823 h -5.29167 c -0.76854,-0.58009 -0.7072,-1.22423 0,-1.91823 z m -25.29923,0.01 h 5.29219 c 0.58905,0.61119 0.60586,1.24979 0,1.91823 h -5.29219 c -0.76855,-0.58009 -0.70721,-1.22423 0,-1.91823 z m -8.59947,0.004 h 5.29218 c 0.58905,0.61119 0.60586,1.2498 0,1.91823 h -5.29218 c -0.76856,-0.58008 -0.70722,-1.22422 0,-1.91823 z m -8.77261,0.0119 h 5.2922 c 0.58905,0.61119 0.60586,1.24979 0,1.91823 h -5.2922 c -0.76854,-0.58009 -0.7072,-1.22423 0,-1.91823 z m -8.59901,0.004 h 5.2917 c 0.58905,0.6112 0.60586,1.24979 0,1.91823 h -5.2917 c -0.76855,-0.58009 -0.70721,-1.22423 0,-1.91823 z m -8.89511,0.01 h 5.29221 c 0.58905,0.61119 0.60586,1.24979 0,1.91823 h -5.29221 c -0.76856,-0.58009 -0.70721,-1.22423 0,-1.91823 z m -8.59953,0.004 h 5.29222 c 0.58906,0.61119 0.60586,1.24979 0,1.91823 h -5.29222 c -0.76855,-0.58009 -0.70721,-1.22423 0,-1.91823 z" />
    <path
       id="rect3906-7"
       style="fill:#303030;fill-opacity:1;stroke:#292929;stroke-width:0;stroke-linecap:square;stroke-linejoin:round;stroke-miterlimit:0"
       d="m 90.498978,122.82147 v 3.12332 h 80.158662 v -3.12332 z m 63.601532,0.62942 h 5.29219 c 0.58905,0.61119 0.60586,1.24979 0,1.91823 h -5.29219 c -0.76853,-0.58009 -0.70718,-1.22423 0,-1.91823 z m -8.59948,0.004 h 5.29219 c 0.58905,0.61119 0.60586,1.24979 0,1.91823 h -5.29219 c -0.76854,-0.58009 -0.7072,-1.22423 0,-1.91823 z m 16.40469,0 h 5.29167 c 0.58905,0.61119 0.60586,1.24979 0,1.91823 h -5.29167 c -0.76854,-0.58009 -0.7072,-1.22423 0,-1.91823 z m -25.29928,0.01 h 5.29223 c 0.58905,0.61119 0.60586,1.24979 0,1.91823 h -5.29223 c -0.76855,-0.58009 -0.70721,-1.22423 0,-1.91823 z m -8.59952,0.004 h 5.29221 c 0.58906,0.61119 0.60587,1.2498 0,1.91823 h -5.29221 c -0.76856,-0.58008 -0.70722,-1.22422 0,-1.91823 z m -8.77264,0.0119 h 5.29222 c 0.58905,0.61119 0.60586,1.24979 0,1.91823 h -5.29222 c -0.76854,-0.58009 -0.7072,-1.22423 0,-1.91823 z m -8.599,0.004 h 5.29169 c 0.58905,0.6112 0.60586,1.24979 0,1.91823 h -5.29169 c -0.76855,-0.58009 -0.70721,-1.22423 0,-1.91823 z m -8.89512,0.01 h 5.29221 c 0.58905,0.61119 0.60587,1.24979 0,1.91823 h -5.29221 c -0.76855,-0.58009 -0.70721,-1.22423 0,-1.91823 z m -8.599482,0.004 h 5.292183 c 0.589055,0.61119 0.605858,1.24979 0,1.91823 h -5.292183 c -0.768548,-0.58009 -0.707213,-1.22423 0,-1.91823 z" />
    <path
       id="rect8108-9"
       style="fill:#262626;fill-opacity:1;stroke:#292929;stroke-width:0;stroke-linecap:square;stroke-linejoin:round;stroke-miterlimit:0"
       d="m 90.498899,126.06735 h 26.715751 v 13.84412 H 90.498899 Z"
       sodipodi:nodetypes="ccccc" />
    <path
       id="rect5485"
       style="fill:#303030;fill-opacity:1;stroke:#292929;stroke-width:0;stroke-linecap:square;stroke-linejoin:round;stroke-miterlimit:0"
       d="m 90.857806,125.80472 v 14.09733 h 26.957624 v -14.09733 z m 14.716604,2.83497 h 5.39997 c 0.56951,0.60146 0.74588,1.22912 0,1.91823 h -5.39997 c -0.68774,-0.49488 -0.87095,-1.09579 0,-1.91823 z m -9.787002,0.11162 h 5.399952 c 0.56951,0.60146 0.74588,1.22912 0,1.91823 h -5.399952 c -0.687727,-0.49488 -0.87094,-1.09579 0,-1.91823 z m 5.155282,3.88917 h 5.39998 c 0.56951,0.60146 0.74588,1.22912 0,1.91823 h -5.39998 c -0.68773,-0.49488 -0.87094,-1.09579 0,-1.91823 z m -8.761922,0.0114 h 5.399942 c 0.569511,0.60146 0.745878,1.22912 0,1.91823 h -5.399942 c -0.687726,-0.49488 -0.870942,-1.09579 0,-1.91823 z m 17.944672,0.0393 h 5.39998 c 0.56951,0.60146 0.74588,1.22912 0,1.91823 h -5.39998 c -0.68773,-0.49488 -0.87094,-1.09579 0,-1.91823 z m -4.57582,3.67523 h 5.39997 c 0.56952,0.60146 0.74589,1.22912 0,1.91823 h -5.39997 c -0.68773,-0.49488 -0.87094,-1.09579 0,-1.91823 z m -9.786467,0.11162 h 5.399947 c 0.56952,0.60146 0.74588,1.22912 0,1.91823 h -5.399947 c -0.687726,-0.49488 -0.870941,-1.09579 0,-1.91823 z"
       sodipodi:nodetypes="cccccccccccccccccccccccccccccccccccccccc" />
    <rect
       style="fill:#171717;fill-opacity:1;stroke:#292929;stroke-width:0;stroke-linecap:square;stroke-linejoin:round;stroke-miterlimit:0"
       id="rect10698"
       width="50.253136"
       height="15.552699"
       x="40.604671"
       y="123.80179" />
    <rect
       style="fill:#303030;fill-opacity:1;stroke:#292929;stroke-width:0;stroke-linecap:square;stroke-linejoin:round;stroke-miterlimit:0"
       id="rect11305"
       width="22.393972"
       height="3.7545388"
       x="64.114906"
       y="124.9637" />
    <rect
       style="fill:#212121;fill-opacity:1;stroke:#292929;stroke-width:0;stroke-linecap:square;stroke-linejoin:round;stroke-miterlimit:0"
       id="rect11553"
       width="2.6249712"
       height="0.97597164"
       x="81.750099"
       y="127.72642" />
    <rect
       style="fill:#080808;fill-opacity:1;stroke:#292929;stroke-width:0;stroke-linecap:square;stroke-linejoin:round;stroke-miterlimit:0"
       id="rect11939"
       width="12.415585"
       height="1.3271781"
       x="51.699322"
       y="127.39105"
       rx="0.30000001"
       ry="0.30000001" />
    <path
       id="path12612"
       style="fill:#171717;fill-opacity:1;stroke:#171717;stroke-width:0.264583px;stroke-linecap:butt;stroke-linejoin:miter;stroke-opacity:1"
       d="m 64.603821,139.23801 -23.999053,0.11627 1.397848,8.19278 c 0,0 6.322867,3.7476 10.076905,2.35387 3.754035,-1.39374 3.8809,-4.21422 3.8809,-4.21422 0,0 7.259704,-2.34093 7.609353,-3.06131 0.349652,-0.72038 1.034047,-3.38739 1.034047,-3.38739 z m -15.973186,0.30179 c 2.468866,-0.012 4.664315,0.154 4.664315,0.154 0,0 3.930291,4.78966 0.0646,8.60361 -4.174816,4.11893 -10.410735,-1.51361 -10.410735,-1.51361 0,0 -2.291767,-4.19098 -0.968416,-6.01772 0.70303,-0.97045 3.852193,-1.21266 6.65024,-1.22628 z" />
    <path
       id="rect13792"
       style="fill:#171717;stroke:#171717;stroke-width:0;stroke-linecap:square;stroke-linejoin:round;stroke-miterlimit:0"
       d="M 42.107742,139.35449 H 44.6314 c 0.24048,0 0.543187,0.17463 0.43408,0.3 -1.981094,2.27644 -1.214204,4.55287 0,6.82931 0.07822,0.14664 -0.1936,0.3 -0.43408,0.3 h -2.523658 c -0.240481,0 -0.434081,-0.1338 -0.434081,-0.3 v -6.82931 c 0,-0.1662 0.1936,-0.3 0.434081,-0.3 z"
       sodipodi:nodetypes="sssssssss" />
    <path
       id="rect15081"
       style="fill:#171717;stroke:#171717;stroke-width:0;stroke-linecap:square;stroke-linejoin:round;stroke-miterlimit:0"
       d="m 25.981277,125.39494 15.152561,-1.59316 -0.52907,15.5525 c -1.501459,8.82911 -6.433194,13.13962 -8.058096,21.81355 -0.520602,2.77904 -1.296976,7.07208 2.493614,9.70027 l -19.251485,-0.29525 c -4.753683,-12.40554 10.451849,-27.17113 4.982535,-32.29405 -5.469313,-5.12292 5.209941,-12.88386 5.209941,-12.88386 z"
       sodipodi:nodetypes="cccscczc" />
    <path
       id="rect17139"
       style="fill:#303030;stroke:#303030;stroke-width:0;stroke-linecap:square;stroke-linejoin:round;stroke-miterlimit:0"
       transform="rotate(-8.800873)"
       d="m 5.885937,128.33567 38.697882,-1.78118 0.883947,4.91117 -38.6978824,1.78119 z"
       sodipodi:nodetypes="ccccc" />
    <rect
       style="fill:#303030;fill-opacity:1;stroke:#303030;stroke-width:0;stroke-linecap:square;stroke-linejoin:round;stroke-miterlimit:0;stroke-opacity:1"
       id="rect18044"
       width="48.748318"
       height="4.7143579"
       x="63.421844"
       y="118.24308" />
    <path
       id="rect18548"
       style="fill:#303030;stroke:#303030;stroke-width:0;stroke-linecap:square;stroke-linejoin:round;stroke-miterlimit:0"
       transform="rotate(16.995304)"
       d="m 141.83321,80.292664 12.38678,1.208828 -4.10021,1.735349 -8.28657,1.980061 z"
       sodipodi:nodetypes="ccccc" />
  </g>
</svg>
