<?xml version="1.0" encoding="UTF-8" standalone="no"?>
<!-- Created with Inkscape (http://www.inkscape.org/) -->

<svg
   width="50mm"
   height="21.105719mm"
   viewBox="0 0 50 21.105718"
   version="1.1"
   id="svg5"
   inkscape:version="1.4 (86a8ad7, 2024-10-11)"
   sodipodi:docname="vector.svg"
   xmlns:inkscape="http://www.inkscape.org/namespaces/inkscape"
   xmlns:sodipodi="http://sodipodi.sourceforge.net/DTD/sodipodi-0.dtd"
   xmlns="http://www.w3.org/2000/svg"
   xmlns:svg="http://www.w3.org/2000/svg">
  <sodipodi:namedview
     id="namedview7"
     pagecolor="#ffffff"
     bordercolor="#666666"
     borderopacity="1.0"
     inkscape:pageshadow="2"
     inkscape:pageopacity="0.0"
     inkscape:pagecheckerboard="0"
     inkscape:document-units="mm"
     showgrid="false"
     inkscape:zoom="2.6444489"
     inkscape:cx="90.756151"
     inkscape:cy="54.642766"
     inkscape:window-width="1920"
     inkscape:window-height="1009"
     inkscape:window-x="-8"
     inkscape:window-y="-8"
     inkscape:window-maximized="1"
     inkscape:current-layer="layer1-1"
     fit-margin-top="0"
     fit-margin-left="0"
     fit-margin-right="0"
     fit-margin-bottom="0"
     inkscape:showpageshadow="2"
     inkscape:deskcolor="#d1d1d1" />
  <defs
     id="defs2" />
  <g
     inkscape:groupmode="layer"
     id="layer1-1"
     inkscape:label="Layer 1">
    <path
       d="m 29.736474,20.404655 2.375722,0.01063"
       fill="none"
       stroke="#323232"
       stroke-width="0.699298"
       id="path10-1" />
    <path
       d="m 31.890016,12.754952 -1.992501,5.809874 c 0,0 -0.259353,0.15403 -0.222515,0.470743 l 0.0079,0.759025 c 0,0 -0.01854,0.126339 0.221032,0.220043 l 1.849102,0.63664 c 0.359485,0.09395 0.297923,-0.233641 0.297923,-0.233641 -0.05662,-0.392862 0.222516,-0.94297 0.33402,-1.37638 0.0539,-0.210153 -0.08777,-0.366162 -0.08777,-0.366162 l 2.013514,-5.922862 z"
       style="fill:#7d8089;fill-opacity:1;stroke:#323232;stroke-width:0.874123"
       id="path1-0"
       sodipodi:nodetypes="ccccccccccc" />
    <path
       d="m 14.668075,3.5555303 -13.5699704,0.00346 c 0,0 -1.25943608,1.3731668 -0.33500845,3.4512121 C 1.0629973,7.6849203 1.797545,12.346615 1.797545,12.346615 h 2.6578212 l 0.4195652,-0.839377 0.2801221,-2.5181317 8.3935235,-1.259189 0.979314,-2.0983193 2.518379,3e-7 0.83913,-0.419812 2.47e-4,-2.2155109 -1.052003,-2.483e-4 z"
       fill="#ffffff"
       stroke="#323232"
       stroke-width="0.874123"
       id="path1-5"
       style="fill:#8c887a;fill-opacity:1"
       sodipodi:nodetypes="cccccccccccccc" />
    <path
       d="M 0.817735,6.75085 0.47209515,4.604319 1.4022088,3.4625684 l 0.022993,3.3048463 12.2638062,-0.016566 -10e-7,0.658645 -12.87102622,-2.472e-4 z"
       fill="#323232"
       id="path2-2"
       style="stroke-width:0.349649" />
    <path
       d="M 6.2738101,7.170168 6.8338069,8.7092314 11.589947,8.0097921 11.590196,7.1704149 Z M 0.81823031,7.3101049 1.6573597,12.206924 2.3567994,12.206677 1.9374817,7.3103518 Z"
       fill="#323232"
       id="path3-7"
       style="stroke-width:0.349649" />
    <circle
       r="0.67412335"
       cy="8.6298227"
       cx="3.5172865"
       fill="#323232"
       id="circle3"
       style="stroke-width:0.349649" />
    <path
       fill="#323232"
       d="m 14.701205,3.4076812 1.017884,2.472e-4 v 2.1534527 l -1.017883,-2.469e-4 z"
       id="path4-6"
       style="stroke-width:0.349649" />
    <path
       d="m 19.056818,3.0365749 v 2.1757054 c 0.694001,0.1337565 1.020851,0.6583982 1.119252,1.1187573 0.13969,0.6994397 -1.678754,1.958629 -2.378193,6.2954514 l 6.854953,2.937696 6.623539,10e-7 c 0.717735,-0.630213 1.129636,-0.616862 1.784078,0 l 1.018872,2.46e-4 2.604665,-6.5753257 c 0.254904,-0.4828584 0.979563,-0.4198124 0.979563,-0.4198124 l 6.854701,2.468e-4 -0.391128,-5.5327186 z m 8.394019,2.64719 c 0.402257,0.7780621 -1.818693,5.9634101 -1.818693,5.9634101 0,0 -1.789022,2.563376 -2.728284,2.871683 l -2.26125,-1.011208 3.02423,-7.8157253 -3.870529,0.00618 3.877205,-0.014339 z"
       fill="#ffffff"
       stroke="#323232"
       stroke-width="0.874123"
       id="path5-1"
       style="fill:#ac9c5a;fill-opacity:1"
       sodipodi:nodetypes="ccccccccccccccccccccc" />
    <path
       d="m 26.910866,8.9102366 -0.293968,-0.2796272 -1.600626,-1.1e-6 -1.678507,-0.6361465 -0.353552,0.014836 0.251442,-0.4581343 0.168865,0.240069 1.67109,0.6450476 1.550684,-0.00593 0.429207,-0.2195484 z M 24.393724,6.3921059 c 0,0 0.09173,0.1911154 0.268749,0.2816053 0.394841,0.2593539 0.433905,0.8888249 0.633673,0.9778309 -0.167628,-0.4544249 -0.324871,-1.086369 -0.218064,-1.2594362 z"
       fill="#323232"
       stroke="#323232"
       stroke-width="0.356292"
       id="path6-4" />
    <rect
       transform="matrix(0.92906559,0.36991504,-0.36187532,0.9322265,0,0)"
       ry="0.5594396"
       rx="0.55943966"
       y="-4.7612319"
       x="34.93301"
       height="5.1961446"
       width="1.2381098"
       fill="#ffffff"
       stroke="#323232"
       stroke-width="0.664333"
       id="rect6"
       style="fill:#5e552e;fill-opacity:1" />
    <rect
       width="0.73531419"
       height="3.0853076"
       x="30.286003"
       y="0.072024144"
       rx="0.33216763"
       ry="0.33216703"
       transform="matrix(0.93149711,0.36374873,-0.3556742,0.93461001,0,0)"
       fill="#323232"
       stroke="#323232"
       stroke-width="0.283566"
       id="rect7" />
    <path
       d="m 46.515205,6.1097587 -0.08011,0.083072 -0.759025,-0.00593 -0.0403,0.1006266 0.01979,1.1412565 0.06032,0.1077961 0.687078,0.00224 0.07293,0.085298 3.45319,-2.468e-4 L 49.761455,7.3167933 49.999301,7.1531205 50,6.5753217 49.760176,6.4047262 49.93893,6.1102643 Z m 0.761005,0.3159709 1.678748,10e-7 c 0.06156,0.1021098 0.0024,0.3011367 0.0024,0.3011367 l -1.339792,-0.00224 c 0,0 -0.265538,-0.1755402 -0.341432,-0.2989118 z m 1.681224,0.6141428 c 0,0 0.05933,0.1992747 -0.0028,0.3013841 l -1.678753,-1e-6 c 0.0759,-0.1233726 0.341436,-0.2989129 0.341436,-0.2989129 z m -4.049782,-0.7481458 0.593127,-0.00322 0.0099,1.1264216 -0.509309,-0.00693 z"
       fill="#323232"
       id="path7-2"
       style="stroke-width:0.349649" />
    <rect
       ry="0.25489414"
       rx="0.27971923"
       y="3.6148057"
       x="33.219624"
       height="2.5748155"
       width="3.4901967"
       fill="#323232"
       id="rect8"
       style="stroke-width:0.349649" />
    <path
       d="M 25.696427,15.554049 28.88878,6.8621077 c 0.429207,-0.8050106 0.83196,-0.8987148 1.260919,-0.9123134 l 9.523406,0.054146 0.643813,-0.6171089 h 3.809461"
       fill="none"
       stroke="#323232"
       stroke-width="0.774123"
       id="path8-3" />
    <path
       fill="#323232"
       d="m 24.959655,2.3173566 0.434151,-3.5e-6 v 0.6527116 l -0.434398,-2.458e-4 z m 0.749134,7e-7 0.434152,-3.5e-6 2.46e-4,0.652464 -0.434399,-2.458e-4 z m 0.773117,-2.451e-4 h 0.434152 v 0.6527116 l -0.434152,3.4e-6 z m 0.76471,2.483e-4 0.434153,-3.5e-6 v 0.6527122 l -0.434152,-4.895e-4 z m 0.744438,-2.455e-4 0.434152,-3.5e-6 v 0.6527116 l -0.434152,3.1e-6 z m 0.791166,0 0.434399,2.458e-4 -2.48e-4,0.652464 -0.434152,3.1e-6 z m 0.791165,0 0.434399,2.458e-4 v 0.6527119 l -0.434398,-2.458e-4 z m 0.751607,-1.4e-6 0.434152,4e-7 v 0.6527111 l -0.434152,3.5e-6 z m 0.763969,1.1e-6 0.4344,2.458e-4 2.45e-4,0.6524639 -0.434399,-2.454e-4 z m 0.758283,2.479e-4 0.434152,-3.5e-6 2.45e-4,0.6524647 -0.4344,-2.459e-4 z m 0.764463,2.8e-6 0.434152,-3.5e-6 V 2.9700737 L 32.61146,2.9698279 Z m 0.764464,2.4e-6 0.434399,-2.472e-4 V 2.9698318 L 33.376171,2.969586 Z m 0.76471,-2.482e-4 0.4344,2.458e-4 v 0.6527118 l -0.434646,-4.895e-4 z m 0.784985,2.489e-4 0.433906,-2.454e-4 v 0.6527111 l -0.434152,3.5e-6 z m 0.730839,-3e-7 0.434152,-3.5e-6 v 0.6527111 l -0.434152,-4.895e-4 z m 0.764217,-2.5e-4 0.4344,2.458e-4 V 2.9700755 L 36.420674,2.969586 Z m 0.76471,2.482e-4 0.434401,-2.51e-4 v 0.6527115 l -0.434401,-2.458e-4 z m 0.764462,2.5e-6 0.434649,5.2e-6 V 2.970086 l -0.434649,-4.895e-4 z m 0.751361,-2.469e-4 0.434152,-3.5e-6 V 2.96983 l -0.434152,3.5e-6 z m 0.757788,2.462e-4 0.434155,-3.5e-6 7e-6,0.6527122 -0.434404,-2.458e-4 z m 0.771144,-2.479e-4 0.43439,2.454e-4 7e-6,0.6527122 -0.434639,-4.895e-4 z m -2.528026,6.3048468 h 1.319268 V 9.274679 l -0.434397,-2.458e-4 z m 1.649337,-2.465e-4 0.434393,2.458e-4 -1.99e-4,0.6524657 -0.433904,-2.475e-4 z m 0.758032,-1.1e-6 0.434397,2.455e-4 -1.96e-4,0.6524657 -0.433908,-2.479e-4 z m 0.751112,4e-7 0.434152,-3.5e-6 7e-6,0.6527119 -0.434148,3.5e-6 z m 0.744438,2.475e-4 0.434397,-2.475e-4 7e-6,0.6527115 -0.434401,-2.458e-4 z m 0.750861,-2.454e-4 0.434404,2.458e-4 7e-6,0.6527119 -0.434397,-7.343e-4 z m 0.758284,2.479e-4 0.434155,-3.2e-6 7e-6,0.6527116 -0.4344,-7.343e-4 z m 0.710812,-2.483e-4 0.823311,-1.7e-6 7e-6,0.6527115 -0.823553,-2.472e-4 z m -19.603346,-6.304352 0.434154,-3.5e-6 v 0.6527111 l -0.434399,-2.454e-4 z m -3.809461,0 0.434152,-3.5e-6 10e-7,0.6527115 -0.434152,-4.895e-4 z m -0.762238,-2.434e-4 0.434152,-3.5e-6 V 2.9698339 L 18.786586,2.969587 Z M 21.180603,0 21.719585,0.04894457 c 0.294215,0.19037481 0.50239,0.99192383 0.50239,0.99192383 l 0.03634,0.7963575 1.496539,0.1906213 c 0.198286,0.035106 0.171337,0.2390806 0.171337,0.2390806 l 0.01038,0.8198452 -2.745591,0.012115 z m 19.937371,0 0.538974,0.04894072 c 0.294219,0.19037446 0.502393,0.99192388 0.502393,0.99192388 l 0.03635,0.7963578 1.496537,0.1906206 c 0.198286,0.035113 0.171335,0.239081 0.171335,0.239081 l 0.01038,0.8198451 -2.745591,0.012115 z"
       id="path9-2"
       style="stroke-width:0.349649" />
  </g>
</svg>
