<?xml version="1.0" encoding="UTF-8" standalone="no"?>
<!-- Created with Inkscape (http://www.inkscape.org/) -->

<svg
   width="26.377428mm"
   height="30.0445mm"
   viewBox="0 0 26.377429 30.044501"
   version="1.1"
   id="svg5"
   inkscape:version="1.4 (86a8ad7, 2024-10-11)"
   sodipodi:docname="oak_tree_dead.svg"
   xmlns:inkscape="http://www.inkscape.org/namespaces/inkscape"
   xmlns:sodipodi="http://sodipodi.sourceforge.net/DTD/sodipodi-0.dtd"
   xmlns="http://www.w3.org/2000/svg"
   xmlns:svg="http://www.w3.org/2000/svg">
  <sodipodi:namedview
     id="namedview7"
     pagecolor="#ffffff"
     bordercolor="#666666"
     borderopacity="1.0"
     inkscape:pageshadow="2"
     inkscape:pageopacity="0.0"
     inkscape:pagecheckerboard="0"
     inkscape:document-units="mm"
     showgrid="false"
     inkscape:zoom="2.6695912"
     inkscape:cx="25.846654"
     inkscape:cy="134.66481"
     inkscape:window-width="1920"
     inkscape:window-height="1009"
     inkscape:window-x="-8"
     inkscape:window-y="-8"
     inkscape:window-maximized="1"
     inkscape:current-layer="layer1"
     fit-margin-top="0"
     fit-margin-left="0"
     fit-margin-right="0"
     fit-margin-bottom="0"
     inkscape:showpageshadow="2"
     inkscape:deskcolor="#d1d1d1" />
  <defs
     id="defs2" />
  <g
     inkscape:label="Layer 1"
     inkscape:groupmode="layer"
     id="layer1"
     transform="translate(-29.77482,-23.078143)">
    <g
       id="g1"
       style="fill:#1a8e11;fill-opacity:0.788749"
       transform="matrix(0.11299163,0,0,0.12084792,15.798263,10.584215)">
      <g
         id="g3"
         transform="matrix(8.8502132,0,0,8.2748632,9.2966796,43.636613)">
        <path
           style="fill:#1a8e11;fill-opacity:0.788235;stroke:none;stroke-width:1;stroke-linecap:round;stroke-linejoin:round;stroke-dasharray:none;stroke-opacity:1"
           d="m 17.21813,26.50077 c -1.984357,-0.774474 -3.724975,-1.989416 -3.47577,-4.209136 0.584192,-0.531421 1.81339,-1.224281 3.013499,-1.471709 1.259843,1.594906 1.234185,3.627154 0.462271,5.680845 z"
           id="path5"
           sodipodi:nodetypes="cccc" />
        <path
           style="fill:#1a8e11;fill-opacity:0.788235;stroke:none;stroke-width:1;stroke-linecap:round;stroke-linejoin:round;stroke-dasharray:none;stroke-opacity:1"
           d="m 21.406462,7.8548671 c 1.984357,0.774474 3.724975,1.989416 3.47577,4.2091359 -0.584192,0.531421 -1.81339,1.224281 -3.013499,1.471709 C 20.60889,11.940806 20.634548,9.9085581 21.406462,7.8548671 Z"
           id="path3"
           sodipodi:nodetypes="cccc" />
        <path
           style="fill:#1a8e11;fill-opacity:0.788235;stroke:none;stroke-width:1;stroke-linecap:round;stroke-linejoin:round;stroke-dasharray:none;stroke-opacity:1"
           d="m 24.024623,7.2205344 c 1.819724,1.107288 3.322925,2.6060274 2.692056,4.7487516 -0.667597,0.421903 -1.998435,0.890789 -3.223277,0.926061 -0.96375,-1.789445 -0.585586,-3.7863633 0.531221,-5.6748126 z"
           id="path4"
           sodipodi:nodetypes="cccc" />
        <path
           style="fill:#896111;fill-opacity:1;stroke:#443300;stroke-width:1;stroke-linecap:round;stroke-linejoin:round;stroke-dasharray:none;stroke-opacity:1"
           d="m 13.464813,22.97133 10.372046,-11.213022 5.055822,-0.41903 -3.562128,2.2256 -10.200791,10.404596 z"
           id="path2"
           sodipodi:nodetypes="cccccc" />
      </g>
      <g
         id="g9"
         transform="matrix(0,8.2748633,8.8502131,0,59.792235,108.78051)">
        <path
           style="fill:#1a8e11;fill-opacity:0.788235;stroke:none;stroke-width:1;stroke-linecap:round;stroke-linejoin:round;stroke-dasharray:none;stroke-opacity:1"
           d="m 17.21813,26.50077 c -1.984357,-0.774474 -3.724975,-1.989416 -3.47577,-4.209136 0.584192,-0.531421 1.81339,-1.224281 3.013499,-1.471709 1.259843,1.594906 1.234185,3.627154 0.462271,5.680845 z"
           id="path6"
           sodipodi:nodetypes="cccc" />
        <path
           style="fill:#1a8e11;fill-opacity:0.788235;stroke:none;stroke-width:1;stroke-linecap:round;stroke-linejoin:round;stroke-dasharray:none;stroke-opacity:1"
           d="m 21.406462,7.8548671 c 1.984357,0.774474 3.724975,1.989416 3.47577,4.2091359 -0.584192,0.531421 -1.81339,1.224281 -3.013499,1.471709 C 20.60889,11.940806 20.634548,9.9085581 21.406462,7.8548671 Z"
           id="path14"
           sodipodi:nodetypes="cccc"
           transform="translate(1.0447925e-6)" />
        <path
           style="fill:#1a8e11;fill-opacity:0.788235;stroke:none;stroke-width:1;stroke-linecap:round;stroke-linejoin:round;stroke-dasharray:none;stroke-opacity:1"
           d="m 12.698747,14.108978 c 0.66956,-2.02217 1.79174,-3.823988 4.02146,-3.691296 0.561267,0.555579 1.317509,1.746831 1.627406,2.932346 -1.526785,1.341588 -3.55759,1.422325 -5.648866,0.75895 z"
           id="path7"
           sodipodi:nodetypes="cccc" />
        <path
           style="fill:#1a8e11;fill-opacity:0.788235;stroke:none;stroke-width:1;stroke-linecap:round;stroke-linejoin:round;stroke-dasharray:none;stroke-opacity:1"
           d="m 24.024623,7.2205344 c 1.819724,1.107288 3.322925,2.6060274 2.692056,4.7487516 -0.667597,0.421903 -1.998435,0.890789 -3.223277,0.926061 -0.96375,-1.789445 -0.585586,-3.7863633 0.531221,-5.6748126 z"
           id="path8"
           sodipodi:nodetypes="cccc" />
        <path
           style="fill:#896111;fill-opacity:1;stroke:#443300;stroke-width:1;stroke-linecap:round;stroke-linejoin:round;stroke-dasharray:none;stroke-opacity:1"
           d="m 13.464813,22.97133 6.766708,-8.719786 -4.543977,-3.954825 6.488985,2.775679 1.66033,-1.31409 5.055822,-0.41903 -3.562128,2.2256 -10.200791,10.404596 z"
           id="path9"
           sodipodi:nodetypes="ccccccccc" />
      </g>
      <g
         id="g13"
         transform="matrix(8.8502132,0,0,-8.2748632,97.011198,393.2063)">
        <path
           style="fill:#1a8e11;fill-opacity:0.788235;stroke:none;stroke-width:1;stroke-linecap:round;stroke-linejoin:round;stroke-dasharray:none;stroke-opacity:1"
           d="m 17.21813,26.50077 c -1.984357,-0.774474 -3.724975,-1.989416 -3.47577,-4.209136 0.584192,-0.531421 1.81339,-1.224281 3.013499,-1.471709 1.259843,1.594906 1.234185,3.627154 0.462271,5.680845 z"
           id="path10"
           sodipodi:nodetypes="cccc" />
        <path
           style="fill:#1a8e11;fill-opacity:0.788235;stroke:none;stroke-width:1;stroke-linecap:round;stroke-linejoin:round;stroke-dasharray:none;stroke-opacity:1"
           d="m 21.406462,7.8548671 c 1.984357,0.774474 3.724975,1.989416 3.47577,4.2091359 -0.584192,0.531421 -1.81339,1.224281 -3.013499,1.471709 C 20.60889,11.940806 20.634548,9.9085581 21.406462,7.8548671 Z"
           id="path11"
           sodipodi:nodetypes="cccc" />
        <path
           style="fill:#1a8e11;fill-opacity:0.788235;stroke:none;stroke-width:1;stroke-linecap:round;stroke-linejoin:round;stroke-dasharray:none;stroke-opacity:1"
           d="m 24.024623,7.2205344 c 1.819724,1.107288 3.322925,2.6060274 2.692056,4.7487516 -0.667597,0.421903 -1.998435,0.890789 -3.223277,0.926061 -0.96375,-1.789445 -0.585586,-3.7863633 0.531221,-5.6748126 z"
           id="path12"
           sodipodi:nodetypes="cccc" />
        <path
           style="fill:#896111;fill-opacity:1;stroke:#443300;stroke-width:1;stroke-linecap:round;stroke-linejoin:round;stroke-dasharray:none;stroke-opacity:1"
           d="m 13.464813,22.97133 -0.456659,-4.428112 1.609964,1.11602 1.601189,-0.886974 7.617552,-7.013956 5.055822,-0.41903 -3.562128,2.2256 -10.200791,10.404596 z"
           id="path13"
           sodipodi:nodetypes="ccccccccc" />
      </g>
    </g>
    <circle
       style="fill:#896111;fill-opacity:1;stroke:#443300;stroke-width:1.43887;stroke-linecap:square;stroke-linejoin:round;stroke-miterlimit:0;stroke-opacity:1"
       id="path846"
       cx="42.963535"
       cy="38.100395"
       r="9.7837963" />
    <circle
       style="fill:none;stroke:#443300;stroke-width:0.388;stroke-dasharray:none;stroke-opacity:1"
       id="path1"
       cx="42.963535"
       cy="38.100395"
       r="6.7354789" />
    <circle
       style="fill:none;stroke:#443300;stroke-width:0.388;stroke-dasharray:none;stroke-opacity:1"
       id="circle1"
       cx="42.963535"
       cy="38.100395"
       r="4.3536754" />
    <circle
       style="fill:none;stroke:#443300;stroke-width:0.388;stroke-dasharray:none;stroke-opacity:1"
       id="circle2"
       cx="42.963535"
       cy="38.100391"
       r="2.0277312" />
  </g>
</svg>
