<?xml version="1.0" encoding="UTF-8" standalone="no"?>
<!-- Created with Inkscape (http://www.inkscape.org/) -->

<svg
   width="48.947525mm"
   height="25.251982mm"
   viewBox="0 0 48.947525 25.251982"
   version="1.1"
   id="svg5"
   inkscape:version="1.1.2 (0a00cf5339, 2022-02-04)"
   sodipodi:docname="bandage.svg"
   xmlns:inkscape="http://www.inkscape.org/namespaces/inkscape"
   xmlns:sodipodi="http://sodipodi.sourceforge.net/DTD/sodipodi-0.dtd"
   xmlns="http://www.w3.org/2000/svg"
   xmlns:svg="http://www.w3.org/2000/svg">
  <sodipodi:namedview
     id="namedview7"
     pagecolor="#ffffff"
     bordercolor="#666666"
     borderopacity="1.0"
     inkscape:pageshadow="2"
     inkscape:pageopacity="0.0"
     inkscape:pagecheckerboard="0"
     inkscape:document-units="mm"
     showgrid="false"
     inkscape:zoom="3.3145702"
     inkscape:cx="109.21476"
     inkscape:cy="74.217767"
     inkscape:window-width="1920"
     inkscape:window-height="996"
     inkscape:window-x="0"
     inkscape:window-y="0"
     inkscape:window-maximized="1"
     inkscape:current-layer="layer1"
     fit-margin-top="0"
     fit-margin-left="0"
     fit-margin-right="0"
     fit-margin-bottom="0" />
  <defs
     id="defs2" />
  <g
     inkscape:label="Layer 1"
     inkscape:groupmode="layer"
     id="layer1"
     transform="translate(-66.338108,-110.2)">
    <circle
       style="fill:#f7f7f7;fill-opacity:1;stroke:#000000;stroke-width:1.3;stroke-linecap:square;stroke-linejoin:round"
       id="path846"
       cx="81.011635"
       cy="118.51198"
       r="7.6317496" />
    <path
       id="rect904"
       style="fill:#f7f7f7;fill-opacity:1;stroke:#000000;stroke-width:1.28462;stroke-linecap:square"
       d="m 80.76226,110.92767 h 25.94478 v 15.15267 H 80.76226"
       sodipodi:nodetypes="cccc" />
    <circle
       style="fill:#f7f7f7;fill-opacity:1;stroke:#000000;stroke-width:1.3;stroke-linecap:square;stroke-linejoin:round;stroke-miterlimit:4;stroke-dasharray:none"
       id="path846-3"
       cx="107.00388"
       cy="118.48175"
       r="7.6317496" />
    <path
       id="path2201"
       style="fill:#ffffff;stroke:#000000;stroke-width:4.83042;stroke-linecap:butt;stroke-linejoin:miter;stroke-miterlimit:4;stroke-dasharray:none;stroke-opacity:1;fill-opacity:1"
       d="m 412.50586,476.52344 -113.71484,0.66992 -46.80469,28.60937 8.80859,-3.22265 3.74024,6.94922 h 0.54101 l 9.96485,-6.76758 9.91796,6.76758 h 6.2461 l 4.89648,-6.34571 9.1836,4.90625 14.12109,-5.92382 7.37891,7.36328 h 3.15234 l 5.65625,-6.45313 9.15234,6.45313 h 6.74024 l 5.96875,-6.08399 7.18359,6.08399 h 3.23633 z"
       transform="scale(0.26458333)" />
    <path
       sodipodi:type="spiral"
       style="fill:none;fill-rule:evenodd;stroke:#000000;stroke-width:2.3031;stroke-miterlimit:4;stroke-dasharray:none"
       id="path2615"
       sodipodi:cx="399.28937"
       sodipodi:cy="444.517"
       sodipodi:expansion="1"
       sodipodi:revolution="3"
       sodipodi:radius="28.465393"
       sodipodi:argument="-18.172571"
       sodipodi:t0="0"
       d="m 399.28937,444.517 c 1.11246,0.89407 -0.65634,1.94067 -1.486,1.84898 -2.24834,-0.24849 -2.90729,-3.02196 -2.21197,-4.82099 1.24378,-3.21803 5.29581,-4.02018 8.15597,-2.57494 4.19741,2.12096 5.16194,7.599 2.93793,11.49095 -2.96426,5.18737 -9.91242,6.31573 -14.82594,3.30091 -6.18317,-3.79385 -7.47569,-12.23066 -3.66388,-18.16092 4.6166,-7.18235 14.5516,-8.63922 21.4959,-4.02686 8.18362,5.4355 9.805,16.87423 4.38984,24.83088 -6.25201,9.18627 -19.198,10.97226 -28.16587,4.75282 -10.18986,-7.06692 -12.14057,-21.52254 -5.1158,-31.50085 7.88073,-11.19415 23.84768,-13.30964 34.83584,-5.47878 12.19893,8.69374 14.47928,26.17324 5.84176,38.17082"
       transform="matrix(0.20090987,0,0,0.26458333,26.589709,1.0352218)" />
  </g>
</svg>
