<?xml version="1.0" encoding="UTF-8" standalone="no"?>
<!-- Created with Inkscape (http://www.inkscape.org/) -->

<svg
   width="65.231781mm"
   height="25.00001mm"
   viewBox="0 0 65.231781 25.00001"
   version="1.1"
   id="svg5"
   inkscape:version="1.4 (86a8ad7, 2024-10-11)"
   sodipodi:docname="lifecandy.svg"
   inkscape:export-filename="lifecandy.png"
   inkscape:export-xdpi="96"
   inkscape:export-ydpi="96"
   xmlns:inkscape="http://www.inkscape.org/namespaces/inkscape"
   xmlns:sodipodi="http://sodipodi.sourceforge.net/DTD/sodipodi-0.dtd"
   xmlns="http://www.w3.org/2000/svg"
   xmlns:svg="http://www.w3.org/2000/svg">
  <sodipodi:namedview
     id="namedview7"
     pagecolor="#ffffff"
     bordercolor="#666666"
     borderopacity="1.0"
     inkscape:pageshadow="2"
     inkscape:pageopacity="0.0"
     inkscape:pagecheckerboard="0"
     inkscape:document-units="mm"
     showgrid="false"
     inkscape:zoom="1.3083594"
     inkscape:cx="59.616647"
     inkscape:cy="145.60219"
     inkscape:window-width="1920"
     inkscape:window-height="1009"
     inkscape:window-x="-8"
     inkscape:window-y="-8"
     inkscape:window-maximized="1"
     inkscape:current-layer="layer1"
     fit-margin-top="0"
     fit-margin-left="0"
     fit-margin-right="0"
     fit-margin-bottom="0"
     inkscape:showpageshadow="2"
     inkscape:deskcolor="#d1d1d1" />
  <defs
     id="defs2" />
  <g
     inkscape:label="Layer 1"
     inkscape:groupmode="layer"
     id="layer1"
     transform="translate(-61.345118,-94.234995)">
    <path
       style="fill:#ff0019"
       d="m 69.18007,95.07888 h 48.8463 l 5.71286,3.084881 -5.42865,3.230989 5.85643,2.90123 -6.68148,3.66304 7.04033,2.67083 -7.64712,4.20387 6.55716,3.5574 H 69.18007 l -4.261677,-1.65066 4.984194,-4.00472 -6.506426,-2.87527 6.499466,-4.48651 -6.125732,-1.83908 5.775775,-2.47706 -5.977351,-2.980545 z"
       id="path2"
       sodipodi:nodetypes="cccccccccccccccccc" />
    <g
       id="g4"
       inkscape:label="Content">
      <ellipse
         style="fill:#396e1a;fill-opacity:1;stroke:#2a5213;stroke-width:1;stroke-dasharray:none;stroke-opacity:1"
         id="path4"
         cx="93.961006"
         cy="106.87407"
         rx="16.127464"
         ry="8.594574" />
      <rect
         style="fill:#ffffff;fill-opacity:1;stroke:#0014af;stroke-width:0;stroke-linecap:square;stroke-linejoin:round"
         id="rect1722"
         width="5.5698843"
         height="13.094086"
         x="90.531746"
         y="97.113159"
         transform="matrix(0.79663369,0,0,0.79663369,19.651365,24.155789)" />
      <rect
         style="fill:#ffffff;fill-opacity:1;stroke:#0014af;stroke-width:0;stroke-linecap:square;stroke-linejoin:round"
         id="rect1722-6"
         width="5.5698843"
         height="13.094086"
         x="100.68882"
         y="-99.826607"
         transform="matrix(0,0.79663369,-0.79663369,0,19.651365,24.155789)" />
      <g
         id="g2018"
         transform="matrix(0.79663369,0,0,0.79663369,19.651365,24.155789)" />
    </g>
    <rect
       style="fill:#000000;fill-opacity:0.482331;stroke:none;stroke-width:1.80547;stroke-dasharray:none;stroke-opacity:1"
       id="rect2"
       width="36.805"
       height="22.750343"
       x="75.55851"
       y="95.347237" />
    <g
       id="g5">
      <rect
         style="fill:#ff0019;fill-opacity:1;stroke:none;stroke-width:1;stroke-dasharray:none;stroke-opacity:1"
         id="rect4"
         width="10.629203"
         height="22.467291"
         x="72.880119"
         y="95.64785"
         transform="translate(1.0478825e-6)" />
      <rect
         style="fill:#ff0019;fill-opacity:1;stroke:none;stroke-width:1;stroke-dasharray:none;stroke-opacity:1"
         id="rect5"
         width="10.629203"
         height="22.467291"
         x="106.24729"
         y="95.546738" />
      <rect
         style="fill:#ff0019;fill-opacity:1;stroke:none;stroke-width:0.556374;stroke-dasharray:none;stroke-opacity:1"
         id="rect6"
         width="25.071684"
         height="2.9484925"
         x="81.938171"
         y="94.903259" />
      <rect
         style="fill:#ff0019;fill-opacity:1;stroke:none;stroke-width:0.556374;stroke-dasharray:none;stroke-opacity:1"
         id="rect7"
         width="25.071684"
         height="2.9484925"
         x="81.509186"
         y="115.63751" />
    </g>
    <path
       style="fill:#9f001e"
       d="m 69.011719,94.234375 -7.240235,3.869141 5.8125,2.896484 -6.238281,2.67578 6.667969,2.00195 -6.294922,4.34571 6.617187,2.92383 -5.042968,4.05078 5.773437,2.23633 h 54.412114 l 0.40234,-1.58594 -5.19922,-2.82031 7.89453,-4.33985 -7.03711,-2.66992 6.4961,-3.56055 -5.91797,-2.93164 5.375,-3.197264 -7.20899,-3.894531 z m 0.423828,1.6875 h 48.419923 l 4.21875,2.277344 -5.48438,3.263671 5.79688,2.87109 -6.86914,3.76563 7.04492,2.66992 -7.40039,4.06836 4.99219,2.70899 H 69.380859 l -2.75,-1.06446 4.925782,-3.95703 -6.396485,-2.82812 6.703125,-4.62696 -5.582031,-1.67578 5.314453,-2.2793 -6.144531,-3.064449 z"
       id="path3"
       transform="translate(1.0478825e-6)" />
  </g>
</svg>
