<?xml version="1.0" encoding="UTF-8" standalone="no"?>
<!-- Created with Inkscape (http://www.inkscape.org/) -->

<svg
   width="27.268099mm"
   height="36.40633mm"
   viewBox="0 0 27.268099 36.40633"
   version="1.1"
   id="svg5"
   inkscape:version="1.4 (86a8ad7, 2024-10-11)"
   sodipodi:docname="purple_potion.svg"
   inkscape:export-filename="purple_potion.png"
   inkscape:export-xdpi="238.46181"
   inkscape:export-ydpi="238.46181"
   xmlns:inkscape="http://www.inkscape.org/namespaces/inkscape"
   xmlns:sodipodi="http://sodipodi.sourceforge.net/DTD/sodipodi-0.dtd"
   xmlns="http://www.w3.org/2000/svg"
   xmlns:svg="http://www.w3.org/2000/svg">
  <sodipodi:namedview
     id="namedview7"
     pagecolor="#ffffff"
     bordercolor="#666666"
     borderopacity="1.0"
     inkscape:pageshadow="2"
     inkscape:pageopacity="0.0"
     inkscape:pagecheckerboard="0"
     inkscape:document-units="mm"
     showgrid="false"
     fit-margin-top="0"
     fit-margin-left="0"
     fit-margin-right="0"
     fit-margin-bottom="0"
     inkscape:zoom="2.0397662"
     inkscape:cx="79.911119"
     inkscape:cy="124.7692"
     inkscape:window-width="1920"
     inkscape:window-height="1009"
     inkscape:window-x="-8"
     inkscape:window-y="-8"
     inkscape:window-maximized="1"
     inkscape:current-layer="layer1"
     inkscape:showpageshadow="2"
     inkscape:deskcolor="#d1d1d1" />
  <defs
     id="defs2" />
  <g
     inkscape:label="Layer 1"
     inkscape:groupmode="layer"
     id="layer1"
     transform="translate(-67.365951,-110.84095)">
    <path
       id="path976"
       style="fill:#d100ff;fill-opacity:1;stroke-width:0;stroke-linecap:square"
       d="M 73.67537,122.66753 H 88.38 c 3.17461,0 5.73035,6.92972 5.73035,10.27906 v 3.38541 c 0,3.34933 -6.78907,10.27905 -9.96368,10.27905 H 77.9087 c -3.17461,0 -9.96368,-6.92972 -9.96368,-10.27905 v -3.38541 c -1e-5,-3.34934 2.55574,-10.27906 5.73035,-10.27906 z"
       sodipodi:nodetypes="sssssssss" />
    <g
       id="g1718"
       transform="translate(-62.55374,-23.731437)">
      <path
         id="rect880-3"
         style="fill:#1e00ff;fill-opacity:0;stroke:#000000;stroke-linecap:square"
         d="m 149.53027,146.77284 h 1.42717 c 3.17461,0 5.73035,6.94757 5.73035,10.31907 v 3.06774 c 0,3.3715 -6.78907,10.31907 -9.96368,10.31907 h -6.23797 c -3.17461,0 -9.96368,-6.94757 -9.96368,-10.31907 v -3.06774 c 0,-3.3715 2.55574,-10.31907 5.73035,-10.31907 h 1.37661"
         sodipodi:nodetypes="cssssssssc" />
    </g>
    <path
       id="rect1766"
       style="fill:#d100ff;fill-opacity:1;stroke-width:0.940135;stroke-linecap:square"
       d="m 75.78591,120.10584 c 1.95684,-1.32651 4.1872,-1.09075 6.56725,0 1.59013,0.78513 2.89631,0.64513 3.93036,0 v 3.42591 H 75.78591 Z"
       sodipodi:nodetypes="cccccc" />
    <path
       id="rect3143"
       style="fill:#b16729;stroke-width:0.545203;stroke-linecap:square"
       d="M 74.49239,110.84095 H 87.5898 l -0.52917,3.78614 H 75.02156 Z"
       sodipodi:nodetypes="ccccc" />
    <path
       id="rect1191"
       style="fill:#1e00ff;fill-opacity:0;stroke:#000000;stroke-width:1.18613;stroke-linecap:square"
       d="m 75.24428,122.91127 v -8.17707 h 11.59575 v 8.17707"
       sodipodi:nodetypes="cccc" />
  </g>
</svg>
