<?xml version="1.0" encoding="UTF-8" standalone="no"?>
<!-- Created with Inkscape (http://www.inkscape.org/) -->

<svg
   width="35mm"
   height="35mm"
   viewBox="0 0 35 35"
   version="1.1"
   id="svg1"
   inkscape:version="1.4 (86a8ad7, 2024-10-11)"
   sodipodi:docname="acessorie.svg"
   xml:space="preserve"
   xmlns:inkscape="http://www.inkscape.org/namespaces/inkscape"
   xmlns:sodipodi="http://sodipodi.sourceforge.net/DTD/sodipodi-0.dtd"
   xmlns="http://www.w3.org/2000/svg"
   xmlns:svg="http://www.w3.org/2000/svg"><sodipodi:namedview
     id="namedview1"
     pagecolor="#ffffff"
     bordercolor="#000000"
     borderopacity="0.25"
     inkscape:showpageshadow="2"
     inkscape:pageopacity="0.0"
     inkscape:pagecheckerboard="0"
     inkscape:deskcolor="#d1d1d1"
     inkscape:document-units="mm"
     inkscape:zoom="1.4378367"
     inkscape:cx="-67.114714"
     inkscape:cy="35.122208"
     inkscape:window-width="1920"
     inkscape:window-height="1009"
     inkscape:window-x="-8"
     inkscape:window-y="-8"
     inkscape:window-maximized="1"
     inkscape:current-layer="layer1" /><defs
     id="defs1"><clipPath
       id="e"><path
         d="M188 128c0 80-69.756 119.362-69.756 119.362C64 244 8.638 193.922 8.638 128S64 12 118.244 8.638C118.244 8.638 188 48 188 128z"
         fill="#252525"
         fill-opacity=".601"
         stroke-width="12.537"
         id="path2" /></clipPath><clipPath
       id="a"><path
         d="M202.297 144.81c13.099-2.734 15.213-12.953 22.657-23.16 7.443-10.202 10.76-11.514 11.356-27.821.278-7.563-2.842-18.433-3.953-24.397-1.284-6.893-6.552-13.576-10.858-19.408-11.539-12.699-13.009-16.57-24.371-17.349-11.365-.775-18.454 2.124-26.241 7.678-7.787 5.555-14.135 9.33-17.177 17.54-3.043 8.208-11.549 16.605-11.7 26.12-.15 9.514 1.959 19.002 5.137 28.181 3.178 9.176 6.674 11.005 11.968 16.442 5.29 5.437 11.304 10.41 17.152 12.438 13.478 2.75 22.053 4.343 26.03 3.735z"
         style="isolation:isolate"
         fill="#958358"
         stroke-width="13.951"
         id="path1-8" /></clipPath></defs><g
     inkscape:label="Camada 1"
     inkscape:groupmode="layer"
     id="layer1"
     style="fill:#000000;fill-opacity:0.308209"
     transform="translate(-55.20446,-37.538283)"><ellipse
       style="fill:none;stroke:#000000;stroke-width:7.7884;stroke-dasharray:none;stroke-opacity:0.309804"
       id="path1"
       cx="72.70446"
       cy="55.038284"
       rx="13.605798"
       ry="13.605801" /></g></svg>
