<?xml version="1.0" encoding="UTF-8" standalone="no"?>
<!-- Created with Inkscape (http://www.inkscape.org/) -->

<svg
   width="35mm"
   height="35mm"
   viewBox="0 0 35 35"
   version="1.1"
   id="svg1"
   inkscape:version="1.4 (86a8ad7, 2024-10-11)"
   sodipodi:docname="helmet.svg"
   xml:space="preserve"
   xmlns:inkscape="http://www.inkscape.org/namespaces/inkscape"
   xmlns:sodipodi="http://sodipodi.sourceforge.net/DTD/sodipodi-0.dtd"
   xmlns="http://www.w3.org/2000/svg"
   xmlns:svg="http://www.w3.org/2000/svg"><sodipodi:namedview
     id="namedview1"
     pagecolor="#ffffff"
     bordercolor="#000000"
     borderopacity="0.25"
     inkscape:showpageshadow="2"
     inkscape:pageopacity="0.0"
     inkscape:pagecheckerboard="0"
     inkscape:deskcolor="#d1d1d1"
     inkscape:document-units="mm"
     inkscape:zoom="1.0167041"
     inkscape:cx="-128.35593"
     inkscape:cy="69.341709"
     inkscape:window-width="1920"
     inkscape:window-height="1009"
     inkscape:window-x="-8"
     inkscape:window-y="-8"
     inkscape:window-maximized="1"
     inkscape:current-layer="layer1" /><defs
     id="defs1"><clipPath
       id="e"><path
         d="M188 128c0 80-69.756 119.362-69.756 119.362C64 244 8.638 193.922 8.638 128S64 12 118.244 8.638C118.244 8.638 188 48 188 128z"
         fill="#252525"
         fill-opacity=".601"
         stroke-width="12.537"
         id="path2" /></clipPath><clipPath
       id="a"><path
         d="M202.297 144.81c13.099-2.734 15.213-12.953 22.657-23.16 7.443-10.202 10.76-11.514 11.356-27.821.278-7.563-2.842-18.433-3.953-24.397-1.284-6.893-6.552-13.576-10.858-19.408-11.539-12.699-13.009-16.57-24.371-17.349-11.365-.775-18.454 2.124-26.241 7.678-7.787 5.555-14.135 9.33-17.177 17.54-3.043 8.208-11.549 16.605-11.7 26.12-.15 9.514 1.959 19.002 5.137 28.181 3.178 9.176 6.674 11.005 11.968 16.442 5.29 5.437 11.304 10.41 17.152 12.438 13.478 2.75 22.053 4.343 26.03 3.735z"
         style="isolation:isolate"
         fill="#958358"
         stroke-width="13.951"
         id="path1-8" /></clipPath></defs><g
     inkscape:label="Camada 1"
     inkscape:groupmode="layer"
     id="layer1"
     style="fill:#000000;fill-opacity:0.308209"
     transform="translate(-55.20446,-37.538283)"><path
       d="m 70.49165,37.538511 c 1.370005,0.0065 2.731558,0.153903 4.038069,0.398141 6.621653,1.23767 10.354436,4.483519 12.368463,9.041574 -2.383423,-0.204043 -4.734,-0.421134 -7.022028,-0.405334 -1.841057,0.01298 -3.641766,0.175532 -5.386168,0.617634 -1.156681,0.293705 -1.88202,1.396025 -2.107852,2.66118 -0.225205,1.265154 -0.06537,2.760474 0.38597,4.323111 l 0.02187,0.07556 0.03594,0.06933 c 0.592733,1.143893 1.852631,2.054192 3.458469,3.018437 1.605839,0.963894 3.565445,1.903055 5.518159,2.71924 1.952714,0.816185 3.894801,1.50768 5.464983,1.964894 0.55363,0.161445 1.057527,0.291978 1.506999,0.390909 -0.173908,2.610351 -0.501081,5.314829 -0.917086,8.048493 C 77.158925,67.253614 66.97464,63.762501 57.047775,60.125742 55.067528,56.397946 54.762561,52.876945 55.752211,49.49885 c 1.709694,-5.836959 4.649871,-8.976658 8.03358,-10.580179 2.114743,-1.002026 4.421852,-1.389157 6.705493,-1.380237 z m 12.538006,10.656442 c 0.691564,0.04259 1.394394,0.09686 2.101918,0.15389 l 3.309265,12.43961 c -0.274598,-0.07037 -0.548213,-0.145242 -0.820749,-0.22466 -0.305904,-0.08932 -0.631826,-0.190307 -0.966506,-0.29782 -0.765386,-2.605547 -3.306146,-11.019879 -3.623928,-12.07102 z m 3.565749,0.273438 c 0.82982,0.06933 1.666208,0.138777 2.512604,0.198551 0.0244,0.03778 0.05443,0.07972 0.100722,0.190307 0.120422,0.289226 0.257422,0.789725 0.375029,1.402205 0.23459,1.225309 0.409749,2.912299 0.511718,4.602042 0.101963,1.689391 0.132307,3.390455 0.09134,4.660764 -0.02064,0.63481 -0.06036,1.165886 -0.110096,1.505966 -0.0038,0.02571 -0.0063,0.0261 -0.01005,0.04947 -0.03503,-6.88e-4 -0.07883,-0.0039 -0.117922,-0.0052 z m -10.72916,0.04466 c 1.190775,0 2.188252,1.054919 2.188252,2.360607 0,1.305688 -0.997477,2.360958 -2.188252,2.360958 -1.190775,0 -2.18824,-1.05527 -2.18824,-2.360958 0,-1.305337 0.997465,-2.360607 2.18824,-2.360607 z m 0,1.509394 c -0.467304,0 -0.813872,0.383015 -0.813872,0.851213 0,0.468562 0.346568,0.851915 0.813872,0.851915 0.467304,0 0.813872,-0.383353 0.813872,-0.851915 0,-0.468198 -0.346568,-0.851213 -0.813872,-0.851213 z M 58.290529,62.170054 c 9.453308,3.437182 19.157781,6.739027 29.330499,9.785637 -0.03128,0.194422 -0.06193,0.38817 -0.09384,0.582592 C 76.256602,70.303392 67.982177,66.755256 59.171952,63.384367 58.867044,62.989368 58.573001,62.584411 58.290211,62.170054 Z"
       id="path1-1"
       style="stroke-width:0.327788"
       sodipodi:nodetypes="ccccccscscsccccccccccccccccccscscccsssssssssscccccc" /></g></svg>
