<?xml version="1.0" encoding="UTF-8" standalone="no"?>
<svg
   width="35"
   height="35"
   version="1.1"
   id="svg1"
   sodipodi:docname="vest.svg"
   inkscape:version="1.4 (86a8ad7, 2024-10-11)"
   xmlns:inkscape="http://www.inkscape.org/namespaces/inkscape"
   xmlns:sodipodi="http://sodipodi.sourceforge.net/DTD/sodipodi-0.dtd"
   xmlns="http://www.w3.org/2000/svg"
   xmlns:svg="http://www.w3.org/2000/svg">
  <defs
     id="defs1" />
  <sodipodi:namedview
     id="namedview1"
     pagecolor="#ffffff"
     bordercolor="#000000"
     borderopacity="0.25"
     inkscape:showpageshadow="2"
     inkscape:pageopacity="0.0"
     inkscape:pagecheckerboard="0"
     inkscape:deskcolor="#d1d1d1"
     inkscape:zoom="12.609375"
     inkscape:cx="30.096654"
     inkscape:cy="20.659232"
     inkscape:window-width="1920"
     inkscape:window-height="1009"
     inkscape:window-x="-8"
     inkscape:window-y="-8"
     inkscape:window-maximized="1"
     inkscape:current-layer="svg1" />
  <path
     d="M 30.624926,30.882492 V 20.588131 C 28.437537,18.529081 26.250148,16.470327 26.250148,14.411573 26.250148,10.294065 28.437537,4.1175076 35,2.0587538 35,2.0587538 32.812611,0 30.624926,0 h -6.562463 c 0,4.117804 -4.375074,6.176558 -6.562463,6.176558 -2.187389,0 -6.562463,-2.058754 -6.562463,-6.1762616 H 4.3750741 C 2.1873889,2.964e-4 0,2.0590502 0,2.0590502 6.562463,4.1181003 8.749852,10.294658 8.749852,14.411869 c 0,2.05905 -2.187389,4.117804 -4.3747779,6.176558 V 30.882492 C 8.749852,32.941246 13.124926,35 17.5,35 c 4.375074,0 8.750148,-2.058754 13.124926,-4.117508 z"
     id="path1"
     style="stroke-width:0.296353;fill:#000000;fill-opacity:0.30980393" />
</svg>
