<?xml version="1.0" encoding="UTF-8" standalone="no"?>
<!-- Created with Inkscape (http://www.inkscape.org/) -->

<svg
   width="21mm"
   height="21mm"
   viewBox="0 0 21 21"
   version="1.1"
   id="svg5"
   inkscape:version="1.4 (86a8ad7, 2024-10-11)"
   sodipodi:docname="bush_dead.svg"
   xmlns:inkscape="http://www.inkscape.org/namespaces/inkscape"
   xmlns:sodipodi="http://sodipodi.sourceforge.net/DTD/sodipodi-0.dtd"
   xmlns="http://www.w3.org/2000/svg"
   xmlns:svg="http://www.w3.org/2000/svg">
  <sodipodi:namedview
     id="namedview7"
     pagecolor="#ffffff"
     bordercolor="#666666"
     borderopacity="1.0"
     inkscape:pageshadow="2"
     inkscape:pageopacity="0.0"
     inkscape:pagecheckerboard="0"
     inkscape:document-units="mm"
     showgrid="false"
     inkscape:zoom="2.6695911"
     inkscape:cx="41.204812"
     inkscape:cy="91.961649"
     inkscape:window-width="1920"
     inkscape:window-height="1009"
     inkscape:window-x="-8"
     inkscape:window-y="-8"
     inkscape:window-maximized="1"
     inkscape:current-layer="layer1"
     fit-margin-top="0"
     fit-margin-left="0"
     fit-margin-right="0"
     fit-margin-bottom="0"
     inkscape:showpageshadow="2"
     inkscape:deskcolor="#d1d1d1" />
  <defs
     id="defs2" />
  <g
     inkscape:label="Layer 1"
     inkscape:groupmode="layer"
     id="layer1"
     transform="matrix(0.40828627,0,0,0.40828627,-6.3008423,-2.4695409)">
    <path
       style="fill:#1a8e11;fill-opacity:0.788235;stroke:none;stroke-width:2.00855;stroke-linecap:round;stroke-linejoin:round;stroke-dasharray:none;stroke-opacity:1"
       d="m 60.655647,21.576139 c -3.985682,-1.55557 -7.481802,-3.995843 -6.981261,-8.454263 1.17338,-1.067386 3.642286,-2.45903 6.052766,-2.956002 2.530458,3.20345 2.478923,7.285323 0.928495,11.410265 z"
       id="path11"
       sodipodi:nodetypes="cccc" />
    <path
       style="fill:#1a8e11;fill-opacity:0.788235;stroke:none;stroke-width:2.00855;stroke-linecap:round;stroke-linejoin:round;stroke-dasharray:none;stroke-opacity:1"
       d="m 19.93553,34.990529 c 3.918256,1.718347 8.11592,2.464945 10.914563,-1.041571 -0.07495,-1.58446 -0.836688,-4.314281 -2.189742,-6.370161 -4.054486,0.475879 -6.904366,3.398639 -8.724821,7.411732 z"
       id="path1"
       sodipodi:nodetypes="cccc" />
    <path
       style="fill:#1a8e11;fill-opacity:0.788235;stroke:none;stroke-width:2.00855;stroke-linecap:round;stroke-linejoin:round;stroke-dasharray:none;stroke-opacity:1"
       d="m 35.890749,54.220282 c 3.98568,-1.55557 7.481802,-3.995843 6.981259,-8.454263 -1.173379,-1.067384 -3.642284,-2.459031 -6.052764,-2.956004 -2.530458,3.203453 -2.478923,7.285325 -0.928495,11.410267 z"
       id="path2"
       sodipodi:nodetypes="cccc" />
    <path
       style="fill:#1a8e11;fill-opacity:0.788235;stroke:none;stroke-width:2.00855;stroke-linecap:round;stroke-linejoin:round;stroke-dasharray:none;stroke-opacity:1"
       d="m 29.970281,14.59901 c -1.55557,-3.98568 -3.995843,-7.4818012 -8.454263,-6.9812591 -1.067383,1.173379 -2.459032,3.6422841 -2.956004,6.0527641 3.203453,2.530458 7.285324,2.478923 11.410267,0.928495 z"
       id="path3"
       sodipodi:nodetypes="cccc" />
    <g
       id="g13"
       transform="matrix(2.0085507,0,0,-2.0085507,0.28849574,68.754211)"
       style="fill:#1a8e11;fill-opacity:0.788749">
      <path
         style="fill:#1a8e11;fill-opacity:0.788235;stroke:none;stroke-width:1;stroke-linecap:round;stroke-linejoin:round;stroke-dasharray:none;stroke-opacity:1"
         d="m 17.21813,26.50077 c -1.984357,-0.774474 -3.724975,-1.989416 -3.47577,-4.209136 0.584192,-0.531421 1.81339,-1.224281 3.013499,-1.471709 1.259843,1.594906 1.234185,3.627154 0.462271,5.680845 z"
         id="path10"
         sodipodi:nodetypes="cccc" />
      <path
         style="fill:#1a8e11;fill-opacity:0.788235;stroke:none;stroke-width:1;stroke-linecap:round;stroke-linejoin:round;stroke-dasharray:none;stroke-opacity:1"
         d="m 18.042555,12.830646 c 1.984357,0.774474 3.724975,1.989416 3.47577,4.209136 -0.584192,0.531421 -1.81339,1.224281 -3.013499,1.471709 -1.259843,-1.594906 -1.234185,-3.627154 -0.462271,-5.680845 z"
         id="path11-0"
         sodipodi:nodetypes="cccc" />
      <path
         style="fill:#1a8e11;fill-opacity:0.788235;stroke:none;stroke-width:1;stroke-linecap:round;stroke-linejoin:round;stroke-dasharray:none;stroke-opacity:1"
         d="m 20.660716,12.196313 c 1.819724,1.107288 3.322925,2.606028 2.692056,4.748752 -0.667597,0.421903 -1.998435,0.890789 -3.223277,0.926061 -0.96375,-1.789445 -0.585586,-3.786363 0.531221,-5.674813 z"
         id="path12"
         sodipodi:nodetypes="cccc" />
      <path
         style="fill:#896111;fill-opacity:1;stroke:#443300;stroke-width:0.601536;stroke-linecap:round;stroke-linejoin:round;stroke-dasharray:none;stroke-opacity:1"
         d="m 14.345088,23.00763 -0.274697,-2.663668 0.968451,0.671326 0.963173,-0.533546 4.582231,-4.219147 3.041258,-0.252061 -2.142748,1.338778 -6.136141,6.258738 z"
         id="path13"
         sodipodi:nodetypes="ccccccccc" />
    </g>
    <g
       id="g7"
       transform="matrix(-2.0085507,0,0,-2.0085507,91.383579,78.46679)"
       style="fill:#1a8e11;fill-opacity:0.788749">
      <path
         style="fill:#1a8e11;fill-opacity:0.788235;stroke:none;stroke-width:1;stroke-linecap:round;stroke-linejoin:round;stroke-dasharray:none;stroke-opacity:1"
         d="m 17.21813,26.50077 c -1.984357,-0.774474 -3.724975,-1.989416 -3.47577,-4.209136 0.584192,-0.531421 1.81339,-1.224281 3.013499,-1.471709 1.259843,1.594906 1.234185,3.627154 0.462271,5.680845 z"
         id="path4"
         sodipodi:nodetypes="cccc" />
      <path
         style="fill:#1a8e11;fill-opacity:0.788235;stroke:none;stroke-width:1;stroke-linecap:round;stroke-linejoin:round;stroke-dasharray:none;stroke-opacity:1"
         d="m 18.042555,12.830646 c 1.984357,0.774474 3.724975,1.989416 3.47577,4.209136 -0.584192,0.531421 -1.81339,1.224281 -3.013499,1.471709 -1.259843,-1.594906 -1.234185,-3.627154 -0.462271,-5.680845 z"
         id="path5"
         sodipodi:nodetypes="cccc" />
      <path
         style="fill:#1a8e11;fill-opacity:0.788235;stroke:none;stroke-width:1;stroke-linecap:round;stroke-linejoin:round;stroke-dasharray:none;stroke-opacity:1"
         d="m 20.660716,12.196313 c 1.819724,1.107288 3.322925,2.606028 2.692056,4.748752 -0.667597,0.421903 -1.998435,0.890789 -3.223277,0.926061 -0.96375,-1.789445 -0.585586,-3.786363 0.531221,-5.674813 z"
         id="path6"
         sodipodi:nodetypes="cccc" />
      <path
         style="fill:#896111;fill-opacity:1;stroke:#443300;stroke-width:0.601536;stroke-linecap:round;stroke-linejoin:round;stroke-dasharray:none;stroke-opacity:1"
         d="m 14.345088,23.00763 -0.274697,-2.663668 0.968451,0.671326 0.963173,-0.533546 4.582231,-4.219147 3.041258,-0.252061 -2.142748,1.338778 -6.136141,6.258738 z"
         id="path7"
         sodipodi:nodetypes="ccccccccc" />
    </g>
    <g
       id="g15"
       transform="matrix(2.0085507,0,0,-2.0085507,-8.3875182,84.240965)"
       style="fill:#1a8e11;fill-opacity:0.788749">
      <path
         style="fill:#1a8e11;fill-opacity:0.788235;stroke:none;stroke-width:1;stroke-linecap:round;stroke-linejoin:round;stroke-dasharray:none;stroke-opacity:1"
         d="m 13.911275,16.954633 c 1.984357,0.774474 3.724975,1.989416 3.47577,4.209136 -0.584192,0.531421 -1.81339,1.224281 -3.013499,1.471709 -1.259843,-1.594906 -1.234185,-3.627154 -0.462271,-5.680845 z"
         id="path8"
         sodipodi:nodetypes="cccc" />
      <path
         style="fill:#1a8e11;fill-opacity:0.788235;stroke:none;stroke-width:1;stroke-linecap:round;stroke-linejoin:round;stroke-dasharray:none;stroke-opacity:1"
         d="m 17.390084,14.079404 c 1.819724,1.107288 3.322925,2.606028 2.692056,4.748752 -0.667597,0.421903 -1.998435,0.890789 -3.223277,0.926061 -0.96375,-1.789445 -0.585586,-3.786363 0.531221,-5.674813 z"
         id="path14"
         sodipodi:nodetypes="cccc" />
      <path
         style="fill:#896111;fill-opacity:1;stroke:#443300;stroke-width:0.444675;stroke-linecap:round;stroke-linejoin:round;stroke-dasharray:none;stroke-opacity:1"
         d="m 14.266659,23.242628 0.512846,-1.472805 0.71201,-0.394415 3.387336,-3.118933 2.248199,-0.186332 -1.583991,0.98967 -4.536038,4.626666 z"
         id="path15"
         sodipodi:nodetypes="cccccccc" />
    </g>
    <path
       style="fill:#1a8e11;fill-opacity:0.788235;stroke:none;stroke-width:2.00855;stroke-linecap:round;stroke-linejoin:round;stroke-dasharray:none;stroke-opacity:1"
       d="m 48.737071,7.9119274 c -3.98568,1.55557 -7.481802,3.9958426 -6.98126,8.4542626 1.17338,1.067383 3.642285,2.459032 6.052765,2.956004 2.530458,-3.203453 2.478923,-7.285324 0.928495,-11.4102666 z"
       id="path16"
       sodipodi:nodetypes="cccc" />
  </g>
</svg>
