<?xml version="1.0" encoding="UTF-8" standalone="no"?>
<!-- Created with Inkscape (http://www.inkscape.org/) -->

<svg
   width="39.597027mm"
   height="39.187012mm"
   viewBox="0 0 39.597027 39.187012"
   version="1.1"
   id="svg5"
   inkscape:version="1.4.2 (f4327f4, 2025-05-13)"
   sodipodi:docname="wood_crate_dead.svg"
   xmlns:inkscape="http://www.inkscape.org/namespaces/inkscape"
   xmlns:sodipodi="http://sodipodi.sourceforge.net/DTD/sodipodi-0.dtd"
   xmlns="http://www.w3.org/2000/svg"
   xmlns:svg="http://www.w3.org/2000/svg">
  <sodipodi:namedview
     id="namedview7"
     pagecolor="#ffffff"
     bordercolor="#666666"
     borderopacity="1.0"
     inkscape:pageshadow="2"
     inkscape:pageopacity="0.0"
     inkscape:pagecheckerboard="0"
     inkscape:document-units="mm"
     showgrid="false"
     inkscape:zoom="2.6695911"
     inkscape:cx="9.9266139"
     inkscape:cy="142.1566"
     inkscape:window-width="1920"
     inkscape:window-height="1009"
     inkscape:window-x="-8"
     inkscape:window-y="-8"
     inkscape:window-maximized="1"
     inkscape:current-layer="layer1"
     fit-margin-top="0"
     fit-margin-left="0"
     fit-margin-right="0"
     fit-margin-bottom="0"
     inkscape:showpageshadow="2"
     inkscape:deskcolor="#d1d1d1"
     showguides="true" />
  <defs
     id="defs2" />
  <g
     inkscape:label="Layer 1"
     inkscape:groupmode="layer"
     id="layer1"
     transform="matrix(0.81657254,0,0,0.81657254,-13.053063,-5.5306592)">
    <path
       style="fill:#6e4a0a;fill-opacity:1;stroke:#4f2f04;stroke-width:1.46956;stroke-linecap:round;stroke-linejoin:round;stroke-dasharray:none;stroke-opacity:1"
       d="m 19.363924,23.346391 12.488897,-15.8388336 -1.15015,4.6495846 4.27536,-2.7483212 -2.32141,5.0563392 5.597714,-2.474075 -3.139097,4.140232 4.691148,-2.344361 -13.114383,15.205357 -3.770139,3.40416 1.503723,-4.566556 -4.480893,3.243695 2.743307,-5.651515 -4.306191,3.155075 2.266416,-3.902328 -3.928454,2.407819 z"
       id="path1"
       sodipodi:nodetypes="ccccccccccccccccc" />
    <path
       style="fill:#6e4a0a;fill-opacity:1;stroke:#4f2f04;stroke-width:1.46956;stroke-linecap:round;stroke-linejoin:round;stroke-dasharray:none;stroke-opacity:1"
       d="m 41.259037,20.501838 18.735119,-7.472384 -3.320852,3.451584 5.076731,-0.242436 -4.538569,3.218213 6.0848,0.656245 -4.788654,2.015998 5.234834,0.315298 -18.960068,6.611034 -4.967116,1.063019 3.585541,-3.202892 -5.502415,0.568676 5.201531,-3.522702 -5.306808,0.579279 3.913938,-2.246307 -4.606051,0.121006 z"
       id="path2"
       sodipodi:nodetypes="ccccccccccccccccc" />
    <path
       style="fill:#6e4a0a;fill-opacity:1;stroke:#4f2f04;stroke-width:1.46956;stroke-linecap:round;stroke-linejoin:round;stroke-dasharray:none;stroke-opacity:1"
       d="m 37.971571,31.544752 7.472385,18.735119 -3.451584,-3.320852 0.242436,5.076731 -3.218213,-4.538569 -0.656246,6.0848 -2.015997,-4.788654 -0.315299,5.234833 -6.611034,-18.960067 -1.063018,-4.967116 3.202892,3.585541 -0.568676,-5.502415 3.522702,5.201531 -0.579279,-5.306808 2.246306,3.913937 -0.121004,-4.606051 z"
       id="path3"
       sodipodi:nodetypes="ccccccccccccccccc" />
    <g
       id="g5">
      <path
         style="fill:#8f8f8f;fill-opacity:1;stroke:#727272;stroke-width:0.367381;stroke-linecap:round;stroke-linejoin:round;stroke-dasharray:none;stroke-opacity:1"
         d="m 18.424047,11.041458 1.385702,4.125853 1.015966,0.84237 0.309133,-1.272923 -1.344879,-4.139114 1.230485,-0.399805 -0.379175,-1.1669652 C 19.367336,9.0182372 18.111034,9.304425 16.893571,10.248575 l 0.379171,1.166965 z"
         id="path4"
         sodipodi:nodetypes="cccccccccc"
         inkscape:label="Nail" />
      <path
         style="fill:#8f8f8f;fill-opacity:1;stroke:#727272;stroke-width:0.367381;stroke-linecap:round;stroke-linejoin:round;stroke-dasharray:none;stroke-opacity:1"
         d="m 48.11991,13.014316 -2.138891,3.790509 0.05381,1.318667 1.152815,-0.62202 2.176061,-3.769049 1.120469,0.646903 0.61351,-1.062631 c -0.843048,-0.955178 -1.89636,-1.697294 -3.41264,-1.970288 l -0.61351,1.06263 z"
         id="path5"
         sodipodi:nodetypes="cccccccccc"
         inkscape:label="Nail" />
      <path
         style="fill:#8f8f8f;fill-opacity:1;stroke:#727272;stroke-width:0.367381;stroke-linecap:round;stroke-linejoin:round;stroke-dasharray:none;stroke-opacity:1"
         d="m 26.915892,46.156152 -3.790509,-2.138891 -1.318667,0.05381 0.62202,1.152815 3.769049,2.176061 -0.646903,1.120469 1.062631,0.61351 c 0.955178,-0.843048 1.697294,-1.89636 1.970288,-3.41264 l -1.06263,-0.61351 z"
         id="path6"
         sodipodi:nodetypes="cccccccccc"
         inkscape:label="Nail" />
      <path
         style="fill:#8f8f8f;fill-opacity:1;stroke:#727272;stroke-width:0.367381;stroke-linecap:round;stroke-linejoin:round;stroke-dasharray:none;stroke-opacity:1"
         d="m 52.82639,43.66726 3.790509,-2.138891 1.318667,0.05381 -0.62202,1.152815 -3.769049,2.176061 0.646903,1.120469 -1.062631,0.61351 c -0.955178,-0.843048 -1.697294,-1.89636 -1.970288,-3.41264 l 1.06263,-0.61351 z"
         id="path7"
         sodipodi:nodetypes="cccccccccc"
         inkscape:label="Nail" />
      <path
         style="fill:#8f8f8f;fill-opacity:1;stroke:#727272;stroke-width:0.367381;stroke-linecap:round;stroke-linejoin:round;stroke-dasharray:none;stroke-opacity:1"
         d="m 47.239588,36.690618 2.406334,-3.626622 1.199368,-0.550722 -0.03086,1.309558 -2.370337,3.649995 1.085079,0.704658 -0.668285,1.029064 C 47.627086,38.889034 46.487663,38.28744 45.556046,37.060361 l 0.668284,-1.029067 z"
         id="path8"
         sodipodi:nodetypes="cccccccccc"
         inkscape:label="Nail" />
    </g>
  </g>
</svg>
