<?xml version="1.0" encoding="UTF-8" standalone="no"?>
<!-- Created with Inkscape (http://www.inkscape.org/) -->

<svg
   width="60"
   height="98.359314"
   viewBox="0 0 15.875 26.024237"
   version="1.1"
   id="svg5"
   inkscape:version="1.4.2 (f4327f4, 2025-05-13)"
   sodipodi:docname="regular_helmet_world.svg"
   xml:space="preserve"
   xmlns:inkscape="http://www.inkscape.org/namespaces/inkscape"
   xmlns:sodipodi="http://sodipodi.sourceforge.net/DTD/sodipodi-0.dtd"
   xmlns="http://www.w3.org/2000/svg"
   xmlns:svg="http://www.w3.org/2000/svg"><sodipodi:namedview
     id="namedview7"
     pagecolor="#505050"
     bordercolor="#ffffff"
     borderopacity="1"
     inkscape:pageshadow="0"
     inkscape:pageopacity="0"
     inkscape:pagecheckerboard="1"
     inkscape:document-units="px"
     showgrid="false"
     units="px"
     inkscape:zoom="2.1946698"
     inkscape:cx="-31.211985"
     inkscape:cy="119.60797"
     inkscape:window-width="1920"
     inkscape:window-height="1009"
     inkscape:window-x="-8"
     inkscape:window-y="-8"
     inkscape:window-maximized="1"
     inkscape:current-layer="layer1"
     showguides="false"
     inkscape:showpageshadow="2"
     inkscape:deskcolor="#d1d1d1" /><defs
     id="defs2"><linearGradient
       x1="240.00002"
       y1="150.77409"
       x2="240.00002"
       y2="184.71407"
       gradientUnits="userSpaceOnUse"
       id="color-7"
       gradientTransform="matrix(0.89718188,0,0,0.89718188,21.81132,15.39949)"><stop
         offset="0"
         stop-color="#4d3108"
         id="stop13" /><stop
         offset="1"
         stop-color="#331f00"
         id="stop14" /></linearGradient><linearGradient
       x1="240.00002"
       y1="150.37373"
       x2="240.00002"
       y2="186.34032"
       gradientUnits="userSpaceOnUse"
       id="color-6"><stop
         offset="0"
         stop-color="#261700"
         id="stop11" /><stop
         offset="1"
         stop-color="#0d0800"
         id="stop12" /></linearGradient><linearGradient
       x1="240.46063"
       y1="148.08694"
       x2="240.46063"
       y2="186.37764"
       gradientUnits="userSpaceOnUse"
       id="color-1"><stop
         offset="0"
         stop-color="#0d0d0d"
         id="stop1" /><stop
         offset="1"
         stop-color="#000000"
         id="stop2" /></linearGradient><linearGradient
       x1="240.46063"
       y1="148.08694"
       x2="240.46063"
       y2="186.37764"
       gradientUnits="userSpaceOnUse"
       id="color-2"><stop
         offset="0"
         stop-color="#333333"
         id="stop3" /><stop
         offset="1"
         stop-color="#262626"
         id="stop4" /></linearGradient><linearGradient
       x1="240.49292"
       y1="151.70248"
       x2="240.49292"
       y2="186.37766"
       gradientUnits="userSpaceOnUse"
       id="color-3"><stop
         offset="0"
         stop-color="#1a1a1a"
         id="stop5" /><stop
         offset="1"
         stop-color="#0d0d0d"
         id="stop6" /></linearGradient><linearGradient
       x1="248.75948"
       y1="148.08694"
       x2="248.75948"
       y2="157.52148"
       gradientUnits="userSpaceOnUse"
       id="color-4"><stop
         offset="0"
         stop-color="#666666"
         id="stop7" /><stop
         offset="1"
         stop-color="#666666"
         stop-opacity="0"
         id="stop8" /></linearGradient></defs><g
     inkscape:label="Layer 1"
     inkscape:groupmode="layer"
     id="layer1"
     transform="translate(1.3229173,2.1686867)"><g
       id="g11"
       transform="matrix(0,-0.37544846,0.37544846,0,-56.46076,100.95106)"
       style="stroke:#312817;stroke-width:0;stroke-miterlimit:10"><path
         d="m 213.69296,171.22437 c 0,-13.79603 13.02638,-24.36575 26.82241,-24.36575 13.79603,0 26.82241,10.56972 26.82241,24.36575 0,1.74215 7.31975,6.92672 7.31975,6.92672 0,0 -12.26165,10.9903 -34.14217,10.9903 -21.4644,0 -35.1729,-11.55239 -35.1729,-11.55239 0,0 8.35049,-4.82052 8.35049,-6.36462 z"
         fill="url(#color-1)"
         id="path8"
         style="fill:url(#color-1)" /><path
         d="m 215.53545,173.06686 c 0,-13.79603 11.18389,-24.97992 24.97992,-24.97992 13.79603,0 24.97991,11.18389 24.97991,24.97992 0,1.74215 6.39851,5.08422 6.39851,5.08422 0,0 -9.49791,8.22656 -31.37842,8.22656 -21.4644,0 -31.48791,-8.78865 -31.48791,-8.78865 0,0 6.50799,-2.97803 6.50799,-4.52213 z"
         fill="url(#color-2)"
         id="path9"
         style="fill:url(#color-2)" /><path
         d="m 215.53545,173.06686 c 0,-9.05152 4.81425,-16.97862 12.02186,-21.3604 0.56571,-0.34392 -20.12029,21.77023 11.29981,23.83367 31.48309,2.06758 20.66501,-18.70646 21.20746,-18.02551 3.39929,4.26725 5.4307,9.67251 5.4307,15.55225 0,0.2224 -5.27252,4.80261 -23.69274,6.04447 -21.64947,1.45957 -21.97108,-3.65432 -21.97108,-3.65432 0,0 -1.46584,7.99746 21.23986,6.78892 33.76089,-1.79696 30.82246,-4.09484 30.82246,-4.09484 0,0 -9.49791,8.22656 -31.37842,8.22656 -21.4644,0 -31.48792,-8.78865 -31.48792,-8.78865 0,0 6.50799,-2.97802 6.50799,-4.52212 z"
         fill="url(#color-3)"
         id="path10"
         style="fill:url(#color-3)" /><path
         d="m 240.51537,148.08694 c 7.49226,0 14.21413,3.29845 18.79267,8.52244 3.85225,4.39531 -30.99194,-8.52244 -18.79267,-8.52244 z"
         fill="url(#color-4)"
         id="path11"
         style="fill:url(#color-4)" /></g></g></svg>
